<svg xmlns="http://www.w3.org/2000/svg" xmlns:xlink="http://www.w3.org/1999/xlink" viewBox="0 0 389.82 389.41"><defs><style>.cls-1,.cls-5{fill:none;}.cls-2{isolation:isolate;}.cls-3{clip-path:url(#clip-path);}.cls-4{clip-path:url(#clip-path-2);}.cls-5{stroke:#000;stroke-linecap:round;stroke-linejoin:round;stroke-width:2.45px;}</style><clipPath id="clip-path" transform="translate(-1.41 -2.66)"><rect class="cls-1" width="393" height="396"/></clipPath><clipPath id="clip-path-2" transform="translate(-1.41 -2.66)"><rect class="cls-1" x="-182" y="-57.35" width="841.99" height="595.35"/></clipPath></defs><g id="Layer_2" data-name="Layer 2"><g id="Layer_1-2" data-name="Layer 1"><g class="cls-2"><g class="cls-3"><g class="cls-4"><path class="cls-5" d="M2.63,390.13,38.85,390s26.86-.34,40.31-.34c4.1,0,26.33,1.79,28,.95" transform="translate(-1.41 -2.66)"/><path class="cls-5" d="M90.08,122.34v59.83l-.48,45.58.48,35.14-.89,78.88s-1.31,23.34.41,33.66c2,11.79,5.93,14.24,17.1,14.24" transform="translate(-1.41 -2.66)"/><path class="cls-5" d="M90,127.25c.72-1.44-1.68-24.93-1.68-24.93S88,91.93,88,85.07c0-12.62-1.1-26.55,1.35-38.81C91.18,37,106.51,34.79,114,34.79c25.3,0,50.66-1.69,75.59-1.69" transform="translate(-1.41 -2.66)"/><path class="cls-5" d="M256.34,32.79l25,.65,33.41.34s23.49-1.07,28.35,5.4c9.14,12.19,7.08,24,7.08,38.47" transform="translate(-1.41 -2.66)"/><path class="cls-5" d="M350.37,77.3S350,91.84,350,95.39c0,20.37.66,40.83.66,61.19,0,26.91.67,81.59.67,81.59l.34,27.08V299L353,349.84s-.38,24.55-3,32.44c-3.67,11-14.61,7.12-20.13,7.36" transform="translate(-1.41 -2.66)"/><path class="cls-5" d="M110.42,320.05c0,7.33.73,14.83,0,22.09-1.23,12.31-3.37,26.26,2.19,37.37,1.1,2.2,2.41,6.76,6.13,8.22,6.76,2.66,16,2.14,16,2.14" transform="translate(-1.41 -2.66)"/><path class="cls-5" d="M134.85,389.64l48.94.23,72.27-1.36,32.31,1,25-.17s11.12.51,16.84.51" transform="translate(-1.41 -2.66)"/><path class="cls-5" d="M110.77,319.25H243.2s34.67,1.68,48.81,1c8.7-.39,33.22-.74,24.51-.74" transform="translate(-1.41 -2.66)"/><path class="cls-5" d="M112.61,258H247.67s34.67,1.67,48.81,1c8.7-.4,32.9-.74,24.19-.74" transform="translate(-1.41 -2.66)"/><path class="cls-5" d="M110.84,190.25l132.59-.15s34.66,1.67,48.81,1c8.69-.39,34.78-1.29,26.08-1.29" transform="translate(-1.41 -2.66)"/><path class="cls-5" d="M109.92,119.94H245s34.67,1.67,48.81,1c8.7-.39,34.79-1.29,26.08-1.29" transform="translate(-1.41 -2.66)"/><path class="cls-5" d="M162.37,326.22h69.21s26.54.26,41.32.26h30.47l16,1c4.54-.9,1-7.25-1-8.26" transform="translate(-1.41 -2.66)"/><path class="cls-5" d="M166.84,265h69.21s26.54.26,41.32.26h30.47l16,1c4.54-.91,1.22-6.62-.8-7.63" transform="translate(-1.41 -2.66)"/><path class="cls-5" d="M162.59,197.07H231.8s26.54.26,41.32.26H303.6l16,1c4.54-.91,2.8-7.53.78-8.54" transform="translate(-1.41 -2.66)"/><path class="cls-5" d="M164.16,126.91h69.21s26.53.26,41.32.26h30.47l16,1c4.55-.91,2.17-7.34.16-8.35" transform="translate(-1.41 -2.66)"/><path class="cls-5" d="M164,341.44l27.33.28h39s26.54.26,41.32.26h30.47l16,1c4.54-.91,3.4-7.12,1.38-8.13" transform="translate(-1.41 -2.66)"/><path class="cls-5" d="M168.43,280.22l27.33.27h39s26.53.26,41.32.26h30.47l16,1c4.55-.91,3.41-7.13,1.39-8.13" transform="translate(-1.41 -2.66)"/><path class="cls-5" d="M164.19,212.29l27.33.28h39s26.54.26,41.32.26h30.48l16,1c4.54-.91,3.4-7.12,1.39-8.13" transform="translate(-1.41 -2.66)"/><path class="cls-5" d="M165.75,142.13l27.33.28h39s26.53.25,41.32.25h30.47l16,1c4.55-.91,3.41-7.12,1.39-8.13" transform="translate(-1.41 -2.66)"/><path class="cls-5" d="M162.63,349.21h69.21s26.53-.26,41.32-.26h30.47l16-1c4.55.9,1,7.25-1,8.26" transform="translate(-1.41 -2.66)"/><path class="cls-5" d="M167.1,288h69.21s26.53-.25,41.32-.25H308.1l16-1c4.55.91,1,7.26-1,8.27" transform="translate(-1.41 -2.66)"/><path class="cls-5" d="M162.85,220.06h69.21s26.54-.26,41.32-.26h30.48l16-1c4.54.9,1,7.25-1,8.26" transform="translate(-1.41 -2.66)"/><path class="cls-5" d="M164.42,149.89h69.21s26.53-.25,41.32-.25h30.47l16-1c4.55.91,1,7.26-1,8.27" transform="translate(-1.41 -2.66)"/><path class="cls-5" d="M164.09,335.33c3.48-.17,26.95.19,26.95.19h39s26.54-.26,41.32-.26h30.48l16-1c4.54.91-.09.19-.09.19" transform="translate(-1.41 -2.66)"/><path class="cls-5" d="M168.56,274.11c3.48-.17,26.94.19,26.94.19h39S261,274,275.82,274h30.47l16-1c4.54.91-.1.2-.1.2" transform="translate(-1.41 -2.66)"/><path class="cls-5" d="M164.32,206.18c3.47-.17,26.94.19,26.94.19h39s26.53-.26,41.32-.26h30.47l16-1c4.54.91-.09.19-.09.19" transform="translate(-1.41 -2.66)"/><path class="cls-5" d="M165.88,136c3.48-.17,26.94.19,26.94.19h39s26.53-.26,41.32-.26h30.47l16-1c4.55.91-.09.19-.09.19" transform="translate(-1.41 -2.66)"/><path class="cls-5" d="M115.41,356.51c1.89,1.89,10.11-.15,13.13-.33,10.49-.62,32.54-.26,32.54-.26l40.8.78,37.71.51,38.48-1s20.08.52,30.21.52c2.74,0,8.61,1.55,10.33-1" transform="translate(-1.41 -2.66)"/><path class="cls-5" d="M121,295.87s9-.74,12-.91c10.49-.62,32.54-.26,32.54-.26l40.8.77,37.71.52,38.48-1s20.08.51,30.21.51c2.74,0,8.61,1.55,10.33-1" transform="translate(-1.41 -2.66)"/><path class="cls-5" d="M115.85,226.77c1.89,1.89,9.89.44,12.91.26,10.5-.62,32.54-.26,32.54-.26l40.81.78,37.7.51,38.48-1s20.09.52,30.22.52c2.73,0,8.6,1.55,10.33-1" transform="translate(-1.41 -2.66)"/><path class="cls-5" d="M117.41,156.61s9.89.44,12.92.26c10.49-.62,32.54-.26,32.54-.26l40.8.77,37.7.52,38.48-1s20.09.51,30.22.51c2.74,0,8.61,1.55,10.33-1" transform="translate(-1.41 -2.66)"/><path class="cls-5" d="M162.84,326.75c-1.29.57-1.09,7.22,0,8.48.53.58,1.08-.45,1.74-.29" transform="translate(-1.41 -2.66)"/><path class="cls-5" d="M167.31,265.53c-1.29.57-1.09,7.22.05,8.47.53.59,1.08-.44,1.74-.29" transform="translate(-1.41 -2.66)"/><path class="cls-5" d="M163.07,197.6c-1.29.57-1.1,7.22,0,8.48.53.58,1.08-.45,1.75-.29" transform="translate(-1.41 -2.66)"/><path class="cls-5" d="M164.63,127.44c-1.29.57-1.1,7.22.05,8.48.53.58,1.08-.45,1.74-.3" transform="translate(-1.41 -2.66)"/><path class="cls-5" d="M164.41,341.92c-2.39-3.82-3.72,7.32-1.35,7.09" transform="translate(-1.41 -2.66)"/><path class="cls-5" d="M168.88,280.7c-2.39-3.83-3.72,7.32-1.35,7.09" transform="translate(-1.41 -2.66)"/><path class="cls-5" d="M164.64,212.77c-2.39-3.82-3.73,7.32-1.35,7.09" transform="translate(-1.41 -2.66)"/><path class="cls-5" d="M166.2,142.61c-2.39-3.82-3.72,7.32-1.35,7.09" transform="translate(-1.41 -2.66)"/><path class="cls-5" d="M126.85,334.8c-.18-1.94,3.08-3.92,4.4-5,5-4.05,14.57-1.18,17.68,3.79" transform="translate(-1.41 -2.66)"/><path class="cls-5" d="M127.33,344c3.6,8.13,19.35,5.45,21.23-2.72" transform="translate(-1.41 -2.66)"/><path class="cls-5" d="M125.55,329c0,.45-.91,6.11-.28,6.53.1.07.25,0,.37,0,1.78,0,4.67-1.3,6.91-1.3.3,0,.33,0,.56-.19" transform="translate(-1.41 -2.66)"/><path class="cls-5" d="M141.78,342.54c.93,0,7.15-2.07,7.47-1.68.75.94.18,7.05.18,6.25" transform="translate(-1.41 -2.66)"/><path class="cls-5" d="M131.32,273.58c-.19-1.94,3.08-3.93,4.4-5,5-4.05,14.56-1.19,17.67,3.79" transform="translate(-1.41 -2.66)"/><path class="cls-5" d="M131.8,282.78c3.59,8.13,19.35,5.46,21.23-2.71" transform="translate(-1.41 -2.66)"/><path class="cls-5" d="M130,267.79c0,.44-.91,6.11-.28,6.53.1.07.25,0,.37,0,1.78,0,4.67-1.31,6.91-1.31.29,0,.33,0,.56-.18" transform="translate(-1.41 -2.66)"/><path class="cls-5" d="M146.25,281.31c.93,0,7.15-2.07,7.46-1.67.76.94.19,7.05.19,6.25" transform="translate(-1.41 -2.66)"/><path class="cls-5" d="M127.07,205.65c-.18-1.94,3.08-3.92,4.4-5,5-4.05,14.57-1.18,17.68,3.79" transform="translate(-1.41 -2.66)"/><path class="cls-5" d="M127.55,214.86c3.6,8.12,19.35,5.45,21.24-2.72" transform="translate(-1.41 -2.66)"/><path class="cls-5" d="M125.77,199.86c0,.45-.91,6.11-.28,6.53.11.07.25,0,.38,0,1.77,0,4.66-1.31,6.9-1.31.3,0,.34,0,.56-.18" transform="translate(-1.41 -2.66)"/><path class="cls-5" d="M142,213.39c.92,0,7.15-2.07,7.46-1.68.75.94.19,7,.19,6.25" transform="translate(-1.41 -2.66)"/><path class="cls-5" d="M128.64,135.49c-.19-1.94,3.08-3.92,4.4-5,5-4.05,14.56-1.18,17.67,3.79" transform="translate(-1.41 -2.66)"/><path class="cls-5" d="M129.12,144.7c3.59,8.12,19.35,5.45,21.23-2.72" transform="translate(-1.41 -2.66)"/><path class="cls-5" d="M127.34,129.7c0,.44-.91,6.11-.28,6.53.1.07.25,0,.37,0,1.78,0,4.67-1.31,6.91-1.31.29,0,.33,0,.55-.18" transform="translate(-1.41 -2.66)"/><path class="cls-5" d="M143.57,143.23c.93,0,7.15-2.07,7.46-1.68.76.94.19,7,.19,6.25" transform="translate(-1.41 -2.66)"/><path class="cls-5" d="M113.75,258.72c0,22.58-.68,44.95-.68,67.62,0,8.74-1.92,22.34,2.05,30.28" transform="translate(-1.41 -2.66)"/><path class="cls-5" d="M110.73,190.86c-.83,1.65.15,5.35.15,7.28v18.42c0,11.09-.63,22.27-.15,33.3.42,9.62.62,29,.62,29s-2.21,13.39.46,16.72c1.32,1.65,8.55.49,8.55.49" transform="translate(-1.41 -2.66)"/><path class="cls-5" d="M114.18,121.58c-.71,2.87,0,6.2-.12,9.16-.42,8.9-.55,17.74-.12,26.64.72,15.11.49,46.34.49,46.34s-.29,11.29.25,16.72c.27,2.71-.12,6.57,1.12,6.07" transform="translate(-1.41 -2.66)"/><path class="cls-5" d="M130.5,58.74c.17-.34-2,.14-2.7.14a30.13,30.13,0,0,0-5.93.4c-5.66,1.13-11,8-12,13.36-.5,2.77-.27,6.36-.27,9.17l.67,19.29.14,37.5s-1.58,12.49.81,17.27c.57,1.13,7.55.54,7.55.54" transform="translate(-1.41 -2.66)"/><path class="cls-5" d="M188.63,33.86c0,5.32,1.22,18.08-2.14,22.11-3.7,4.44-18.29,2-18.29,2l-23.94.91-14.33-.61" transform="translate(-1.41 -2.66)"/><path class="cls-5" d="M140.37,84.21c-.59-4.39,1.64-11.54,7.3-15.31,10.13-6.76,19.17-5,30.75-5.11,5.68-.06,9.47-1.12,11.49-2.64,5.57-4.17,3.87-14.42,3.87-20.48,0-2.05.3-6.64.3-6.64" transform="translate(-1.41 -2.66)"/><path class="cls-5" d="M139.92,85.32s5.7-.29,7-.37c7.21-.45,14.33.43,21.58,0,16-.94,32.48-.15,48.52.37,12.59.4,25.22-.37,37.82-.37,10.83,0,21.64,0,32.46-.37,3.94-.12,7.72.32,11.63.55.77.05,5.82.7,4.06-.18" transform="translate(-1.41 -2.66)"/><path class="cls-5" d="M251.9,33.66c0,9.68-4.24,21.22,5.79,27.49,6.6,4.12,9.18,3.06,16.46,2.45,1.62-.13,12.32,1.19,13.9,1.85a30.56,30.56,0,0,1,12.58,8c5.87,6,2.84,11,2.84,11" transform="translate(-1.41 -2.66)"/><path class="cls-5" d="M187.7,33.49c17.4,0,49.07.63,49.07.63L258,33.23" transform="translate(-1.41 -2.66)"/><path class="cls-5" d="M188.21,33.11c-.06,0-.44-3.59.38-3.8,1.19-.29,4.89-.13,5.18-1.89.1-.57-.37-1.53-.12-2s5-.43,5.94-1.26c6.79-5.82,7.28-16.72,16.95-19.48,7-2,16.22-.27,19.48,7.34,1.38,3.23.85,6.33,3,9.23s9.1-.25,12,2.66c1.88,1.88.75,6.05.75,8.34" transform="translate(-1.41 -2.66)"/><polyline class="cls-5" points="190.17 26.62 208 25.93 253.72 25.47 277.27 24.79 356.82 24.1 388.6 24.33"/></g></g></g></g></g></svg>