<svg xmlns="http://www.w3.org/2000/svg" xmlns:xlink="http://www.w3.org/1999/xlink" viewBox="0 0 387.76 280.94"><defs><style>.cls-1,.cls-5{fill:none;}.cls-2{isolation:isolate;}.cls-3{clip-path:url(#clip-path);}.cls-4{clip-path:url(#clip-path-2);}.cls-5{stroke:#000;stroke-linecap:round;stroke-linejoin:round;stroke-width:2.45px;}</style><clipPath id="clip-path" transform="translate(-1.93 -2.36)"><rect class="cls-1" width="391" height="285"/></clipPath><clipPath id="clip-path-2" transform="translate(-1.93 -2.36)"><rect class="cls-1" x="-220" y="-204.35" width="841.99" height="595.35"/></clipPath></defs><g id="Layer_2" data-name="Layer 2"><g id="Layer_1-2" data-name="Layer 1"><g class="cls-2"><g class="cls-3"><g class="cls-4"><path class="cls-5" d="M62.72,269.32s3.81-21.24,4.35-21.65c.27-.2,2.28,6,2.28,6s3.36,3.48,4.62,4.46c.61.47,8.24,3.68,11.76,3.7,9.94,0,9.85-.39,12.91-1.43,4-1.37,4.86-4.1,9.76-2.57,5.51,1.71.89,7.49,4.7,10.55,5.54,4.47,12.79,0,18-1.28,3.92-1,5.66.14,5.66.14" transform="translate(-1.93 -2.36)"/><path class="cls-5" d="M70.34,242.05c-1.7,3.42,2.74,8.55,12.22,11.26s19.26,1,25,.06c5.56-.9,7,3.57,11.69,6.11,2.63,1.43,8.65,2.14,11.34,3.46.31.16,1.05.67,2.05,1.37s2.23,1.59,3.55,2.5c5,3.42,11.15,7.24,10,3.1-.44-1.59-2.61-4.12-5.06-6.62-2.9-2.94-6.2-5.83-7.51-7.05-.61-.56-5.35-7-3.82-7.81,1.12-.62,1.68-2.15,3.95-.86,5.05,2.89,11.24,10.14,13.11,7.82,3.37-4.19-7.95-12.71-10.45-14.65-12.81-10-17.53-11.83-30.72-7.36-3.59,1.22-7.66,3.82-11.48,2.49-1.54-.53-4.89-1.48-2-2.47" transform="translate(-1.93 -2.36)"/><path class="cls-5" d="M97.64,100.15c-4.23,3.21-5.59,7.59-10.58,9.82-10.89,4.89-20.73,5.65-28.55,16.24-12.6,17.06,1.25,32.73,4.89,48.86,1.83,8.09,3.59,18,3.2,26.42-.48,10.24-1.43,20.27-2.82,30.38-.33,2.4-.56,7.84,2.15,9.18,6.9,3.4,13.72-4.87,19.7-6.52,3.79-1,10.17-.08,12.78-1,2.76-.94,2.42-10.85,2.47-13,.4-14.92-14.7-20.76-19-33.38-2.69-7.94.16-16,.59-24.18.24-4.38,0-10-1.46-14.22-.13-.4-2.58-3.75-2.55-3.77.52-.4,1.87,2.39,2,2.67a144.41,144.41,0,0,1,7.89,17.15c2.06,5.59,5.41,11.45,6.51,17.31.61,3.26.06,6.73.67,10,.42,2.23,2.16,4,2.57,6.17,1.41,7.56-.74,18.05,4.14,24.49,3.31,4.36,13.75,9.1,19.53,7.14,1.49-.51,5.83.19,5.83.19s-5.82-21.14-2.45-22.29" transform="translate(-1.93 -2.36)"/><path class="cls-5" d="M65.78,239.66c-6.18-8.16-.09-13.33,7.65-13.3,3.41,0,7.1,1.24,10.49.76s7.07-3.17,10.52-2,2.74,1.71,5.65,3.71" transform="translate(-1.93 -2.36)"/><path class="cls-5" d="M137.32,8.43s-14.76,5.55-17.07,7c-9.31,5.81-13.85,10.87-16.65,21.63-3.22,12.4-6.52,25-5.56,37.86,1,13.7,5.65,26.6,5.72,40.44,0,4.45-2.93,8.83-3.87,13.14-2.72,12.56-4.77,26.89-2.38,39.66,1.23,6.59,2.77,14.42,6.47,20,3.12,4.75,8.34,8.47,11.13,13.5,1.06,1.91,1.58,4.46,2.9,6.21,1,1.27,8.64,9.89,10.32,4.5,2.9-9.31-4.26-30.92-6.33-40.87-.2-.92-4.37-12.07-5.24-11.65-2.18,1,0,9.25.25,10.62,1.65,8.83,3,18.21,5.55,26.75.3,1,2.25,11.24-.48,10.87-4.62-.64-7.44-4.25-9.85-7.85-7.35-11,1.07-16.6,3.74-27.17,1.71-6.79-.81-16.72-2.61-23.26-3.41-12.44-7.71-24.64-10.58-37.35-.28-1.26-2-12.34.37-12.6,5.52-.6,7.74,15.77,8,18.54,1.79,16.48-.62,32.32-3.92,48.34-.8,3.9-.71,26.24.83,21.31" transform="translate(-1.93 -2.36)"/><path class="cls-5" d="M118.82,159.81c6.5-13.16,7.38-32.8,4.75-46.86-2.06-11-9-27.16-3.64-38.1,8.12-16.44,30.31-7.16,37.49-19.1,5.47-9.08,1.81-25.71-1.7-34.76-.93-2.39-4.86-11.48-8.62-9.39s-.74,9.88.35,12.35c3.73,8.49,8.07,20,14.78,26.65,5.48,5.42,15.56-3.52,18.08,5.22,4.21,14.57.15,32.17-7.24,45.15-2.85,5-7.94,8.27-11.33,12.79-6.05,8.06-9.77,20.17-9,30.22,1.26,15.3,3.83,34.38,13.36,47,4.6,6.07,13.59,8.47,16.65,15.63.19.44.9,2,.34,2.44-5.31,4-15.74-7.06-18.44-10.06-12.71-14.16-14.34-29.88-11.83-48.12" transform="translate(-1.93 -2.36)"/><path class="cls-5" d="M102,98.69c-1.55-3.2-.23-6.27,0-9.57,1-19.19,7.39-33.7,18.72-49,2.64-3.58,11.69-15.19,17.37-12,7,4-10,18.08-11.77,20.94-7.13,11.13-8.75,23.74-4.61,35.93" transform="translate(-1.93 -2.36)"/><path class="cls-5" d="M138,8.19a38.19,38.19,0,0,1,2.84-2.69c2.31-1.45,1.72-1.43,5.49-1.86s9.54,2.16,13.16,4.88C173.42,19,181,37.91,182.51,54.76c2,21.86,6.46,44.62,5.89,66.44-.52,19.92-3.72,38.45-1.91,58.52.29,3.2.86,6.54,1.06,9.72.38,6.4-7.34,21.64-3.65,26.5" transform="translate(-1.93 -2.36)"/><path class="cls-5" d="M173.35,101.49c-.33,2.43,1.2,7,1.54,8.62,1.55,7.48,2.79,15.17,3.7,22.72,2.53,20.88-1.28,39.08-4.06,59.26a67.87,67.87,0,0,0,2.74,29.77c1.12,3.3,1.9,6.59,2.73,9.95.36,1.42,1.39,5.7,1.12,4.25-1.74-9.35,4-17.95,7.06-26.37,3.16-8.72,4.46-19.85,6.36-28.86,5.74-27.14-2.67-54.47-7.64-81" transform="translate(-1.93 -2.36)"/><path class="cls-5" d="M122.09,154.26c3.5,7,26.71,6.83,30.75-1.25" transform="translate(-1.93 -2.36)"/><path class="cls-5" d="M145.54,272.43c3.32,5,26.47,1,31.74.73,28.67-1.5,57.45,1.23,86.18,1.23" transform="translate(-1.93 -2.36)"/><path class="cls-5" d="M145.05,272.68a13.65,13.65,0,0,0-1.71,8.54c.23,1.29,5.31.73,6.11.73,5.64,0,11.45-.07,17.09-.48,24.66-1.83,51.48-.88,74.22-1s16.72.55,16.72.55,5.92-.92,7.45-.31c.37.15,1.32,1.12,1.71.74s-2.2-8.3-2.2-7.33" transform="translate(-1.93 -2.36)"/><path class="cls-5" d="M188.92,90.7a7.72,7.72,0,0,1,2.78-1.8c2.23-.44,6.18-.09,8,1.47a36.07,36.07,0,0,1,11.61,19.45,82.6,82.6,0,0,1,2.12,24c-.22,2.92-.92,5.69-.65,8.67.51,5.68,3.64,10.72,4.9,16.18,1.21,5.23.77,10.47,1.63,15.69.51,3,3.12,5.24,4.42,7.84,2.65,5.3,5.38,12.64,6.21,18.47,1.31,9.21-10,10.64-16.35,12.75-2.35.79-6.53,4.58-9.15,3.27-6.57-3.28-7.06-16.08.49-18.47,2.58-.81,5.52-1.22,8.17-2,4.45-1.24,8.28-2,12.59.16,1.92,1,3.8,3.18,2.78,5.56-1.17,2.73-12.68,3.21-15.69,4.58-3.4,1.54-1.13,7.39-3.44,9.48-1.29,1.17-3.3,1.71-4.08,3.27-4.26,8.51,11.36,16.59,15.53,20.76,1.32,1.32,1.81,1.34,3.24,3.83" transform="translate(-1.93 -2.36)"/><path class="cls-5" d="M239.27,229c1,.35,5.4,3.41,4.41,5.4" transform="translate(-1.93 -2.36)"/><path class="cls-5" d="M223.57,250.07c-2.34.78-3.47,4.79-5.06,6.7-.26.31-3.19,4.17-2.94,4.41s.33-.1.49-.16c2.48-1,10.77-9.48,12.09-9.48" transform="translate(-1.93 -2.36)"/><path class="cls-5" d="M186,215.58c-.68,2,.34,7.45.65,10,.37,2.91-1.16,9.51.66,11.93,1.5,2,17-.75,21.08,1,2.51,1.07-.51,3.9.66,5.07.24.25,13.33,1.33,13.89,1.14" transform="translate(-1.93 -2.36)"/><path class="cls-5" d="M141.19,242.71c7.93,2.64,17.21,1.61,25.5,1.15,14.3-.8,28.83,0,43.15,0" transform="translate(-1.93 -2.36)"/><path class="cls-5" d="M120.45,81.84c2.48,3.72,3.21,8.56,5.76,12.39,8.47,12.71,20.19,19.26,35.21,19.26" transform="translate(-1.93 -2.36)"/><line class="cls-5" x1="263.44" y1="269.26" x2="386.54" y2="269.01"/><path d="M109.47,254.73l0,.24,0,.24,0,.28,0,.32v1.52l0,.86v.9l0,1.78.22,1.7.53,1.32.38.52.28.32.3.3.31.28.33.26.37.26.68.4.75.34.77.28.8.23.81.17.83.13.83.1.85.07.86,0,1.67,0h3.23l1.47.06,1.3.13,1.2.26a1.3,1.3,0,0,0,.54-2.54l-1.34-.29-1.53-.15-1.59-.06h-3.25l-1.63,0-.77,0-.76-.06-.74-.08-.71-.1-.67-.14-.64-.17-.59-.21-.53-.24-.52-.3-.2-.14-.21-.16-.21-.18-.19-.19-.18-.2-.06,0-.36-.81-.16-1.28,0-1.62v-3.34l0-.38,0-.37,0-.35-.06-.31a1.23,1.23,0,1,0-2.42.41Z" transform="translate(-1.93 -2.36)"/><path d="M69.34,226.47l-.54.11-.61.21-.56.27-.52.32-.49.38-.45.42-.4.46-.38.49-.33.52-.29.54-.24.57-.2.58-.16.6-.11.61,0,.61v.62l.06.62.14.61.21.6.28.58.37.54.45.5.53.45.57.37.45.22.43.18.42.12.42.09.41,0h.41l.38-.05.38-.08.34-.11.32-.13.31-.15.3-.18.49-.31.47-.34.44-.31.42-.27.41-.23.43-.17.42-.12.49-.09.54-.06.58-.05.61,0h.61l1.31,0,1.28,0,1.2,0a1.3,1.3,0,0,0,0-2.6l-1.17,0-1.27,0-1.35,0h-.7l-.7,0-.69,0-.69.09-.68.13-.67.19-.69.28-.63.35-.55.36-.48.34-.43.31-.4.27-.15.09-.16.08-.14.06-.14.05-.13,0h-.41l-.17,0-.2-.05-.22-.09-.23-.11-.35-.22-.27-.21-.21-.25-.19-.26-.14-.28-.11-.31-.08-.34,0-.36v-.38l0-.39.06-.4.11-.4.13-.4.17-.39.2-.38.23-.36.24-.33.27-.3.29-.27.29-.22.3-.19.31-.15.3-.1.39-.08a1.23,1.23,0,0,0-.48-2.42Z" transform="translate(-1.93 -2.36)"/><path d="M83.75,159.13l.19-.23.2-.27.19-.29.19-.31.17-.32.18-.36.31-.69.3-.78.26-.81.24-.85.2-.89.17-.91.14-.92.09-.93,0-.93v-.92l0-.92-.11-.88-.17-.86-.24-.83-.31-.74-.22-.4-.22-.36-.25-.34-.28-.32-.31-.3-.33-.26-.37-.24-.39-.2-.42-.16-.43-.13-.46-.08-.47,0h-.46l-.46.06-.43.11-.41.16-.39.21-.35.25-.32.28-.28.31-.26.33-.23.35-.2.37-.18.39-.16.4-.15.41-.12.42-.11.44-.1.44-.09.47-.13.92-.09,1-.06,1,0,1v1l0,1,0,1,.07.93.07.88.09.83.09.78.09.69.08.62.09.52.08.43.29,1.38.34,1.36.39,1.34.43,1.31.48,1.28.51,1.27.53,1.24.57,1.22.6,1.21.61,1.19.64,1.18.65,1.17.66,1.15.66,1.16.68,1.14.67,1.14.67,1.14.67,1.14.66,1.14.65,1.14.63,1.15.63,1.14.58,1.17.58,1.17.7,1.53.62,1.55.56,1.57.51,1.6.47,1.61L94.4,198l.39,1.64.37,1.66.36,1.67.34,1.67.34,1.69.35,1.68a1.3,1.3,0,0,0,1.53,1,1.31,1.31,0,0,0,1-1.54l-.35-1.68-.34-1.69-.35-1.68-.36-1.7L97.32,199l-.41-1.69-.44-1.68L96,194l-.54-1.67-.59-1.66L94.19,189l-.74-1.62-.61-1.22-.6-1.2-.65-1.19-.65-1.18-.67-1.16-.67-1.15-.67-1.15L88.25,178l-.67-1.14-.68-1.13-.65-1.13-.66-1.14L85,172.28l-.61-1.14-.6-1.15-.58-1.16-.54-1.16-.52-1.19-.48-1.19-.45-1.21-.41-1.23-.37-1.24-.32-1.27L79.79,159l-.07-.35-.07-.48-.09-.58-.09-.66-.08-.74-.09-.79-.07-.85-.06-.88,0-.9,0-.93V151l0-.91,0-.9.08-.85.12-.83.06-.37.08-.36.09-.35.1-.32.1-.31.11-.27.12-.26.12-.22.13-.19.12-.17.13-.13.12-.11.12-.09.12-.07.13-.05.14,0,.16,0h.19l.25,0,.22,0,.21.05.19.08.16.08.17.11.15.12.14.14.14.16.14.18.12.2.11.19.23.55.18.59.13.66.08.71,0,.76v.79l0,.81-.08.82-.12.82-.15.81-.18.78-.21.75-.23.71-.25.65-.26.6-.13.24-.13.24-.13.22-.13.19-.12.17-.14.16a1.23,1.23,0,1,0,1.89,1.59Z" transform="translate(-1.93 -2.36)"/><path d="M97.94,101.13l.35-.4.33-.35.29-.32.28-.28.26-.23.25-.21.25-.17.25-.15.29-.14.32-.13.36-.12.48-.12A1.3,1.3,0,0,0,101,96l-.55.15-.54.19-.5.21-.47.24-.42.28-.39.3-.36.32-.33.33-.33.35-.32.36-.33.37-.35.4a1.23,1.23,0,1,0,1.84,1.64Z" transform="translate(-1.93 -2.36)"/><path d="M53.28,149.28l-.06,1.25,0,1.24,0,1.23v2.42l0,1.2.06,1.17.06,1.18.1,1.17.1,1.16.14,1.16.15,1.15.18,1.15.2,1.15.23,1.15.25,1.14.28,1.15.31,1.16.33,1.15.37,1.16.39,1.16.42,1.18.45,1.18.48,1.18.43,1,.44,1,.47.95.48.93.49.92.49.91.49.9.49.89.48.89.47.88.45.89.44.88.4.89.39.86.69,1.81.25.89.27.92.19.91.15.94.1,1,0,1v1l-.08,1.06a1.3,1.3,0,0,0,2.6.19l.08-1.14v-1.15l-.06-1.12-.11-1.1-.18-1.08-.23-1.06-.29-1-.29-1-.74-1.93-.43-1-.43-.94-.47-.93-.46-.91-.49-.91-.49-.9-.49-.9-.5-.89-.48-.89-.48-.9-.47-.9-.44-.9-.43-.9-.4-.92-.47-1.14-.44-1.13-.41-1.12L58.35,172,58,170.93l-.32-1.1-.3-1.1-.27-1.1-.25-1.09-.22-1.09-.2-1.1-.17-1.09-.15-1.12L56,161l-.1-1.12-.1-1.12-.06-1.13,0-1.15,0-1.14,0-1.17V153l0-1.19,0-1.22.05-1.23a1.23,1.23,0,1,0-2.46-.11Z" transform="translate(-1.93 -2.36)"/><path d="M120.57,72.28V71l0-1.33,0-1.33L120.46,67l-.06-1.34-.06-1.34L120.28,63l-.06-1.34,0-1.34,0-1.33V56.29l0-1.31.08-1.3.11-1.28.15-1.28.2-1.25.26-1.24.3-1.22.36-1.19.42-1.18.49-1.15.56-1.13.64-1.12.5-.76.52-.69.53-.64.55-.59.57-.54.59-.5.6-.48.61-.45.63-.43.64-.43.64-.42.68-.43,1.3-.88,1.37-.93,1.26-1.15,1.31-1.22,1.1-1.65,1-1.54A1.3,1.3,0,0,0,136,26.48L135,28l-.92,1.41-1.08,1-1.12,1-1.21.82-1.28.87-.64.41-.67.44-.67.45-.68.47-.68.5-.68.55-.67.58-.66.64-.64.69-.63.75-.61.82-.58.89-.71,1.25-.62,1.27-.54,1.29-.46,1.31-.4,1.32-.32,1.33-.27,1.35L118,50.78l-.15,1.36-.12,1.36-.07,1.37,0,1.38V59l0,1.37,0,1.36.06,1.35.06,1.35.06,1.34.07,1.33,0,1.32,0,1.3,0,1.29v1.28a1.24,1.24,0,0,0,2.47,0Z" transform="translate(-1.93 -2.36)"/><line class="cls-5" x1="1.23" y1="267.68" x2="61" y2="268.01"/><path class="cls-5" d="M223.7,244.19c-2.68.42-3.89,5.08-1,6" transform="translate(-1.93 -2.36)"/><path class="cls-5" d="M228.63,250.62c-.17,1,4.36.06,5.16-.13,4.36-1,8.69-2.6,13.11-3.28,1.06-.17,3.72-.8,4.36.58,1.48,3.2-6.07,2.69-7.25,2.87-7.27,1.13-16.63.23-19.25,8.42-.09.27-1.91-.42-1.81.19.13.85,1.12-2.76,1.65-2.84.3-.05-.37.5-.56.75a2,2,0,0,0-.44,2c.23.45,3.7,4.1,3.73,4.11,1.34.43,2.78,1.22,4.12,1.28,4,.17,9.64.06,13.41-1.41,1.06-.41,4-.67,4.46-1.94" transform="translate(-1.93 -2.36)"/><path class="cls-5" d="M228.63,208.5c-.15,1.55,3.35,5.12,4.33,6.43,2.07,2.75,4.6,9,4.79,12.55.33,6.22-9.35,3.92-9.14,9,.15,3.31,1.77,4.44,4.68,5.37.58.19,3.14.74,3.41-.11" transform="translate(-1.93 -2.36)"/><path class="cls-5" d="M242.23,241.83c-.12.37,1.08-.63,1.38-.8.91-.5,1.88-.9,2.78-1.43,2.83-1.68,6.54-2.94,9,0,5.54,6.83-2.55,17.65-7.22,22.43" transform="translate(-1.93 -2.36)"/><path class="cls-5" d="M251.49,233.12c2.25,1.64,7.35,4.35,8.68,6.93,5,9.69-4.34,20.17-12.94,23.32" transform="translate(-1.93 -2.36)"/><path class="cls-5" d="M236.6,242.45c-.23-.22,1.86-2.41,2.27-2.86,2.5-2.73,4.6-5.76,7-8.53a91.65,91.65,0,0,1,13.51-12.62c2.17-1.67,3.93-4.06,6.24-1.8.4.39-1.4,2.22-1.7,2.52-2.42,2.42-5.25,4.73-7.38,7.41-4,5.05-9.36,8.82-13.4,13.86C241.59,242.41,238.94,244.74,236.6,242.45Z" transform="translate(-1.93 -2.36)"/><path class="cls-5" d="M209.75,241.48c2.12.78,6.67-.61,9.05-.88" transform="translate(-1.93 -2.36)"/><path class="cls-5" d="M254.71,260c.83,1.8,3,3,4.14,4.65,2.16,2.9,4.46,6,6.38,9" transform="translate(-1.93 -2.36)"/><path class="cls-5" d="M136.1,250.54c-.06-.51-.89,1.58-.88,2.08,0,1.55.75,2.74.92,4.2" transform="translate(-1.93 -2.36)"/><path class="cls-5" d="M198.46,207.62c-1.2-1.35-.31-4.6-.57-6.3-.76-5-3-9.15-4.27-14" transform="translate(-1.93 -2.36)"/><path class="cls-5" d="M66.93,242.16c.22,2.13-1,5.62.6,7.52" transform="translate(-1.93 -2.36)"/></g></g></g></g></g></svg>