<svg xmlns="http://www.w3.org/2000/svg" viewBox="0 0 839.81 839.81"><defs><style>.cls-1{fill:#fff;}.cls-2{fill:#00394d;}</style></defs><g id="Layer_2" data-name="Layer 2"><g id="Réteg_1" data-name="Réteg 1"><rect class="cls-1" width="839.81" height="839.81"/><path class="cls-2" d="M289.15,763.11c4.46-31.23,9.53-56.06,10.87-81.09.59-11-2.89-26.76-10.53-33-53.28-43.79-93.5-95.85-115.26-162-9.13-27.78-4.95-49.49,23.34-59.28,26.66-9.23,43.36,4.47,52.54,30.61,17.51,49.86,43.24,94.27,89.92,126.07-21.86-67.41-12.09-109,30.83-136.34,34.71-22.14,81.29-17.68,112.94,10.81,33.86,30.48,38.72,73.66,13.88,123.27,38.37-17.51,62.61-51.61,94.41-124.32,5.87-13.42,22.52-28.21,36.07-30.32,11.6-1.81,28.41,11.41,38,22.3,5.52,6.25,4,21.87,1.07,31.94C647.53,549.56,608.3,605,552.05,647c-16.75,12.51-17.72,21-12,39.54,6.93,22.64,7,47.38,10.72,76.6H421.66C380.07,763.11,338.5,763.11,289.15,763.11Z"/><path class="cls-2" d="M420.06,403.44c-69.52,0-139.06-.76-208.57.46-24.17.42-32.78-7.94-32.54-32q1.29-130.33-.08-260.69c-.26-25.44,9.28-34.54,34.84-34.38q205.08,1.26,410.18-.13c29.3-.25,37.64,10.33,37.15,38.57q-2.22,126.83.1,253.72c.53,28-9.07,35.64-36,35C556.82,402.31,488.42,403.41,420.06,403.44Zm204.3-35.28V112.85H215V368.16Z"/><path class="cls-2" d="M332.89,297.21a4.52,4.52,0,0,1-1.62,3.33,5.07,5.07,0,0,1-3.52,1.52q-4.56,0-13.69.1t-13.69.09q-3.53,0-3.42-3l.09-1q1.33-36.32,1.33-44V225.89c0-1.77-.41-2.66-1.24-2.66a22.5,22.5,0,0,0-5.75,1.14,22.61,22.61,0,0,1-5.85,1.14q-3,0-2.95-3.52c0-2.15,0-5.39-.09-9.7s-.1-7.57-.1-9.79c0-1.27.79-2.22,2.38-2.85q14-5.81,22-15.59c1.08-1.33,2-2,2.76-2a8.6,8.6,0,0,1,1.14.19q3.62.76,10.74,2.38,3.8.48,11.13,1.71a1.89,1.89,0,0,1,1.33,2.09,17,17,0,0,1-.19,2q-1,8.37-1,41,0,10.93.14,32.9T332.89,297.21Z"/><path class="cls-2" d="M437.78,262.31q0,42.51-52.39,42.5A170,170,0,0,1,365,303.19q-16.55-2.08-17.4-5-.37-1.23-.38-8.46a80,80,0,0,1,.95-10.65q1.23-8.57,2.85-8.56a4.41,4.41,0,0,1,1.62.57,57.32,57.32,0,0,0,26,5.71q21,0,21-13.69,0-7.51-7.7-11.31a31.35,31.35,0,0,0-14.36-3,95,95,0,0,0-10.51.86,95,95,0,0,1-10.51.86q-3.33,0-3.33-3,0-9.14.81-27.86t.81-27.86a6.57,6.57,0,0,1,1.38-3.76,5.29,5.29,0,0,1,3.09-2.33q2.09-.37,26.43-.38,27.67,0,37.18.19c1.71.06,2.57.79,2.57,2.19a130.76,130.76,0,0,1-1.14,14.83Q422.95,214.5,421,214.5l-1.05-.09q-21.5-1.91-26.81-1.9-10.45,0-11.22,1.14-1.62,2.85-1.62,10.74a3.21,3.21,0,0,0,.48,1.9c1.58,0,4.09-.16,7.51-.48,3.23-.32,5.74-.48,7.51-.48q17.69,0,29.38,9.41Q437.78,244.8,437.78,262.31Z"/><path class="cls-2" d="M555.21,256.32q0,20.35-12,33.76Q530.87,304,510.81,304a39.88,39.88,0,0,1-15.69-3.61q-8.37-3.62-7.61-3.61c-.83,0-1.24.95-1.24,2.85q0,4.85.48,14.6t.48,14.6q0,3-3.14,3l-19.4.1a44.79,44.79,0,0,1-8.46-.48,3.3,3.3,0,0,1-2.85-3.52l.19-73.22q0-22.15-3.33-37.37a8.16,8.16,0,0,1-.19-1.62,1.86,1.86,0,0,1,1.14-1.9q3.71-1.42,14.17-3a106.22,106.22,0,0,1,14.74-1.62q3.7,0,4.23,4.9t1.28,4.9q-.94,0,8.13-5.18t16.5-5.18q20.63,0,33,13.6Q555.2,235.3,555.21,256.32Zm-35.28-.19a20.39,20.39,0,0,0-4.66-13.31,15.67,15.67,0,0,0-12.46-6,14.54,14.54,0,0,0-12.17,6,21.83,21.83,0,0,0-4,13.31q0,8.08,4.18,13.41,4.47,5.81,12.36,5.8Q519.93,275.34,519.93,256.13Z"/></g></g></svg>