<svg xmlns="http://www.w3.org/2000/svg" xmlns:xlink="http://www.w3.org/1999/xlink" viewBox="0 0 464.08 153.97"><defs><style>.cls-1,.cls-5,.cls-6{fill:none;}.cls-2{isolation:isolate;}.cls-3{clip-path:url(#clip-path);}.cls-4{clip-path:url(#clip-path-2);}.cls-5,.cls-6{stroke:#000;stroke-linejoin:round;stroke-width:2.45px;}.cls-5{stroke-linecap:round;}</style><clipPath id="clip-path" transform="translate(-3.19 -1.25)"><rect class="cls-1" width="469" height="162"/></clipPath><clipPath id="clip-path-2" transform="translate(-3.19 -1.25)"><rect class="cls-1" x="-122" y="-198.35" width="841.99" height="595.35"/></clipPath></defs><g id="Layer_2" data-name="Layer 2"><g id="Layer_1-2" data-name="Layer 1"><g class="cls-2"><g class="cls-3"><g class="cls-4"><path class="cls-5" d="M124.67,136.11c2.42-6.06,6.81-11.17,10.35-16.63,7.53-11.64,15.29-22.94,22.91-34.38,6.36-9.54,11.82-20.69,20-28.83l0-.15L223.57,91l.73.43L269,26.16l2.39-.07,40.54,56,.25-.44,53-48.35-2.07,1.37c10.08-6.37-6.82-13.82-9.41-17.91l-.13-.05L410,2.47l-1.35.85-9.35,48.22.45.24L386.1,41.72l0-.18L316.33,104l-.31-.29L270,50.27l-1,1.37-41.8,52.74-.27-.19-49.82-32,.52.71-42.25,62.48,1.25-.39,52-23.44-.22-.91c1.37,6.88,14.34,9.49,15.77,2.71.71-3.36,0-7-3.15-8.75-1.3-.73-9.67-.79-9.1,2.09l-.59-.29,42.92,35.5-.13.6c0-4.78,9.35-2.31,10.86.35,3,5.29-4.8,15.89-8.83,8.83-1.42-2.48,7.65-10.2,9.62-11.52A178.5,178.5,0,0,0,272.22,119c1.77-1.77,9.19,2.06,10.1-5.21,1.27-10.19-15.51-9.32-11.21-1.57,4.45,8,18.72,10.79,25.72,15.46,1.35.89,3.42,0,4.89,1,2.9,1.93,2.77,6.29.32,8.52-3.11,2.83-11.32,2.37-10.89-3.32.52-6.77,8.79-8.07,13.26-5.84l-.17-.16c-.21,0-.62.07,0-.28,1.75-1,3.52-1.84,5.28-2.78l1.53-.83a91.09,91.09,0,0,1,11.38-5.41c10.13-3.86,19.24-10,28.74-14.72,2.28-1.14,5.85,3.71,8.89,2.36,4.83-2.15,5.27-12.5.28-13.61a2.87,2.87,0,0,0-2.64,1c-3,2.6,1.77,7,3.33,9.31a184.33,184.33,0,0,0,16.66,21c2.9,3.23,5.06,6.7,8.89,8.89.31.18,1.11,1.3,1.11.55l-1.81.56c2.75,0,4.6,2.23,6.39,3.89,7.22,6.66-12.15,7.08-8-1.11,1.24-2.48,8.33-6.76,8.33-8.33l-.93,1.87s3.7-4.93,4.94-6.52c5-6.44,9.9-13,15-19.55,1.14-1.45,5.77-9.26,2.76-10.87-4.71-2.52-9.36,4.13-10.6,7.61-2.56,7.21-2.23,14,4.75,18.52,1.42.93,3.55.42,5.09.34,7.4-.41,12.39-7.26,14.47-13.65.48-1.46,1.57-7.91-.8-8.39-2.7-.55-4.84,4.86-5.65,6.52-3.29,6.78-7.5,17.12-3.89,24.72,1.9,4,7.56,2.73,10.87,2.06,5.32-1.07,9-3.2,13.81-5.56,3.73-1.84,7.56-4.81,11.56-5.88,2.34-.63,7.44-1.49,10.5.17A9.57,9.57,0,0,1,466,122" transform="translate(-3.19 -1.25)"/><line class="cls-6" x1="0.03" y1="137.87" x2="121.3" y2="134.55"/></g></g></g></g></g></svg>