<svg xmlns="http://www.w3.org/2000/svg" xmlns:xlink="http://www.w3.org/1999/xlink" viewBox="0 0 562.31 381.96"><defs><style>.cls-1,.cls-5,.cls-6{fill:none;}.cls-2{isolation:isolate;}.cls-3{clip-path:url(#clip-path);}.cls-4{clip-path:url(#clip-path-2);}.cls-5,.cls-6{stroke:#000;stroke-linejoin:round;stroke-width:2.45px;}.cls-5{stroke-linecap:round;}</style><clipPath id="clip-path" transform="translate(-1.31 -6.38)"><rect class="cls-1" width="565" height="390"/></clipPath><clipPath id="clip-path-2" transform="translate(-1.31 -6.38)"><rect class="cls-1" x="-81" y="-116.35" width="841.99" height="595.35"/></clipPath></defs><g id="Layer_2" data-name="Layer 2"><g id="Layer_1-2" data-name="Layer 1"><g class="cls-2"><g class="cls-3"><g class="cls-4"><path class="cls-5" d="M423.23,128.71c.83,0,1.41-1.94,2-2.48,2.79-2.6.52-4.41.52-7.2,0-1.5.95-2.7.43-4.25-1.13-3.38-6.05-8.15-8.06-11.45a34.27,34.27,0,0,1-4-25.67c5-22.94,32.71-35.79,54.29-28.88,4.7,1.5,11.32,4.9,14.84,8.41,12,12,13.58,36.43,2.34,49.35-7.22,8.3-22.68,18.46-34.09,16.74-5.53-.83-11.62-1.48-16.74-3.81-1.45-.66-4.06-4.24-5.9-2.86-2.8,2.09,2.34,5.64,3.73,6.41,3.66,2,17.07,5.57,20.56,2.09,1.85-1.86-1.69-10.25-2.08-12.75-1-6.07-1.63-12.22.86-18,.78-1.82,2.12-3.37,2.95-5" transform="translate(-1.31 -6.38)"/><path class="cls-5" d="M452.7,88.33c.4.78.15.9-.26.17-1.27-2.28-1.88-5.5-2.34-8.06a61.22,61.22,0,0,1-.35-21.34c.23-1.26.08-6.48,2.87-5.47,1.64.6,2.35,5.13,2.69,6.51,1.46,6,.85,13.51.52,19.69-.07,1.24-.58,12.09-2,11.62" transform="translate(-1.31 -6.38)"/><path class="cls-5" d="M451.4,88.33c-3.66,0-7.31-.53-11-.43-2.38.06-4.73.34-7.12.34-.79,0-11.26,2.46-5.89,4.25,6,2,17.28-.3,23.59-.69.53,0,2.43.06,2.43-1" transform="translate(-1.31 -6.38)"/><path class="cls-5" d="M423.39,128.58c-1.55,3.08-.31-7.48-.52-7.9-3.49-7-9.26-11.69-11.8-19.69-4.19-13.17-2.25-28.51,5.9-39.72,2.55-3.51,8.18-7.25,10-10.85" transform="translate(-1.31 -6.38)"/><path class="cls-5" d="M426.42,126.75c5.28-2.63,20.53,2.57,27.06,2.95,4.92.29,12.13,0,16.48-2.77,1.47-.92,2.24-3.26,3.91-3.82s8.82,8.45,9.37,3c.23-2.34-.79-4.18-.79-6.34" transform="translate(-1.31 -6.38)"/><path class="cls-5" d="M474.65,47.22c30.13,15.06,29.58,49.86,7.46,72" transform="translate(-1.31 -6.38)"/><path class="cls-5" d="M426.8,50.85c3.8-3.8-1-4.39,1.9-7.61,2.54-2.85,20.37-10.49,11.25-15-2.48-1.24-14.46-4.22-16-.46-.62,1.56,6.47-.39,5.35,2.54s-6.16,2.64-7.07,6.08c-.77,2.87,3.15,5.64,1.45,8.7-1.5,2.7-14.92,10-15.24,4-.57-10.89,6.43-11.32,11.88-18.59,4.46-5.94,7.07-13.14,13.06-18,12-9.83,37-3.64,43.89,10.06" transform="translate(-1.31 -6.38)"/><path class="cls-5" d="M474.83,47.42s-6-2.19-6.93-2.38c-8-1.59-15.53-2.9-23.71-1.45C443,43.79,433,47.8,433.34,45c.48-4.31,7.8-6.13,11.22-6.29,5.92-.28,11.19-.84,17,.73,3.67,1,9.64,5,13.41,3.56,7.65-2.87-10.08-8.19-8.21-13.32s11.45,2.08,14.5,1.65c5.95-.86,3.69-8.94.73-6.57-5.68,4.54,19.31,15,9,24-2.05,1.79-6.37-2.23-7.94-3.19-3.63-2.22-24.39-12.84-24.62-15.77-.8-10.46,24.44.4,15.87-7-11.41-9.89-25.21-12.51-38.76-5.29-1.83,1-8.66,4.89-8.66,7.21" transform="translate(-1.31 -6.38)"/><path class="cls-5" d="M419,30.82c-2.77,1.64-5.93-3.56-2.64-5.2C419.9,23.86,421.4,29.41,419,30.82Z" transform="translate(-1.31 -6.38)"/><path class="cls-5" d="M477,22.16c.7.35-.28,2.48-.54,3" transform="translate(-1.31 -6.38)"/><path class="cls-5" d="M156.85,226.78l235.24-.46.11-.18.34-154.45-2-.23-244.1.68.2.54.57,163.86-12.35-5.68L135.5,71l-.2,0s0-3.92.16-5.46c.42-5.5,2.6-6.16,7.24-6.3l.26-.13,250.49.26-.42,0c7.35,0,10.58,5.51,9.88,12.76L403,71l.71,158.28-.13-.07s.68,5.34-1,6.13c-2.47,1.13-4.72.74-6.42,1" transform="translate(-1.31 -6.38)"/><line class="cls-5" x1="155.65" y1="231.28" x2="155.57" y2="220.38"/><line class="cls-5" x1="322.88" y1="230.6" x2="156" y2="231.52"/><line class="cls-6" x1="145.55" y1="229.93" x2="155.31" y2="229.93"/><line class="cls-6" x1="321.3" y1="230.61" x2="395.78" y2="229.93"/><polyline class="cls-5" points="194.54 297.04 198.21 296.83 220.91 295.72 203.95 285.96 198.22 296.62 202.75 285.56 234.47 286.36"/><path class="cls-5" d="M157.3,272.18l-29.83-.13-.19-.24L144.74,241,132.1,237.9,93.49,293.31l5.73-.6L146.61,294l-11.43,8.61L93,303.69l6.19-11.07c-.07.35-.54,6.53.26,7.13,2.17,1.63,22,1.86,26.21,2.92l12.16.75" transform="translate(-1.31 -6.38)"/><polyline class="cls-5" points="352.64 270.58 241 270.32 241.08 270.51 234.48 287.12 238.5 297.58 317.32 296.21 317.04 286.67 240.41 286.67 240.77 285.98 242.47 282.37 242.63 282.23 301.3 283.47 301.55 283.34 296.32 265.98 296.05 265.97 211.89 267.06"/><polyline class="cls-5" points="501.18 380.74 455.21 337.67 435.38 315.83 422.47 296.76 422.8 297.14 445.05 296.46 445.1 295.68 445.51 284.88 445.53 284.73 407.13 232.2 396.46 237.3 417.37 266.35 417.54 267.21 407.72 267.64 407.63 268.14 423.09 297.12"/><line class="cls-5" x1="561.09" y1="378.73" x2="501.37" y2="380.64"/><line class="cls-5" x1="1.23" y1="380.21" x2="58.23" y2="380.21"/><line class="cls-6" x1="317.34" y1="297.04" x2="316.39" y2="287.2"/><line class="cls-5" x1="317.91" y1="237.58" x2="142.5" y2="236.24"/><line class="cls-5" x1="324.71" y1="230.64" x2="318.24" y2="237.58"/><line class="cls-6" x1="92.21" y1="286.59" x2="91.61" y2="297.32"/><path class="cls-5" d="M131.39,238.71c1.26-2.51,8.28.24,8.74-1.12.61-1.85-5.23-8.39-5.23-8.39" transform="translate(-1.31 -6.38)"/><polyline class="cls-5" points="400.21 229.49 402.6 229.21 406.74 232.16"/><polyline class="cls-5" points="357.41 231.04 371.41 234.18 383.06 235.57 397.38 236.87"/><path class="cls-5" d="M60,386.54c0-.12,23.92-19.34,26-21.09,15.79-13.36,28.34-30.27,41.42-45.88,12.85-15.32,20.13-34.81,32.82-49.95,2.19-2.61,9.16-14.57,14.22-12.11,5.52,2.69-12.31,21.23-13.93,24.56-.24.5-1.26,2.52-.19,2.43" transform="translate(-1.31 -6.38)"/><path class="cls-5" d="M160.3,284.43c3.16,0,5.5-6.09,7.12-8.52,5.22-7.83,9.81-17.22,16.49-23.89,2-2,8.49-7.85,11.87-5.31,2.61,1.95-1.7,6.26-2.93,8-5,7-11.25,13.65-15.51,21.1-.34.6-6.46,10.37-3.91,9.63,2.77-.79,6-7.55,7.55-9.63,6.27-8.7,10.55-17.68,18.16-25.29,2.16-2.16,8.29-8,12-6.57,4.51,1.7.16,8.26-1.4,10.2-2.87,3.59-7,6.06-10.05,9.5a89.77,89.77,0,0,0-10.54,15.1c-1.91,3.28-6.4,9.91-3.57,9.91s5.73-6.81,7.12-8.8c4.5-6.43,16.3-30.59,27.52-27.38,5.23,1.49,1.05,9.12-.84,11.59-7.45,9.75-18.62,20.46-22.35,32.41a52.18,52.18,0,0,0-2.37,17.6c.05,1.32,2.1,9.57,2.79,8.53" transform="translate(-1.31 -6.38)"/><path class="cls-5" d="M196.9,321.73c2.9,2.9,8.3-2.71,10.34-4.75,3.74-3.74,23.1-21.33,28.53-19,7.87,3.38-12.22,26.36-15.54,29.49-7.39,7-16.82,16.38-26.12,20.67-5.52,2.55-13.23,1.11-19.28,2.8-13.35,3.7-19.39,11.41-26.4,21.93" transform="translate(-1.31 -6.38)"/><path class="cls-5" d="M146.05,294.35c0,1.69,1.29,6.42,1.4,7.68.7,8.22-3,18.18-6.29,25.56-3.69,8.2-15.34,27.89-14.25,36.61.38,3,.55,5.77,2.38,8.38s11.83,8.33,15.08,5.73c1.37-1.09,4.47-6.15,4.47-6.15" transform="translate(-1.31 -6.38)"/><path class="cls-5" d="M207.18,261.62c2.14.45,2.64,3.41,4.6,4,3.48,1,8.6-6.08,7.47-9.09C217.22,251.09,205.29,261.22,207.18,261.62Z" transform="translate(-1.31 -6.38)"/><path class="cls-5" d="M200.41,254.57c-.75-2.07,7.5-11.52,9.21-6.38C210.49,250.8,201.41,257.36,200.41,254.57Z" transform="translate(-1.31 -6.38)"/><path class="cls-5" d="M185,254.77c.22-1.72,6.85-8.25,8.35-6C195,251.27,184.43,258.69,185,254.77Z" transform="translate(-1.31 -6.38)"/><path class="cls-5" d="M237,301.77c-8.54-2.85-13.36,12.29-6,12.29" transform="translate(-1.31 -6.38)"/><path class="cls-5" d="M169.54,259.17c-2.57,2.49-4.8,13.58,4.46,2.46" transform="translate(-1.31 -6.38)"/><path class="cls-5" d="M403.05,354.13c-3.34-3.17-5.74-4.81-8.93-5.88-7.8-2.6-16.45-1.81-24.32-4.55-14.54-5.06-24.26-16.39-38.21-29.21-4.64-4.27-12.74-14.3-10.33-21.55,1.69-5.08,8.73-.36,11.33,1.55,7.17,5.29,13.11,12.07,20,17.67,2,1.63,5.86,4.63,7.89,1.44,3.09-4.86,4.68-13.6,3.55-19.22-.49-2.46-3.38-5.27-4.33-7.88-2-5.51-5.49-12.16-9.77-16.44s-7.89-7.55-12.33-12c-2.74-2.74-12.42-14.6-4.67-17,4.65-1.43,9.16,3.74,11.67,6.78,4.75,5.75,9.75,10.45,14.75,16.08,1.66,1.88,5,5.46,5,5.46s6.6,11.7,9.33,10.33" transform="translate(-1.31 -6.38)"/><path class="cls-5" d="M373.57,280c1.56-2.49-5.11-7-6.31-8.83-5.39-8-14-14-18.86-22.31-1.53-2.65-5.11-6.66-2.65-9.68,1.88-2.3,9.23.64,11,2,8.16,6.25,16.87,15.65,21.85,24.63,2.22,4,3.71,8.56,6.34,12.29.12.17.66,1.32,1.09,1.06,2.18-1.33-1.33-6.41-2-7.47-1.9-2.9-16.49-19.92-15.7-21.19a5.45,5.45,0,0,1,3.93-2.21c10.72-1.79,15.95,15.2,20.32,22.55.91,1.53,3.41,5.76,5.56,5.54,1-.11.46-2.14.24-2.6-2.93-6.16-8.31-10.76-11.51-16.72-.22-.41-1.44-2-.84-2.47,5.18-4.28,19.91,16.87,22.74,20.3" transform="translate(-1.31 -6.38)"/><path class="cls-5" d="M357.48,278.7c6,3.78,14.66,4.15,21.36,6.1,15.35,4.47,33,13.05,42.69,26.15,9.11,12.29,11.45,49.54,1.46,60.84-4.34,4.9-14.28-11.51-19.9-17.65" transform="translate(-1.31 -6.38)"/><path class="cls-5" d="M330.77,243.82c3.1,4.65,6.45,10.43,11.11,3.44" transform="translate(-1.31 -6.38)"/><path class="cls-5" d="M347.09,241.93c6.93,13.86,13.67,5,6.89-1.77" transform="translate(-1.31 -6.38)"/><path class="cls-5" d="M322.33,293.12c0,.06,17.55,8.59,8,11.32-5.84,1.67-11.74-10.67-6.22-13.43" transform="translate(-1.31 -6.38)"/><rect class="cls-6" x="171.38" y="99.59" width="193.15" height="13.24"/><rect class="cls-6" x="171.38" y="134.85" width="193.15" height="13.24"/><path class="cls-5" d="M351.5,110.87s2.15,3.78,3.94,4.38c.24.08,3.8-4.82,3.8-4.82" transform="translate(-1.31 -6.38)"/><path class="cls-5" d="M351,145.88s2.15,3.79,3.95,4.38c.24.08,3.79-4.82,3.79-4.82" transform="translate(-1.31 -6.38)"/><path class="cls-5" d="M365.27,119.08c4,7.93,3.77,13.46,1.1,21.48" transform="translate(-1.31 -6.38)"/></g></g></g></g></g></svg>