<?xml version="1.0" encoding="UTF-8" standalone="no"?>
<!-- Created with Inkscape (http://www.inkscape.org/) -->

<svg
   xmlns:dc="http://purl.org/dc/elements/1.1/"
   xmlns:cc="http://creativecommons.org/ns#"
   xmlns:rdf="http://www.w3.org/1999/02/22-rdf-syntax-ns#"
   xmlns:svg="http://www.w3.org/2000/svg"
   xmlns="http://www.w3.org/2000/svg"
   xmlns:sodipodi="http://sodipodi.sourceforge.net/DTD/sodipodi-0.dtd"
   xmlns:inkscape="http://www.inkscape.org/namespaces/inkscape"
   id="svg3353"
   version="1.1"
   inkscape:version="0.48.4 r9939"
   width="2293"
   height="1443"
   sodipodi:docname="logo_dsz-vektoros.svg">
  <metadata
     id="metadata3359">
    <rdf:RDF>
      <cc:Work
         rdf:about="">
        <dc:format>image/svg+xml</dc:format>
        <dc:type
           rdf:resource="http://purl.org/dc/dcmitype/StillImage" />
        <dc:title />
      </cc:Work>
    </rdf:RDF>
  </metadata>
  <defs
     id="defs3357">
    <clipPath
       clipPathUnits="userSpaceOnUse"
       id="clipPath3113">
      <path
         inkscape:connector-curvature="0"
         d="m 0,841.89 595.28,0 L 595.28,0 0,0 0,841.89 z"
         id="path3115" />
    </clipPath>
    <clipPath
       clipPathUnits="userSpaceOnUse"
       id="clipPath3121">
      <path
         inkscape:connector-curvature="0"
         d="m 432.329,356.71 152.661,0 0,-68.08 -152.661,0 0,68.08 z"
         id="path3123" />
    </clipPath>
    <clipPath
       clipPathUnits="userSpaceOnUse"
       id="clipPath3113-8">
      <path
         inkscape:connector-curvature="0"
         d="m 0,841.89 595.28,0 L 595.28,0 0,0 0,841.89 z"
         id="path3115-3" />
    </clipPath>
    <clipPath
       clipPathUnits="userSpaceOnUse"
       id="clipPath3121-9">
      <path
         inkscape:connector-curvature="0"
         d="m 432.329,356.71 152.661,0 0,-68.08 -152.661,0 0,68.08 z"
         id="path3123-0" />
    </clipPath>
  </defs>
  <sodipodi:namedview
     pagecolor="#ffffff"
     bordercolor="#666666"
     borderopacity="1"
     objecttolerance="10"
     gridtolerance="10"
     guidetolerance="10"
     inkscape:pageopacity="0"
     inkscape:pageshadow="2"
     inkscape:window-width="446"
     inkscape:window-height="423"
     id="namedview3355"
     showgrid="false"
     inkscape:zoom="0.16354816"
     inkscape:cx="1324.7689"
     inkscape:cy="648.77628"
     inkscape:window-x="175"
     inkscape:window-y="175"
     inkscape:window-maximized="0"
     inkscape:current-layer="svg3353" />
  <g
     id="g4150">
    <path
       inkscape:connector-curvature="0"
       id="path3363"
       d="m 343.4937,1319.7633 c -21.21367,-5.1347 -33.70281,-21.6249 -36.14905,-47.73 l -0.72001,-7.6835 10.11749,0 10.11749,0 0,4.3163 c 0,11.0347 4.00595,22.5769 9.65675,27.8237 9.16135,8.5064 28.8752,11.2638 44.34325,6.2024 8.05378,-2.6353 15.28254,-9.9507 17.52687,-17.7369 2.18795,-7.5906 1.69521,-22.5017 -0.90668,-27.4376 -4.78525,-9.0778 -17.07214,-16.564 -39.62019,-24.1399 -24.08812,-8.0933 -37.87188,-17.6747 -43.52537,-30.2554 -2.31226,-5.1455 -2.89931,-8.0715 -3.26715,-16.2838 -0.76829,-17.1532 3.27433,-28.9256 13.13574,-38.2521 9.90828,-9.3708 21.46533,-13.42 38.65678,-13.5439 16.72263,-0.1206 27.713,3.5473 37.55197,12.5324 8.76431,8.0038 15.44803,24.3291 15.44803,37.7326 l 0,4.0422 -9.85566,0 -9.85566,0 -0.56647,-7.49 c -1.38036,-18.2515 -12.22909,-28.9799 -30.57657,-30.2375 -9.1864,-0.6296 -17.27626,1.3452 -23.74662,5.797 -5.27359,3.6283 -7.90124,7.826 -9.98122,15.9449 -2.89693,11.3078 -0.15432,21.3419 7.83714,28.673 6.09874,5.5948 11.79623,8.3438 30.5014,14.7164 8.65901,2.9501 18.29859,6.5019 21.42129,7.893 12.29938,5.4789 21.40472,14.863 25.93223,26.726 2.5777,6.7542 3.58043,22.0215 1.99925,30.4402 -3.55691,18.9381 -16.77459,32.4642 -36.70512,37.5616 -9.37053,2.3965 -29.63569,2.5999 -38.76991,0.3889 z m 208.52173,0.1234 c -24.89972,-6.0242 -42.17811,-28.7393 -48.3299,-63.5369 -2.01722,-11.4104 -1.70737,-47.1061 0.50781,-58.5 6.64918,-34.2004 22.63211,-54.5942 47.94161,-61.1722 8.5212,-2.2146 27.10449,-2.1487 35.72467,0.1268 24.30645,6.4161 40.23963,25.7548 42.65799,51.7754 l 0.62921,6.77 -9.93921,0 -9.93922,0 -0.24978,-3.7089 c -0.36929,-5.4835 -4.80762,-17.92 -8.10635,-22.7146 -4.13905,-6.0159 -10.45879,-11.4058 -16.93263,-14.4413 -4.99286,-2.3411 -6.79173,-2.6284 -16.12001,-2.5744 -14.31402,0.083 -20.08778,2.3367 -29.07141,11.3477 -5.15681,5.1726 -7.24168,8.2113 -9.68515,14.1162 -11.47675,27.7348 -10.78423,80.0035 1.38672,104.6645 9.35136,18.948 28.40966,26.851 52.52079,21.779 15.51066,-3.2627 23.34131,-11.469 27.95799,-29.2991 1.09215,-4.218 2.25723,-12.2816 2.58906,-17.9191 l 0.60334,-10.25 -30.65067,0 -30.65067,0 0,-8.5113 0,-8.5114 40.25,0.2614 40.25,0.2613 -0.0698,19.5 c -0.0788,22.0228 -1.17525,28.3131 -7.12157,40.8581 -6.59999,13.924 -20.69086,24.7639 -37.91809,29.1699 -9.10356,2.3283 -29.58784,2.601 -38.23471,0.5089 z m 378.56509,-0.1036 c -14.08636,-3.4128 -24.05074,-11.2295 -30.17258,-23.6694 -3.70608,-7.531 -6.54665,-19.5002 -6.55058,-27.6019 l -0.002,-4.662 9.75227,0.5 9.75226,0.5 0.61752,7.5931 c 0.93724,11.5244 3.30331,17.4582 9.38738,23.5422 3.86888,3.8689 6.58063,5.6114 10.59723,6.8094 16.68998,4.9782 36.61415,1.8405 45.09425,-7.1015 4.2675,-4.4999 6.9511,-11.7358 7.5402,-20.3311 0.7799,-11.3783 -0.8516,-16.8827 -6.9976,-23.6073 -5.8841,-6.4382 -18.1602,-12.8493 -36.14062,-18.8743 -26.08018,-8.7391 -39.59836,-19.1676 -44.20846,-34.1042 -2.30129,-7.4562 -2.0513,-24.312 0.47963,-32.3388 6.32171,-20.0494 24.18591,-31.2158 50.13047,-31.3353 31.47338,-0.1449 49.37351,16.0229 52.58701,47.4978 l 0.6892,6.75 -9.99303,0 -9.9931,0 -0.5918,-6.75 c -0.8115,-9.2559 -3.115,-15.3058 -7.8952,-20.7363 -6.82093,-7.7491 -16.66567,-11.1995 -29.19442,-10.2322 -17.0497,1.3164 -27.05414,10.9413 -28.36649,27.2904 -1.05229,13.1093 4.90382,22.9394 17.86269,29.481 3.46844,1.7509 13.3905,5.5893 22.04902,8.5298 20.5001,6.962 27.9443,10.6688 35.3966,17.6254 10.43383,9.7398 15.27103,23.6328 14.05303,40.3621 -1.6955,23.2878 -14.55943,38.664 -37.18893,44.4517 -9.33602,2.3877 -29.64488,2.6036 -38.69368,0.4114 z m 540.27908,-0.016 c -10.0818,-2.6598 -17.9049,-7.2591 -26.0654,-15.324 -6.5123,-6.4361 -8.453,-9.1934 -12.7351,-18.0933 -8.8244,-18.3407 -11.7451,-35.4785 -10.9047,-63.9871 1.0015,-33.9718 7.8063,-54.1367 23.6612,-70.1161 12.3738,-12.471 24.8597,-17.2914 44.544,-17.1972 26.423,0.1265 44.9346,11.363 56.5007,34.2959 8.3192,16.4952 11.3915,32.4085 11.3915,59.0045 0,26.3642 -3.1179,42.6959 -11.169,58.5045 -8.9097,17.4945 -22.7248,29.0435 -39.4629,32.9899 -8.1151,1.9133 -28.3815,1.8696 -35.7603,-0.077 z m 27.1135,-15.4313 c 25.8493,-4.866 38.2505,-29.519 38.2231,-75.986 -0.024,-40.3102 -8.7452,-63.0902 -27.8612,-72.7723 -9.6297,-4.8773 -24.6624,-5.3607 -35.9766,-1.157 -8.8731,3.2968 -18.0471,12.8906 -22.4577,23.4853 -5.1154,12.2876 -7.1092,23.4856 -7.7435,43.4895 -1.1065,34.8999 4.193,57.5768 16.6375,71.1931 9.5453,10.444 23.6445,14.6716 39.1784,11.7474 z m 113.8865,14.6831 c -13.5752,-4.025 -22.5391,-11.8677 -28.536,-24.9668 -2.7976,-6.1107 -5.464,-18.47 -5.464,-25.3265 l 0,-4.4482 9.75,0.2862 9.75,0.2862 0.667,8 c 0.9613,11.5292 3.8328,18.4154 9.9862,23.9478 5.8346,5.2459 11.6784,7.3345 23.0307,8.2314 13.0243,1.029 25.6843,-2.6631 32.0125,-9.336 6.4357,-6.7862 9.7478,-23.3276 6.7877,-33.8999 -3.062,-10.9363 -14.9397,-19.2376 -39.9841,-27.9445 -33.0691,-11.4968 -45.6679,-22.7543 -47.9178,-42.8164 -2.6612,-23.73 5.7195,-41.0135 24.4778,-50.4802 7.3189,-3.6937 16.275,-5.4487 27.94,-5.4752 17.164,-0.039 28.6316,4.1333 38.1458,13.8783 8.0458,8.2411 12.3511,18.6676 13.8925,33.6447 l 0.6947,6.75 -9.9715,0 -9.9714,0 -0.5821,-6.75 c -1.1672,-13.5363 -7.6466,-23.768 -17.9286,-28.3111 -7.3867,-3.2638 -23.9796,-3.3921 -30.8823,-0.2388 -11.3654,5.192 -16.3474,13.4994 -16.3717,27.2999 -0.032,17.9865 7.3434,24.6184 39.5359,35.5513 20.6946,7.028 27.8255,10.5236 34.9794,17.1468 10.7242,9.9288 15.7982,24.1564 14.5509,40.8019 -1.0653,14.2185 -4.7751,22.8848 -13.4664,31.459 -11.101,10.9513 -23.352,15.0741 -44.5352,14.9874 -10.5018,-0.043 -14.5729,-0.4932 -20.59,-2.2773 z m -475.5328,-0.7171 c -0.1846,-0.3014 7.7261,-30.0014 17.5792,-66 9.8531,-35.9986 20.9548,-76.5895 24.6704,-90.202 l 6.7557,-24.75 13.0138,6e-4 13.0137,6e-4 24.8853,89.2494 c 13.6869,49.0872 25.0976,89.8119 25.357,90.4994 0.3568,0.9455 -1.8493,1.25 -9.0578,1.25 l -9.5294,0 -1.0249,-3.25 c -0.5637,-1.7875 -3.7737,-13.375 -7.1335,-25.75 -3.3597,-12.375 -6.3388,-23.2875 -6.62,-24.25 -0.4724,-1.6162 -2.7816,-1.7493 -30.1941,-1.7404 l -29.6826,0.01 -5.4016,20.2403 c -2.9708,11.1322 -6.2763,23.4711 -7.3455,27.4196 l -1.9439,7.1793 -8.5031,0.3207 c -4.6767,0.1765 -8.6541,0.074 -8.8387,-0.2272 z m 83.0284,-84.202 c -1.7845,-6.7375 -7.2043,-27.2243 -12.044,-45.5261 -4.8396,-18.3019 -9.1072,-32.9269 -9.4835,-32.5 -0.3762,0.4268 -2.9742,9.5511 -5.7732,20.2761 -2.799,10.725 -8.0379,30.6319 -11.642,44.2376 -3.6041,13.6057 -6.5529,24.9682 -6.5529,25.25 0,0.2818 10.9666,0.5124 24.3701,0.5124 l 24.3702,0 -3.2447,-12.25 z m -1190.495583,-6.3004 0,-90.6646 33.75,0.4909 c 38.127813,0.5546 41.211163,1.0014 54.451483,7.8897 18.32931,9.536 30.28217,27.4812 35.90931,53.9119 3.19761,15.0191 3.1948,42.8172 -0.006,57.9225 -3.82313,18.0431 -11.28201,33.1771 -21.27817,43.1732 -5.41996,5.42 -16.03576,12.07 -23.82676,14.9257 -6.33069,2.3204 -7.44425,2.3907 -42.750003,2.6989 l -36.25,0.3163 0,-90.6645 z m 65.113512,73.5451 c 13.128301,-2.4501 25.446611,-12.2182 31.806761,-25.2219 11.66266,-23.845 11.70769,-70.7364 0.0918,-95.5604 -3.50385,-7.488 -12.10323,-16.8556 -18.83822,-20.5213 -8.84708,-4.8151 -14.678031,-5.6911 -37.883951,-5.6911 l -21.289902,0 0,73.3333 c 0,40.3334 0.3,73.6334 0.666667,74 1.059008,1.059 39.492475,0.7727 45.446845,-0.3386 z m 93.886491,-73.4947 0,-90.5 45.5,0 45.5,0 0,8.5 0,8.5 -36.01466,0 -36.01467,0 0.26467,30.25 0.26466,30.25 35.75,0.2626 35.75,0.2627 0,7.9873 0,7.9874 -34.5,0.125 c -18.975,0.069 -35.0625,0.1813 -35.75,0.25 -0.97381,0.097 -1.25,7.8583 -1.25,35.125 l 0,35 35.75,0.2626 35.75,0.2627 0,7.9873 0,7.9874 -45.5,0 -45.5,0 0,-90.5 z m 263,0 0,-90.5 9.5,0 9.5,0 0,90.5 0,90.5 -9.5,0 -9.5,0 0,-90.5 z m 220,-0.034 0,-90.5339 10.66582,0.2839 10.66582,0.2838 13.08418,23.6057 c 7.1963,12.9831 24.10918,43.6134 37.58418,68.0673 l 24.5,44.4616 0.25689,-68.3173 0.25689,-68.3173 9.99311,0 9.99311,0 0,90.5 0,90.5 -9.45106,0 -9.45106,0 -3.43175,-6.25 c -1.88746,-3.4375 -13.07694,-24.025 -24.86551,-45.75 -11.78858,-21.725 -27.70381,-51.0411 -35.36719,-65.1468 l -13.93343,-25.6467 -0.25662,71.3969 -0.25662,71.3968 -9.99338,0 -9.99338,0 0,-90.5338 z m 351.99998,83.5267 0,-7.0071 37.5,-74.3334 c 20.625,-40.8833 37.5,-74.6301 37.5,-74.9929 0,-0.3627 -16.425,-0.6595 -36.5,-0.6595 l -36.5,0 0,-8.5 0,-8.5 48.5,0 48.5,0 0,8.1079 0,8.1079 -7.3747,14.1421 c -11.0044,21.1029 -67.6253,133.3227 -67.6253,134.0301 0,0.3367 17.325,0.6122 38.5,0.6122 l 38.5,0 0,8 0,8 -50.5,0 -50.5,0 0,-7.0071 z m 263,-83.4929 0,-90.5 9.4903,0 9.4903,0 0.2597,47.75 0.2597,47.75 33.5,-47.7131 33.5,-47.7132 11.357,-0.037 c 9.7025,-0.032 11.273,0.182 10.7804,1.4657 -0.3171,0.8264 -10.8779,15.3576 -23.4684,32.2916 -12.5905,16.934 -23.4502,31.6832 -24.1326,32.776 -1.0972,1.7569 1.792,7.713 24.9617,51.4583 14.4114,27.2093 27.7324,52.2697 29.6022,55.6897 1.8698,3.4201 3.3997,6.4576 3.3997,6.75 0,0.2925 -5.1372,0.5318 -11.416,0.5318 l -11.4161,0 -7.4516,-14.25 c -4.0984,-7.8375 -13.8844,-26.625 -21.7467,-41.75 -7.8623,-15.125 -15.7281,-30.1065 -17.4795,-33.2923 l -3.1845,-5.7922 -13.6528,19.2342 -13.6528,19.2342 0,28.3081 0,28.308 -9.5,0 -9.5,0 0,-90.5 z m 421,83.4971 0,-7.0028 37.5,-74.3419 c 20.625,-40.888 37.5,-74.6367 37.5,-74.9971 0,-0.3604 -16.425,-0.6553 -36.5,-0.6553 l -36.5,0 0,-8.5 0,-8.5 48.5,0 48.5,0 0,8.1079 0,8.1079 -7.3735,14.1421 c -10.8967,20.8997 -67.6265,133.3433 -67.6265,134.042 0,0.3302 17.325,0.6003 38.5,0.6003 l 38.5,0 0,8 0,8 -50.5,0 -50.5,0 0,-7.0029 z m 159,-74.4971 0,-81.5 -21.5,0 -21.5,0 0,-9 0,-9 53,0 53,0 0,9 0,9 -21.5,0 -21.5,0 0,81.5 0,81.5 -10,0 -10,0 0,-81.5 z m 72.6281,76.25 c 0.8133,-2.8875 11.9337,-43.5 24.7121,-90.25 l 23.2334,-85 13.2132,-0.279 c 7.2673,-0.1535 13.2132,-0.022 13.2132,0.2934 0,0.3148 2.7317,10.3404 6.0705,22.279 22.9898,82.2063 43.9295,157.4129 43.9295,157.7763 0,0.2367 -4.2139,0.4303 -9.3642,0.4303 l -9.3642,0 -3.6782,-13.25 c -2.0231,-7.2875 -5.3949,-19.55 -7.4929,-27.25 l -3.8147,-14 -29.8244,0 -29.8245,0 -6.1818,23 c -3.4,12.65 -6.7107,24.9125 -7.357,27.25 l -1.1752,4.25 -8.8867,0 -8.8867,0 1.4786,-5.25 z m 85.1151,-68 c -0.259,-0.6875 -5.7559,-21.275 -12.2155,-45.75 -6.4595,-24.475 -11.8503,-44.6171 -11.9796,-44.7601 -0.1293,-0.1431 -2.8176,9.5319 -5.974,21.5 -8.7884,33.3219 -17.6146,66.5629 -18.1909,68.5101 -0.4835,1.6334 1.1263,1.75 24.1564,1.75 19.3239,0 24.5723,-0.2711 24.2036,-1.25 z m 63.2568,-17.2498 0,-90.5 9.4942,0 9.4942,0 0.2558,82.25 0.2558,82.25 34.25,0.2631 34.25,0.2632 0,7.9868 0,7.9869 -44,0 -44,0 0,-90.5 z m 138,54.6131 0,-35.8869 -25.5,-53.6774 c -14.025,-29.5226 -25.5,-54.0985 -25.5,-54.6131 0,-0.5219 4.6725,-0.9357 10.5652,-0.9357 l 10.5652,0 4.746,10.25 c 2.6102,5.6375 11.4684,25.4238 19.6847,43.9696 8.2164,18.5458 15.1639,33.7179 15.4389,33.7156 0.275,0 9.2874,-19.6761 20.0275,-43.7196 l 19.5275,-43.7156 10.7225,-0.2838 c 5.8974,-0.1561 10.7225,0.1153 10.7225,0.6032 0,0.4879 -11.475,25.081 -25.5,54.6513 l -25.5,53.7641 0,35.8826 0,35.8826 -10,0 -10,0 0,-35.8869 z m -239.8333,-155.048 c 0.1833,-0.5142 6.1833,-8.3682 13.3333,-17.4534 l 13,-16.5186 9.8423,-0.047 9.8423,-0.046 -16.8423,17.4618 -16.8423,17.4618 -6.3333,0.038 c -3.5158,0.021 -6.1851,-0.3777 -6,-0.8967 z M 69.986949,1038.1181 c 12.14359,-22.0921 20.41184,-46.67647 24.473581,-72.76831 2.49079,-16.00037 2.5274,-49.11829 0.0718,-65 C 88.456309,861.05192 73.778979,825.35869 51.474227,795.63841 42.919183,784.23912 27.532973,768.07955 17.12779,759.56562 l -6.231777,-5.09909 11.231777,-5.46293 c 48.552769,-23.61519 90.10506,-60.38601 120.00225,-106.19347 26.48483,-40.57916 42.70534,-87.03111 47.77183,-136.80793 1.74056,-17.1004 0.73468,-54.36236 -1.93434,-71.65631 -4.73277,-30.66612 -15.54225,-65.01666 -28.69066,-91.1737 -7.9344,-15.78445 -22.34628,-38.44498 -32.63134,-51.30793 -2.63228,-3.29204 -4.78596,-6.26837 -4.78596,-6.61407 0,-0.34571 1.92544,-0.89246 4.27876,-1.21502 6.86919,-0.94153 26.57867,-7.23555 38.19504,-12.19721 63.74686,-27.22793 112.58584,-84.652 129.99405,-152.84487 4.47296,-17.52185 6.53215,-34.453792 6.53215,-53.711443 l 0,-15.884658 112.25,55.969791 c 61.7375,30.78338 112.75733,56.38897 113.37739,56.90129 1.28717,1.06352 4.60884,18.13534 6.82587,35.08172 2.67202,20.42417 3.61312,34.91191 4.22231,65 1.09519,54.09257 -3.58963,108.74925 -12.55704,146.5 -12.92018,54.39098 -63.67885,269.67649 -77.68744,329.5 -23.55453,100.58927 -22.96965,98.23407 -29.17959,117.5 -19.62379,60.8815 -56.73544,134.214 -90.82243,179.46491 l -7.55937,10.0351 -126.85873,0 -126.858725,0 3.975084,-7.2317 z m 343.370551,4.95 c 8.69494,-6.4339 21.41899,-17.9359 33.02098,-29.8497 49.52264,-50.85315 89.9697,-123.41875 103.32191,-185.36861 1.6596,-7.7 21.7793,-93.425 44.71045,-190.5 22.93115,-97.075 42.75281,-181 44.04814,-186.5 8.36542,-35.51989 9.79013,-83.81828 3.86426,-131 -3.25094,-25.8839 -10.18244,-56.67769 -17.6699,-78.5 -4.14779,-12.08879 -11.94879,-30.87173 -14.46853,-34.83676 -0.81675,-1.28522 -1.27689,-2.54488 -1.02253,-2.79923 0.74463,-0.74463 183.8188,91.08637 191.87212,96.2441 35.83985,22.95356 65.09464,56.36469 84.83853,96.89189 8.69399,17.84569 13.19513,30.0875 17.99262,48.93484 5.68955,22.35188 7.34728,38.41233 6.66427,64.56516 -0.63538,24.32908 -1.0087,26.66391 -11.03246,69 -3.5811,15.125 -20.27567,86 -37.09906,157.5 -16.82339,71.5 -31.50392,133.36605 -32.6234,137.4801 -9.79051,35.97988 -32.67579,73.17155 -63.09466,102.53739 -32.56341,31.43612 -73.00517,53.69512 -114.44278,62.98882 -24.27438,5.4443 -24.56043,5.4556 -137.37784,5.4425 l -104.5,-0.012 2.99788,-2.2183 z m 430.50212,1.2082 c 23.4391,-3.0606 45.6401,-11.4708 66.05329,-25.0223 12.63553,-8.3883 32.43811,-28.1782 40.79829,-40.77228 15.8398,-23.86163 24.64907,-50.85956 25.82037,-79.13193 0.5229,-12.62044 -1.1406,-29.44405 -20.17075,-204 -1.34913,-12.375 -3.12142,-28.8 -3.93842,-36.5 -0.81701,-7.7 -3.3636,-31.1 -5.65909,-52 -2.49309,-22.69905 -4.15029,-42.42922 -4.11566,-49 0.16056,-30.46809 12.48912,-59.61586 34.54412,-81.67084 13.7745,-13.77451 33.86543,-25.28986 53.33063,-30.56709 9.0835,-2.46262 11.3696,-2.67019 29.8372,-2.70895 21.7667,-0.0457 28.0295,1.03435 43.5,7.50173 7.7357,3.23388 206,101.72357 206,102.33249 0,0.23128 -2.1556,-0.39855 -4.7902,-1.39962 -8.4357,-3.20532 -19.6959,-4.98822 -31.4176,-4.97458 -26.0276,0.0303 -48.3353,8.86996 -66.599,26.39058 -17.9469,17.21665 -27.066,35.31189 -30.2784,60.08205 -0.6409,4.94217 -0.9099,11.91717 -0.5976,15.5 0.5925,6.79813 6.139,58.25445 19.8351,184.01423 8.5308,78.33036 9.4809,93.15501 6.9223,108 -1.8658,10.82503 -6.5842,25.12448 -11.7615,35.64386 -5.2529,10.67299 -17.9564,28.03755 -25.5246,34.88975 -16.2802,14.7401 -35.0712,25.1709 -55.2885,30.6903 l -12,3.2761 -130.49998,0.1377 c -75.24673,0.079 -127.74792,-0.2218 -124,-0.7112 z m 482.49998,-0.5823 c -25.9687,-5.5379 -48.6758,-23.8117 -59.6423,-47.99774 -4.9281,-10.86875 -7.1822,-22.22037 -7.1181,-35.84647 0.099,-21.01025 3.9824,-31.24066 23.1555,-61 14.6865,-22.7954 19.4718,-30.24858 35.634,-55.5 14.6628,-22.90883 24.7996,-38.70796 55.4988,-86.5 10.5988,-16.5 20.993,-33.34221 23.0982,-37.42713 18.4877,-35.87345 15.1647,-80.22218 -8.4911,-113.3218 -5.6226,-7.86723 -19.3485,-21.26294 -26.885,-26.23829 -3.1625,-2.08777 -5.75,-3.95951 -5.75,-4.15944 0,-0.19992 51.6375,25.48188 114.75,57.07068 123.1597,61.64336 121.6805,60.81733 132.2458,73.85107 6.4566,7.96515 13.2847,21.17239 16.1784,31.29312 1.8571,6.49493 2.2661,10.37733 2.2578,21.43179 -0.018,24.12973 -2.0504,28.93633 -31.9216,75.5 -74.8153,116.62323 -73.7292,114.90402 -76.3526,120.85759 -1.1773,2.67168 -2.8798,8.50586 -3.7833,12.96485 -4.7966,23.67245 4.6959,48.78867 23.8935,63.21977 7.9972,6.0116 11.8033,7.9031 21.9233,10.895 l 8.3087,2.4564 -115,-0.028 c -98.1056,-0.024 -116.0284,-0.2476 -122,-1.5211 z"
       style="fill:#000000" />
    <g
       inkscape:export-ydpi="90"
       inkscape:export-xdpi="90"
       inkscape:export-filename="D:\BME\DSZ\LOGO_DSZ\vektoros.png"
       id="g3109"
       transform="matrix(4.0812644,0,0,-4.0812644,-112.59983,2218.6718)">
      <g
         clip-path="url(#clipPath3113-8)"
         id="g3111">
        <g
           id="g3117">
          <g
             id="g3119" />
          <g
             id="g3125">
            <g
               id="g3127"
               clip-path="url(#clipPath3121-9)">
              <g
                 id="g3129"
                 transform="translate(448.4497,356.71)">
                <path
                   id="path3131"
                   style="fill:#00aeef;fill-opacity:1;fill-rule:nonzero;stroke:none"
                   d="m 0,0 136.54,-68.08 -152.569,0 C -17.04,-48.73 -9.529,-16.87 0,0"
                   inkscape:connector-curvature="0" />
              </g>
            </g>
          </g>
        </g>
      </g>
    </g>
  </g>
</svg>
