<svg xmlns="http://www.w3.org/2000/svg" xmlns:xlink="http://www.w3.org/1999/xlink" viewBox="0 0 430.06 333.66"><defs><style>.cls-1,.cls-5{fill:none;}.cls-2{isolation:isolate;}.cls-3{clip-path:url(#clip-path);}.cls-4{clip-path:url(#clip-path-2);}.cls-5{stroke:#000;stroke-linecap:round;stroke-linejoin:round;stroke-width:2.45px;}</style><clipPath id="clip-path" transform="translate(-1.3 -3.15)"><rect class="cls-1" width="433" height="339"/></clipPath><clipPath id="clip-path-2" transform="translate(-1.3 -3.15)"><rect class="cls-1" x="-204" y="-107.35" width="841.99" height="595.35"/></clipPath></defs><g id="Layer_2" data-name="Layer 2"><g id="Layer_1-2" data-name="Layer 1"><g class="cls-2"><g class="cls-3"><g class="cls-4"><line class="cls-5" x1="130.29" y1="10.09" x2="66.01" y2="225.9"/><polyline class="cls-5" points="70.04 227.9 68.59 227.35 65.97 226.67"/><polyline class="cls-5" points="134.4 24.84 134.19 24.1 73.94 216.81 75.07 216.19"/><polyline class="cls-5" points="59.22 266.48 250.59 323.93 251.73 322.55 319.94 80.66 320.37 78.38 135.51 23.91"/><polyline class="cls-5" points="60.96 239.67 54.07 263.09 54.04 265.18"/><line class="cls-5" x1="248.75" y1="218.09" x2="74.27" y2="217.4"/><line class="cls-5" x1="69.45" y1="229.34" x2="58.89" y2="266.07"/><line class="cls-5" x1="150.26" y1="1.83" x2="209.72" y2="18.36"/><line class="cls-5" x1="255.11" y1="32.13" x2="315.56" y2="49.35"/><line class="cls-5" x1="262.98" y1="312.68" x2="329.1" y2="70.7"/><line class="cls-5" x1="62" y1="280.99" x2="243.24" y2="331.73"/><line class="cls-5" x1="1.23" y1="237.16" x2="60.95" y2="239.07"/><line class="cls-5" x1="263.78" y1="237.53" x2="428.83" y2="237.69"/><line class="cls-5" x1="160.54" y1="45.13" x2="284.09" y2="81.94"/><path class="cls-5" d="M131.52,13.77c.69-.75.86-1.94,1.45-2.78a24.8,24.8,0,0,1,4-4.13c4.71-4.18,9.38-1.78,14.39-2" transform="translate(-1.3 -3.15)"/><path class="cls-5" d="M211.53,21.91c.66-.49-2.07.42-2.36.53-1.7.63-3.34,1.35-5,2.08-4.77,2.08-10.24,3.54-14.38,6.79-1.33,1-3.5,3-2,4.78,4.54,5.48,17.6,2.31,23.58,2.21,3,0,14.94,3,14.94,3a110.76,110.76,0,0,1,16.16,4.91c2.58,1.06,12.1,5.88,13.81.91,1.89-5.5-3.84-6.92-4.75-11.36C251,33.26,250,30.59,249.81,28c-.27-4.09-1.28-11.1-2.37-13A15.88,15.88,0,0,0,244,10.8c-2-1.78-4.51-1.13-7.25-.57a15.22,15.22,0,0,0-9,6.06c-1.4,2.15-2.25,4.85-4.49,6.28-4,2.56-9.7.54-12.56,4.6s-3.38,13.57-8.24,16.08c-4.34,2.25-8.58-.91-12.73-1.87A35,35,0,0,0,178,40.81c-5.41.72-12.83,3.29-16.42,7.37" transform="translate(-1.3 -3.15)"/><path class="cls-5" d="M256.36,35.5c2,1.8,5.48,3.87,7.23,6,3.34,4,7.23,7.48,10.61,11.46,1.39,1.64,3.78,7.68.38,8.07-1.26.15-3.84-2-4.82-2.57-3-1.86-9.82-5.27-13.45-4.1" transform="translate(-1.3 -3.15)"/><path class="cls-5" d="M255.82,54.61c0,2.19,5.4,5.36,7.17,6.29,6.67,3.54,15.88,6.63,20.53,12.78,1.2,1.59,5.17,9.66,2.61,11.49" transform="translate(-1.3 -3.15)"/><path class="cls-5" d="M317,52.33s4.84,1.65,6.28,2c10,2.55,7.29,13,6.79,20.66" transform="translate(-1.3 -3.15)"/><path class="cls-5" d="M55.28,267.74c-.9,5.86,3.08,13.66,7.85,16.25" transform="translate(-1.3 -3.15)"/><path class="cls-5" d="M243,334.29c-.06.26,3.94,1.26,4.4,1.28a12.9,12.9,0,0,0,7.24-1.73c4.73-2.89,6.21-9.27,8.1-14,.47-1.18,1.37-3.87,1.37-3.87" transform="translate(-1.3 -3.15)"/><path class="cls-5" d="M250.14,221.55c.08,11.07-2,18.18-4.92,28.55-2.4,8.55-3,13.24-.94,21.68.4,1.67.63,5.69.85,7.4.05.36-.27,2.84.36,2.51,3-1.58,4.31-6.39,5.62-9.21s3.18-5,4.22-7.79c1.93-5.17,1.8-11.39,3.24-16.74.8-3,2.87-8.71,2.28-11.8-.49-2.55-7.26,1.31-7-3,.39-5.86,6.47-1.8,7.95-6.77,3.73-12.49,3.44-25.63,5.88-38.28.33-1.71,2.46-13.87,2-14.87-1.06-2.19-6.08,2.7-6.59,1.29-.31-.84,2.84-13.13,4.65-13.15s-.09,8.54-.49,9.58c-3.58,9.37-9.32,17.54-10.64,27.69-.32,2.53-2.25,13.87-1.26,15.92.88,1.79,2.68,2.18,4,3.49,4.68,4.62,7.72,10,7.18,16.8a32.15,32.15,0,0,1-1.46,5.37" transform="translate(-1.3 -3.15)"/></g></g></g></g></g></svg>