<svg xmlns="http://www.w3.org/2000/svg" xmlns:xlink="http://www.w3.org/1999/xlink" viewBox="0 0 597.53 333.72"><defs><style>.cls-1,.cls-4,.cls-5,.cls-6{fill:none;}.cls-2{clip-path:url(#clip-path);}.cls-3{clip-path:url(#clip-path-2);}.cls-4,.cls-5,.cls-6{stroke:#000;stroke-linejoin:round;}.cls-4,.cls-6{stroke-linecap:round;}.cls-4,.cls-5{stroke-width:2.45px;}.cls-6{stroke-width:2.46px;}</style><clipPath id="clip-path" transform="translate(-1.69 -2.14)"><rect class="cls-1" width="602" height="338"/></clipPath><clipPath id="clip-path-2" transform="translate(-1.69 -2.14)"><rect class="cls-1" x="-104" y="-152.35" width="841.99" height="595.35"/></clipPath></defs><g id="Layer_2" data-name="Layer 2"><g id="Layer_1-2" data-name="Layer 1"><g class="cls-2"><g class="cls-3"><path class="cls-4" d="M2.94,222.32c10.56-21.12,23-41,30.54-63.62,2.86-8.6,5.08-16.11,3.63-25.27-.44-2.8-6-7.54-7.09-2.55-1.34,6,8.43,13.48,12.91,15.82,4,2.11,6.91,5.25,10.73,7.63,10.55,6.6,23.38,11.14,34.72,16.18.75.34,27.43,9.52,27.43,9.52" transform="translate(-1.69 -2.14)"/><path class="cls-4" d="M2.92,222.65a5.12,5.12,0,0,0,1.29,2.2c2.09,1.67,6.59,2,9.09,2.91,7.65,2.94,15.22,5.35,22.91,8,16.52,5.69,33.18,10.67,49.62,16.54,3.47,1.23,16.35,7.63,19.09,7.63" transform="translate(-1.69 -2.14)"/><path class="cls-4" d="M104.56,259.59a93.55,93.55,0,0,0,2.72-9.45c1.27-7.16,3.58-14.9,4.37-22,.4-3.63,1.2-10.1,2.46-13.56,1.43-3.93,2.76-4.43,5-7.89s15.43-15.31,13.45-19.27c-2.44-4.89-15.26,1-17.63,3.64-8.92,9.81-15.69,35.54-6.54,46.72,5.73,7,22.07,3.74,27.45-1.64,3-3,5.47-9,10.18-9.64,2.51-.31,14,13.71,15.08,15.82" transform="translate(-1.69 -2.14)"/><path class="cls-4" d="M161.27,242.14c2.11,6.33,23.77-1.46,26.73-.27,9,3.6,8.43,10.16-1.44,10.16" transform="translate(-1.69 -2.14)"/><path class="cls-4" d="M136.73,199.25c0,17.16-23.75,39.43-3,49.82" transform="translate(-1.69 -2.14)"/><path class="cls-4" d="M133,248.83s4.09,2,5.07,2.41c2.18.91,4.88.93,7.2,1.26a144.54,144.54,0,0,0,33.52.36c1.2-.11,7.94-.8,7.94-.8" transform="translate(-1.69 -2.14)"/><path class="cls-4" d="M136.64,199.88c-.32-.64,3-2.37,3.25-2.52a67.37,67.37,0,0,1,12.25-6.12c9.9-4,21-8.45,31.71-5.23,3.63,1.09,7.74,4.59,11.17,6.31" transform="translate(-1.69 -2.14)"/><path class="cls-4" d="M194.74,192c-.12.24,8.47,6.45,10,7.4,2.65,1.66,4,3.81,6.29,5.92s5.53,2.68,8,4.44c2.85,2.07,9,9.7,10.17,13.13,1.9,5.68,3.24,26.3.37,31.07-1,1.65-6.32.74-7.95.74-4,0-21.66.17-24.42-2.58-.47-.48.19-4.49.19-5.18,0-1-3.22-1.3-3.68-2.21-.24-.49,4.24-.08,4.79,0a28.57,28.57,0,0,0,3.7.18c2.11,0,15.61,1.16,13.87-4.07-1.37-4.11-10.1-2.34-13.5-3-10-1.82-21.32-3.72-30.15-8.14" transform="translate(-1.69 -2.14)"/><path class="cls-4" d="M207.41,202s-5.37,3.25-1.71,5.45a66.78,66.78,0,0,0,6.19,3.27c5.58,2.56,11.62,5.11,14.48,10.82.73,1.46,3.4,6,1.29,7.21-7.52,4.3-30.29-12.84-39.58-14.8-2.6-.55-18.05-8.81-19.05-3.33-1.62,8.89,25.05,10.38,31.63,12.95,3.37,1.32,13.6,1.12,16.09,3.88,6.3,7,.73,11.59-7.77,10.18" transform="translate(-1.69 -2.14)"/><path class="cls-4" d="M114.74,180.85c-17,11.34-24.67,24.13-20.11,45.38.39,1.84,2.08,9.05,5.76,14.09a33.21,33.21,0,0,0,9.85,8.54" transform="translate(-1.69 -2.14)"/><path class="cls-4" d="M207.45,201.65c0,1,7.65,1.7,8.77,2.23a77,77,0,0,1,15,8.91c2,1.57,4.74,4.38,4,7.23-.44,1.77-5.43,4.18-6.82,2.79" transform="translate(-1.69 -2.14)"/><path class="cls-4" d="M232.93,151.44c2.7,5.41,7.53,10.07,10.71,15.31,4.74,7.78,8.89,16.1,14.9,23.1,4.95,5.78,10.19,11.19,13.22,18.37,2.7,6.43,5.91,17.95-1.53,22.69-5.21,3.31-18.52-1.79-23.11-4.59-3.17-1.94-7.65-6.13-11.55-6.13" transform="translate(-1.69 -2.14)"/><path class="cls-4" d="M233.18,151.54c0-.7-.5-.06.45-.32,6.35-1.73,13.45-6.53,18.45-10.82,2.2-1.88,12.94-15.67,14.89-14.69,2.32,1.16-1.87,7.61-2.44,8.57-3.41,5.68-15.47,16.57-14.49,23.46.9,6.32,19.39,4.29,23.67,4.9a15.2,15.2,0,0,1,8.12,4.12l1.61,1.47" transform="translate(-1.69 -2.14)"/><path class="cls-4" d="M282.93,167.48s6.19,3.89,7,4.63c4.53,4,8.25,8.43,7.46,14.76-.87,7-9.82,5.64-14.32,8.21-1.68,1-3.26,4-.3,4.77,3.62.91,7.85-1.5,11-2.83,7.57-3.16,16.37-5.37,14.47-15.81-.67-3.69-2.68-7.41-2.68-11.19" transform="translate(-1.69 -2.14)"/><path class="cls-4" d="M289.05,174.2c0,3.57,3.55,8.11,1.79,11.63-1.31,2.63-13.94,1.25-10.14,6.56,1.19,1.67,2.32.86,3.87,1.64" transform="translate(-1.69 -2.14)"/><path class="cls-4" d="M308.29,187.32c-.74,1.49,4.87.81,5.82-3s-.12-16.09-2.83-18.8" transform="translate(-1.69 -2.14)"/><path class="cls-4" d="M238.18,151.07c6.23,4.16,8.44,10.44,13,19.76,4.26,8.71,10.95,20.4,14.46,26.64,1.71,3,6,10.33,10.74,7.6,2.5-1.42,2.12-4.42,1.62-6.42-1.92-7.67-7.1-13.1-12.08-18.8-1.17-1.33-4.56-5.17-3.28-7.31.81-1.35,4.78-.64,5.81-.29,7.51,2.5,12.79,2.08,20.14,2.08" transform="translate(-1.69 -2.14)"/><path class="cls-4" d="M269.42,128.24C267.93,130,282,132,282.54,132c7.9,1.17,15.85,5.35,22.37,10.12,8.32,6.08,8.88,20.9,12.81,29.67,1.61,3.58,1.94,9.68-3.41,7.16" transform="translate(-1.69 -2.14)"/><path class="cls-4" d="M292.26,198.81c1.5-.54-2.13,8.26,0,9,6.79,2.38,9-8.94,9.46-13.11" transform="translate(-1.69 -2.14)"/><path class="cls-4" d="M238.32,150c-4.6-5.5-21.52-23.55-17.47-30.11s20.8-13.47,21.38-20" transform="translate(-1.69 -2.14)"/><path class="cls-4" d="M269.8,128.2c-7-8.39-15.77-15.45-22.72-23.76" transform="translate(-1.69 -2.14)"/><path class="cls-4" d="M211.19,135.73c12.41,7.66,20.53-10.3,26.37-18.51,2-2.78,3.72-5.84,6.13-8.26.69-.68,3.18-3.76,3.13-3.26" transform="translate(-1.69 -2.14)"/><path class="cls-4" d="M117.49,45.79c.06,2.76,17.28,20.77,20.4,24.36,9.49,10.93,25.31,23.95,37.4,32.31C182,107.1,192.68,118,192.68,118S206,132,211.45,135.6" transform="translate(-1.69 -2.14)"/><path class="cls-4" d="M118.71,45.12c-3.32-.4,7.08-2.22,9.51-2.93,6.38-1.86,13.33-1.71,19.71-3.65,11.5-3.49,28.67-7.82,37-17.06,3.51-3.88.37-17.83-6.37-14.82-7,3.11,6.2,22.12,9.2,25.13,16.1,16.08,28,35.13,44.09,51.25,4.51,4.52,12.47,13,9.42,19.27" transform="translate(-1.69 -2.14)"/><path class="cls-4" d="M346.5,167.47c-4.65,2.78-9.33.37-10.61-1.88a21.74,21.74,0,0,1-.81-19.66c4.38-9.85,7.88-21.28,13.58-30.4,1.13-1.82,1.38-4.82,2.83-6.28,4.75-4.75,20.06-7.14,26.75-8.71a88.25,88.25,0,0,1,20.07-2.64c.91,0,5-.68,5.47,0,2.87,4.31,5,10.44,6.69,15.41,2,6.09,11.12,13.35,10.13,20.26-.66,4.63-8.82,8-12.57,9.32-9.57,3.42-26,8-32.8,15.94-6.11,7.13-3.45,22.73-7.73,31.28-1.61,3.24-16.41,8.51-16.41,8.51s-4.3,2.66-6.28,3.65c-9.13,4.57-19.31,13.49-29,17.36-1.66.66-6.65-7.28-7.46-8.1-2.28-2.27-7-14.86-5.39-18.15" transform="translate(-1.69 -2.14)"/><path class="cls-4" d="M422.63,75.41c0,1.64-2.14,4.16-3,5.67a39.16,39.16,0,0,1-6.33,7.61c-3.72,3.72-7.93,6.85-11.71,10.63-7.75,7.76-13.91,17.39-20.87,25.74-5.13,6.15-11.65,10.78-16.82,16.82-2.7,3.14-4.42,7.93-6.49,11.55s-3.23,4.23-5.66,7.72c-1.17,1.68-4.6,5.68-4.88,7.89a25,25,0,0,0,0,5.47c1.75,14,16.87-1.14,23.92-3.78,1.94-.73,14.78-4.3,14.79-4.33" transform="translate(-1.69 -2.14)"/><path class="cls-4" d="M366.69,138.23c0-3.6-9.37-14.18-12.16-11.95-3.82,3.06,4.12,14.47,1.62,19.45-1.74,3.48-10.77,6.26-9.52,0,.6-3,15.4-2.23,15.4-2.23" transform="translate(-1.69 -2.14)"/><path class="cls-4" d="M392,146.74c1.52-3,9.06-7.19,12.16-8.91,6.16-3.42,18.83-15,22.5-21.08,5.46-9.09,4.72-17.17,6.08-27.36.4-3,1.57-6,1.82-9.12.32-3.79,1.4-13,1.4-13" transform="translate(-1.69 -2.14)"/><path class="cls-4" d="M436.19,67.22c.8-1.6,3.1-1.82,4.51-2.93,3.33-2.65,6.72-6.3,9.92-9.25,12-11.12,21.92-24.37,34.27-35.17,5.05-4.42,10-9,14.66-13.76a33.13,33.13,0,0,1,3.16-2.51" transform="translate(-1.69 -2.14)"/><path class="cls-4" d="M502.93,3.37c5.28,2.64,10.32,5.37,15.79,7.48,6.68,2.57,14.15,8.48,20.07,12.62,5.6,3.92,12.12,8,17.36,12.41,1.54,1.28,2.22,1.8,2.22,1.8" transform="translate(-1.69 -2.14)"/><path class="cls-4" d="M556,35.65s7.82,5.7,6.83,8c-.7,1.63-5.39,5.59-6.7,6.64-6.27,5-13.34,8.83-19.84,13.53C518.59,76.65,499,86.27,479.71,96.53c-7.08,3.78-13.49,8.83-20.75,12.18C449.65,113,442,120,434.38,126.53c-1,.83-6.46,5-5.41,6.76s6-1.45,6.86-2a77.82,77.82,0,0,0,8.08-5.4c1.56-1.25,5.32-3.27,6.83-4.75a11.25,11.25,0,0,0,1.85-2.63" transform="translate(-1.69 -2.14)"/><path class="cls-4" d="M422.79,75.39c0,2.44,4,5,5.28,6.94,5.12,7.68,31.14,26.54,24.07,37.14" transform="translate(-1.69 -2.14)"/><path class="cls-4" d="M346,170c-3.46,1.34-15.68,2.61-17.8,4.94l.07,1.54c.38,7.7,3.12,14,4.44,21.49.53,3.06,1.5,8.09,4,10.34l.49.3c5.62,2.47,22.1-4.16,28.29-5.94l5-1.48,3-1.11c2.79-4-1.37-20.86-2.82-24.58" transform="translate(-1.69 -2.14)"/><path class="cls-4" d="M395,179.3s-4.52,4.82-7.09,7.44c-6.28,6.38-20.09,23.43-18.25,33.4,1.32,7.11,6,11.72,11,16.28,2.14,2,4.22,4.31,7.16,5.19,3.62,1.09,3.39-2.69,2.18-5.1-1.67-3.34-11.65-12.15-11.08-15,.33-1.64,3.3,1.77,3.5,2,1,1.15,10.95,11.17,12.54,8.39,2.14-3.75-9.6-12.62-12-15.39-.51-.6-4.61-5-3-5.86,2-1.11,4.31,3.33,5.12,4.51,2,2.89,7.94,11.74,12.35,10,3.38-1.33-1.2-8.47-2.2-9.81-5.51-7.3-7.72-13.56.76-18.85,6.23-3.88,28.81-.73,26.15,10.09-.85,3.45-12.75,15.65-10.09,18.63,1.71,1.9,7.65-.91,9-2.16" transform="translate(-1.69 -2.14)"/><path class="cls-4" d="M421.19,223.2c.94-.84.29-8.9-1.11-9.18-4.9-1-17.41,3-22.56,4.44" transform="translate(-1.69 -2.14)"/><path class="cls-4" d="M391.26,232c1.11,4.05,3.06,10.68,2.21,14.94" transform="translate(-1.69 -2.14)"/><path class="cls-4" d="M393.59,247.34c7.81-.16,15.92-1.89,23.73-2.42,1.22-.09,6.21-.2,6.91-1.42s-.21-3.65-.54-4.83c-.41-1.51-1-12.3-1-12.3l-.68-3.49s-1.1.06.49,0" transform="translate(-1.69 -2.14)"/><path class="cls-4" d="M422.5,222.31c3.81-1,6.08.45,9.9-.15,6-.93,21.91-7,23.27-13.8" transform="translate(-1.69 -2.14)"/><path class="cls-4" d="M445.25,183.24c3,4.52,12.69,18.59,10.63,24.76" transform="translate(-1.69 -2.14)"/><path class="cls-4" d="M395,179.39c10.54-9.43,26.22-2.76,37.8-1,3.92.6,12.31,4.59,12.31,4.59" transform="translate(-1.69 -2.14)"/><path class="cls-4" d="M385.56,166.36s2.57-.58,7.23.51c7,1.64,12.72,10.88,18.86,11.91,14,2.33,27.53-3.24,41.38-1.46,4.15.54,10.25,4.61,10.25,4.61" transform="translate(-1.69 -2.14)"/><path class="cls-4" d="M463.23,181.9s3.15,3.78,4,6.09a43.41,43.41,0,0,1,2.66,16.55c0,1.28.83,5.94-.08,7-2.26,2.5-15.24,3-19.23,3.76" transform="translate(-1.69 -2.14)"/><path class="cls-4" d="M435,178.11c4.4-1.46,8.63-6.94,12.1-10,1.7-1.49,3.18-4.89,5.52-5.28,4.62-.77,7.22,4.7,9.74,7.63,5.63,6.58,13,11.15,18.43,18.08,4.9,6.3,4,15.29,1.65,22.43a22.35,22.35,0,0,1-3.52,7.16c-1,1.13-3.51.76-3.17-1,1.14-6.3,17.58-15.78,22.66-19.26,5.61-3.84,16.67-10.33,16.67-10.33l20-11L562.32,159s16.64-9.64,25.12-13.74c2.55-1.23,4.82-3.15,7.52-4.11.55-.2,3.66-.58,2.93-.82" transform="translate(-1.69 -2.14)"/><path class="cls-4" d="M455.08,161.65c4.63-4.63,10.27-8.55,15.26-12.83,10.65-9.13,21.22-18.29,32-27.28,12.37-10.31,24.08-21.1,37-30.79,7.17-5.38,13.94-11.73,21.88-15.94,2.74-1.45,6.33-4.59,9.73-3.92,2.82.57,4,6,3.78,8.24-1.62,13.75-.6,26.3,4.45,39.44,2.81,7.3,5.81,12,11.62,17.15.29.26,6.89,4.46,6.89,4.46" transform="translate(-1.69 -2.14)"/><path class="cls-4" d="M368,172c1.92-2.38,2.57-5.38,4.21-7.42" transform="translate(-1.69 -2.14)"/><path class="cls-4" d="M371,164.71c.51-8.45,4.58-11.86,12.41-14.22,2.54-.77,8.73-1.08,10.49-3.16" transform="translate(-1.69 -2.14)"/><path class="cls-4" d="M79.76,322.57c7.22-5.43,21.31-6.86,30-10,18-6.52,35.81-13.39,52.34-23.09,3.39-2,21.93-10.25,16.27-16.1-4.19-4.32-11.86-6.21-17.34-8.31-9.88-3.8-19.15-7.84-29.43-10.59-3.46-.92-20.18-3.81-22.21-6.52" transform="translate(-1.69 -2.14)"/><line class="cls-5" x1="78.05" y1="320.53" x2="174.38" y2="323.77"/><path class="cls-4" d="M174.22,325.84c.69.27,1.9-.39,2.14.53.34,1.32-4.09,7.9,1,7.52" transform="translate(-1.69 -2.14)"/><line class="cls-6" x1="174.98" y1="331.74" x2="520.16" y2="332.49"/><line class="cls-5" x1="39.55" y1="328.96" x2="196.13" y2="327.87"/><path class="cls-4" d="M197.33,329.91c2.29,1.14,12.47.49,12.47.49s10,1.41,13.34-1.12c1.65-1.23,2-6.23,2-6.23V312.82l.82-10.73s.06.25,0,.06a18.92,18.92,0,0,0-3.4-.18c-3.21,0-6.54.07-9.73-.25-5.68-.57-10.78-1.07-16.46-.5-1.12.11-5.22.34-5.86,1.62-.32.64,0,2.5,0,3.12-.25,5.53-.14,10.45,0,16,.09,3.42,1,4.92,3.25,5.43s2.31-5.7,2.37-7c.24-5-2.56-19.8,1.5-22.95,3.4-2.65,16.22-1.17,21.08-.56,2.92.36,9,2.37,10.74-.78.77-1.39.75-12.69.75-12.69s1.76-10.91.49-12.78c-1.94-2.87-15.48-2-15.48-2s-15.87-1.11-18,.74c-1.56,1.33-1.14,5.34-1.28,7.24-.33,4.29-.39,10.73-.39,10.73s.23,4.78,1,6.55c.46,1.08,3.94,1.42,4.94,1.76" transform="translate(-1.69 -2.14)"/><path class="cls-4" d="M227.45,297.93a182.34,182.34,0,0,0-.61,21.8c0,.29-.11,12,1.18,9.93" transform="translate(-1.69 -2.14)"/><path class="cls-4" d="M228.18,329.84c11.18,1,32.62-.45,32.62-.45" transform="translate(-1.69 -2.14)"/><path class="cls-4" d="M261.53,328.81c1.16-1.89,1.22-5.14,1.24-7.37,0-3.72.59-19.88-1.67-22.58" transform="translate(-1.69 -2.14)"/><path class="cls-4" d="M260.81,298.65a105.43,105.43,0,0,0-20.56.45c-9.25,1.14-3.62,2.8,1.78,3.09h2.2c1.62.09,3.17.51,4.79.57,11.63.45,23.34-2.87,35-2.62,2.07,0,10.88-1.28,12.35-.37" transform="translate(-1.69 -2.14)"/><path class="cls-4" d="M266.28,296.65c-.25,2.82.74,6.52.92,9.46.28,4.62-2.25,19.18,1.83,22.46,3.24,2.6,8.07.61,11.82.6,2,0,14,.23,15-.43,6.82-4.74,2.65-19.76,1.76-26.54a4.31,4.31,0,0,0-.91-2.19" transform="translate(-1.69 -2.14)"/><path class="cls-4" d="M246.37,269.91c0,6.9-1.57,13.8-1.11,20.71,0,.63.26,6.4,1.43,5.81" transform="translate(-1.69 -2.14)"/><path class="cls-4" d="M246.77,296.43c.31-.61,4.37-.19,5.26-.24,4.74-.26,9.64.24,14.41.24" transform="translate(-1.69 -2.14)"/><path class="cls-4" d="M246.37,269.75s1.9-.17,2.47-.24a105.24,105.24,0,0,1,11.23-.24c4.34,0,19.23-1.87,22.54,1.44,5.39,5.39,3.58,14.73,2.46,21.42-.38,2.29-1.72,2.45-3.82,2.87-.24,0-2.9.4-2.63.95,1,2,8.7-.08,10.52-.08" transform="translate(-1.69 -2.14)"/><path class="cls-4" d="M288.39,267.4c-1,9.5,1.51,19.05.49,28.46" transform="translate(-1.69 -2.14)"/><path class="cls-4" d="M288.46,267.13s5.94.33,8.12.31c4.85,0,10-.11,14.83-.48,2.56-.19,6.55-1.36,8.33,1.3,2.94,4.41,1,11.87,1.31,16.76.16,2.46.6,6.79-.27,9.15-.48,1.32-4.39,1.13-5.5,1.41-4.52,1.14-9.7,2.24-14.35,1.89-.95-.07-3.45.12-3.69-1.28-.53-3,10.59-4.72,12.33-1.06,3.64,7.62,3.4,18.83,2.92,27.07-.05.87.51,4.87,0,5.62s-7,1-4.35,1.91,8.91.32,8.91.32l18.17.43s5.73.19,6.38-.67c1.72-2.26.9-19.22.9-19.22s-.07-8.67-.76-9.53c-1.9-2.35-15.53-1.08-16.9-2.78-.24-.29,1.81-.63,1.93-.67,2.12-.72,5.4-.13,7.62-.21,2.51-.09,14.27-1.21,15.79,1.7" transform="translate(-1.69 -2.14)"/><path class="cls-4" d="M350.67,300c0,10.12-.29,18.91-.29,29" transform="translate(-1.69 -2.14)"/><path class="cls-4" d="M350.38,328.84s6.34-.24,7.9-.28c6.16-.17,12.31-.27,18.45-.48.54,0,6,.3,6,.1" transform="translate(-1.69 -2.14)"/><path class="cls-4" d="M383.11,296.5c.42,0,.42,6,.38,7.42-.19,5.86,0,11.75-.38,17.6-.09,1.48,0,6,0,6" transform="translate(-1.69 -2.14)"/><path class="cls-4" d="M382.92,296.41s-6.51.82-7.42.85c-4.26.16-8.83-.5-13,.1-.08,0-4.9.82-4.37,1.52,1.3,1.73,8,.85,9.61.95,8.11.53,23.3,1.43,23.3,1.43" transform="translate(-1.69 -2.14)"/><path class="cls-4" d="M391.67,301.45c1.18,5.93.14,12.85.38,18.93.06,1.62.09,8.85.09,8.46" transform="translate(-1.69 -2.14)"/><path class="cls-4" d="M392.33,329.51c0,.46,3.81.24,4.76.28,5.34.26,10.66-.68,16-.28,1.38.1,9.86-.44,8.56-.76" transform="translate(-1.69 -2.14)"/><path class="cls-4" d="M421.63,300c0,6.57.28,13.14.28,19.69,0,2.87.38,5.7.38,8.56,0,.45.13.38-.19.38" transform="translate(-1.69 -2.14)"/><path class="cls-4" d="M391.25,271.51c-.4,0-.16,3.86-.13,4.44.27,5,0,10,0,15v6.92" transform="translate(-1.69 -2.14)"/><path class="cls-4" d="M391.12,298.07c4.31-.72,8.8.31,13.1.62,5.21.37,11.84-1.31,16.68,1.11" transform="translate(-1.69 -2.14)"/><path class="cls-4" d="M352.94,269.53c10,0,20-.28,30,0,.52,0,8.83.5,8.28,1.6" transform="translate(-1.69 -2.14)"/><path class="cls-4" d="M352.82,269.78c-.76,1.51-.18,3.37-.13,5.06.19,5.65,1.24,11.31,1.24,16.93" transform="translate(-1.69 -2.14)"/><path class="cls-4" d="M353.81,291.89c-.17-.08,4.32.22,5.19.25,2.83.1,5.69,0,8.52,0,9.57,0,19.37-.25,28.79-.25" transform="translate(-1.69 -2.14)"/><path class="cls-4" d="M395.94,272c0,6.35.25,12.69.25,19" transform="translate(-1.69 -2.14)"/><path class="cls-4" d="M396.3,271.65c1.35-1.35,4-.85,5.94-.85,6.34,0,12.77.75,19,.75" transform="translate(-1.69 -2.14)"/><path class="cls-4" d="M421.52,271.51c.8,2,.22,4.28.25,6.42.05,4.08.37,8.15.37,12.23v5.32c0,.53-.07,2.73.12,2.35" transform="translate(-1.69 -2.14)"/><path class="cls-4" d="M422.26,298.2c1.44-.48,5.1-.2,6.68-.25,7.77-.24,18.11-.51,25.57,2,2.67.89,2,8.15,2,8.15" transform="translate(-1.69 -2.14)"/><path class="cls-4" d="M427.67,295c0,8.29-.17,17,.38,25.29.14,2.13-.45,6.12.48,8" transform="translate(-1.69 -2.14)"/><path class="cls-4" d="M428.72,328.7c2.94,1.47,7,.87,10.2.87a54.11,54.11,0,0,0,6.73-.48,83.67,83.67,0,0,0,10.77-2s.58-8.74.29-10.2a68.59,68.59,0,0,1-.19-8.36" transform="translate(-1.69 -2.14)"/><path class="cls-4" d="M428.23,294.08c9-1,18.77-1.59,27.6.33" transform="translate(-1.69 -2.14)"/><path class="cls-4" d="M456.41,293.84c-.59-5.44.36-16.76.36-16.76l.5-9.5" transform="translate(-1.69 -2.14)"/><path class="cls-4" d="M431.38,267.72c6.87-.74,19.87-.38,19.87-.38s4.51.74,5.38.19" transform="translate(-1.69 -2.14)"/><path class="cls-4" d="M431.25,267.72c-1.72,2.14-1.7,19.63-1.27,23.61" transform="translate(-1.69 -2.14)"/><path class="cls-4" d="M270.38,237.7c0,6.85-2.47,20.88-.29,27.41" transform="translate(-1.69 -2.14)"/><path class="cls-4" d="M270.22,265.16s10.37-.33,12.43-.33H321.2" transform="translate(-1.69 -2.14)"/><path class="cls-4" d="M321.23,265.15c-.39,1.16.81,4.62.89,5.63.38,4.64.45,9.27.84,13.9.17,2.12,1,8.69,1,8.49" transform="translate(-1.69 -2.14)"/><path class="cls-4" d="M324.1,293.27c3.53,0,10.81-.24,10.81-.24s8.09-.42,12-.42c.47,0,6.94-1.13,6.81-1.53-.38-1.14-5.28-.8-6-.83-4.36-.18-8.75-.7-13.07-.7-1.07,0-7.31-.38-7.23-.42" transform="translate(-1.69 -2.14)"/><path class="cls-4" d="M324.85,236.65c.82,2.47,1.08,11.37,1.17,14.11.25,8.39-.28,16.9-.28,25.31,0,3.24,0,9.91,1.48,12.87" transform="translate(-1.69 -2.14)"/><path class="cls-4" d="M270.52,237c2.38-1.78,14.74-.72,18.64-.42s8.27-.83,12.38-.83c7.71,0,15.5.83,23.08.83" transform="translate(-1.69 -2.14)"/><path class="cls-4" d="M270.65,207c.15-.42.23,2.32.2,2.84-.07,1.53-.19,3.07-.22,4.6-.09,5.39.06,10.86.31,16.24.05,1.15-.15,4.51,1.78,4.26" transform="translate(-1.69 -2.14)"/><path class="cls-4" d="M278.13,204.23c2.3-1.11,13.8-.94,17-.32.79.16,4.34,2.06,4,3" transform="translate(-1.69 -2.14)"/><path class="cls-4" d="M299.25,207c.68,5.3-.63,11.18-1,16.5-.53,8.36-1.21,16.92-.48,25.27.3,3.4-.07,3.86.32,7.84,0,.15.38,6.5.63,6.47,1.41-.18,1.79-8.73,1.86-9.48.5-5.5.35-10.94.89-16.41a15.52,15.52,0,0,0-.09-2.89" transform="translate(-1.69 -2.14)"/><path class="cls-4" d="M273,234.32c2.63-.89,5.52-.33,8.23-.33,4.83,0,9.65-.35,14.46-.4,1.93,0,3.88.64,5.8.39" transform="translate(-1.69 -2.14)"/><path class="cls-4" d="M354.86,268.47a100.41,100.41,0,0,1,0-15.12c.23-3.66.49-7.61,1.06-11.64" transform="translate(-1.69 -2.14)"/><path class="cls-4" d="M356.09,241.38c2.62-.08,7.31-.41,7.31-.41s21.81-2.8,22.46,4.27" transform="translate(-1.69 -2.14)"/><path class="cls-4" d="M385.77,244.55c.84,2.38,1.13,8.47,1.13,8.47s1.14,10.38-1.65,13.25c-.78.81-6.06.66-6.06.66s-12.58-.71-16.5,4c-2.33,2.81-3.37,3.66-3.52,7.1,0,.46.05,9.23-.34,9.27-1,.09-2.14-5.11-2.17-5.42-.65-5.26-1.3-8-1.78-13.24" transform="translate(-1.69 -2.14)"/></g></g></g></g></svg>