<svg xmlns="http://www.w3.org/2000/svg" xmlns:xlink="http://www.w3.org/1999/xlink" viewBox="0 0 442.04 271.2"><defs><style>.cls-1,.cls-5{fill:none;}.cls-2{isolation:isolate;}.cls-3{clip-path:url(#clip-path);}.cls-4{clip-path:url(#clip-path-2);}.cls-5{stroke:#000;stroke-linecap:round;stroke-linejoin:round;stroke-width:2.84px;}</style><clipPath id="clip-path" transform="translate(-1.43 -2.09)"><rect class="cls-1" width="447" height="276"/></clipPath><clipPath id="clip-path-2" transform="translate(-1.43 -2.09)"><rect class="cls-1" x="-111" y="-88.35" width="841.99" height="595.35"/></clipPath></defs><g id="Layer_2" data-name="Layer 2"><g id="Layer_1-2" data-name="Layer 1"><g class="cls-2"><g class="cls-3"><g class="cls-4"><path class="cls-5" d="M2.85,263.42c0-.08,33-.27,36.82-.27,1.06,0,8.83.14,9-.27,4.18-10.47,1.63-38.18,8.18-50.46,2.38-4.45,22.71-2.28,22.71-2.28l31.86-3.69s24.06-5.35,19.61-3.57" transform="translate(-1.43 -2.09)"/><path class="cls-5" d="M131.58,202.56c6.24,3.12,3-17.68,3-17.68s-7-36.28-9-54.27c-3-26.7-10.74-52.91-15.55-79.37-.71-3.92-5-25.44-7.64-27-2.3-1.38-18.81-3.07-18.81-3.07L55.15,12.82,17,3.51s1.34,12.57,2.5,13.73,3.41.76,5.14,1.27c15.7,4.71,33.82,8.21,33.82,8.21l30.27,7.07s8.45,3.63,7.09,2.72" transform="translate(-1.43 -2.09)"/><path class="cls-5" d="M20.44,16.29l4.77,39.59,9.53,81.27,5.77,41.71s4.61,23.73,4.61,30.84" transform="translate(-1.43 -2.09)"/><path class="cls-5" d="M46.21,210.24c-2.44-1.22,4.73-.93,7.37-1.63a74.17,74.17,0,0,1,18.54-2.19c17.83,0,35.62-4.91,53.46-4.91" transform="translate(-1.43 -2.09)"/><path class="cls-5" d="M125.3,202.06c6.54,13.07,6.59,32.78,8.19,47.18.53,4.83,1.58,9.65,2.18,14.46.1.83,1.54,7.87.82,7.63-2.08-.69-3.62-12-4.1-13.91-1.3-5.21-6.64-43.14-10.9-45.27" transform="translate(-1.43 -2.09)"/><path class="cls-5" d="M96.67,267.24c0-13,1.41-30.64,1.41-30.64s-.72-19.94,2.46-23.13c2.8-2.8,17.62-1.52,21.49-.23" transform="translate(-1.43 -2.09)"/><path class="cls-5" d="M57.39,264.79c0-12.83-3.39-32.9,3.55-44.46,1.15-1.92,30-8.71,30.82-3.27,2.06,14.05,1.94,21.77,1.94,21.77s-.39,25.79,1.6,29.78" transform="translate(-1.43 -2.09)"/><path class="cls-5" d="M115.85,93.88c.24.36,5.1,1.76,6,2.42,3.12,2.21,5.5,5.81,8.74,7.73,7.79,4.63,29.38-2,38.38-3" transform="translate(-1.43 -2.09)"/><path class="cls-5" d="M115.52,92.56c-1.76,1.14-3.8,3.86-5.41,5.21a.62.62,0,0,0-.15.4c-.26,1.93,2.38,4.56,3.18,6.21,2.93,6.05,11,18.24,18,20,3,.77,5.7.41,8.76.32,2.37-.08,5.36-.5,7.76-.76,1.44-.15,4.46-.9,5.73-.43" transform="translate(-1.43 -2.09)"/><path class="cls-5" d="M153.13,123.35c-3,13.85-2.67,27.94-3.36,42-.14,2.84-1.37,9.7.75,12.24.27.33,1.71-6.75,1.9-7.33,1.55-4.88,3.69-9.61,5.37-14.45,0-.11,2.73-7.26,3.19-6.12,1,2.52-3.16,15.15-4.22,18-.26.7-2,4.15-1,4.92,2.36,1.9,6.11-.19,7.67,3.22.76,1.67,1.07,8.15,1.05,8" transform="translate(-1.43 -2.09)"/><path class="cls-5" d="M165,185.05c3.8-.42,4.66-4.7,7.67-5.65,3.84-1.21,6.46.38,10.23.24,2.91-.1,4.77-.37,7.55.34a28.07,28.07,0,0,0,2.9.07" transform="translate(-1.43 -2.09)"/><path class="cls-5" d="M196.35,129.47c1.14,10.49-2.38,21.23-2.74,31.68-.15,4.62-.8,9.19-1,13.79-.07,1.47.47,3.41-.06,4.82" transform="translate(-1.43 -2.09)"/><path class="cls-5" d="M195.62,131.66c1.71,1.38,1.35,4.2,1.66,6.37.87,6.17-.65,18.4,6.91,21.21,6,2.23,15.78-9.51,18.75-13.58,1.05-1.44,3.81-3.62,2.85-5.7" transform="translate(-1.43 -2.09)"/><path class="cls-5" d="M188.55,101.81c1.71,3.22,4.57,4.58,6.57,7.38,1.11,1.55,1.47,3.58,3.2,4.66,2.25,1.4,6.16,2.85,7,5.79a67.13,67.13,0,0,1,2.6,15.13c0,1.38-.92,5.69.34,6.7,3.56,2.86,11.52-9.87,12.67-9.27,2.13,1.11,1.63,6.29,3.17,7.94,4.26,4.56,5.43-4.09,3.3-6.9-3.32-4.39-2.85-.49-5.09-.8-.2,0-.6-.51-.66-.7-.76-2.43,4.37-10.54,6.92-9,.54.32.81,5.69,1.89,5,2.84-1.83,2.92-6.3,6.07-8,.07,0,.57-.45.74-.27,5.12,5.48-5.06,18.61-8.82,21.75" transform="translate(-1.43 -2.09)"/><path class="cls-5" d="M108.38,97.76c-1.29-2,.37-6.89-1.33-8.71-1.29-1.38-5.87-3.33-4.34-6.27.35-.67,1.21,0,1.57.21,2.07,1.32,4.12,9.33,6.28,8.18,4-2.09,3.09-9.6,1.13-12.64-.89-1.39-2.42-1.9-3.41-3.09-1.44-1.73-4.69-4.53-6.83-2.54-3,2.84,7.53,3.61,2.6,9.73" transform="translate(-1.43 -2.09)"/><path class="cls-5" d="M86.4,65.48c4.32,3.47,8.11,6.75,12.13,10.63,1.5,1.45,3.26,2.11,3.92,4.19,0,0,1,2.3.86.87" transform="translate(-1.43 -2.09)"/><path class="cls-5" d="M131,105.53c-.76,2,0,4.76-.4,7-.27,1.39-2.48,4.78-1.09,2.43" transform="translate(-1.43 -2.09)"/><path class="cls-5" d="M154.41,104.92c2.67,4.16,2.43,7.81,1.15,12.39" transform="translate(-1.43 -2.09)"/><path class="cls-5" d="M197.48,113.17c1.52-1-.74,7.44-.85,6.44" transform="translate(-1.43 -2.09)"/><path class="cls-5" d="M169.65,99.81c3.61-.39,4.3,9,6.69,10.25.81.42,10.81-7.82,11.4-8.55" transform="translate(-1.43 -2.09)"/><path class="cls-5" d="M168.21,100.73c0,.26-1.7,9.76-1.64,9.81,2.44,2,6.65-1.35,6.78,3.89.36,14.89-5.55,29.6-7.55,44.15-.32,2.3-1.22,17,2.08,17.49,5.58.77,4.25-7.88,5.47-11.76,4.12-13.11.72-26.62,2.82-39.79.33-2,1.2-10.43,3.44-11,2.69-.64,4.73.66,7.1,1.54.19.07.43.25.59.13.37-.28,2.52-10.48,1.57-10.38" transform="translate(-1.43 -2.09)"/><path class="cls-5" d="M149.41,179.8c1.43.53.37,3.64.26,4.21-1,5.37-2.14,10.72-3.07,16.12-2.93,17-4.54,35.49-.87,52.48A135.23,135.23,0,0,1,148,266c.06.58-.2,1.76.38,1.69.19,0-.59-1.47.21-1.56" transform="translate(-1.43 -2.09)"/><path class="cls-5" d="M150.73,184.86c3.27,2.63,4.94,11.35,4.37,15.51-.39,2.81-2.57,4.21-2.47,7.39.12,4.05,5,6.94,6.35,10.68,3.37,9.14,3.58,19.55,5.07,29.1.8,5.08,1.69,10.26,2.24,15.36.07.66.09,4.73.92,4.91s.89-3.82.9-4.14c.1-4.1-.44-8.17-.56-12.27-.24-8.79-1.14-17.62-1.51-26.41-.18-4.5,1.43-9.28.45-13.72-.36-1.6-2.54-2.93-3-4.87s1.13-8.05,4.1-6.61c6.94,3.36,4.94,15.38,5.2,21.39.46,10.66.07,21.23.56,31.91.2,4.45.17,11,3.68,14.43,3.9,3.78,10.77,2.85,15.59,3.52" transform="translate(-1.43 -2.09)"/><path class="cls-5" d="M193.54,185.43c2.37,21.92-.41,44.26,2,66.23.51,4.64,3.41,18.5-3.5,19.25" transform="translate(-1.43 -2.09)"/><path class="cls-5" d="M151,183.67c4,1.5,9.54-1.94,13.83-.34" transform="translate(-1.43 -2.09)"/><path class="cls-5" d="M167,183.87c6-.65,13.94.43,19.83,1.71.42.09,4.63.87,4.73,1,.28.44-3,2.85-3.33,3.06-1.43.92-10.4,1.72-9.74,4.33.48,1.87,10.31,2.33,12,3.9,2.48,2.34-.08,6.37.21,9" transform="translate(-1.43 -2.09)"/><path class="cls-5" d="M57.56,265.86l19.75.74,17.87.52,20.61.12,16.09.8a127.06,127.06,0,0,0,14.87-1" transform="translate(-1.43 -2.09)"/><path class="cls-5" d="M176.29,70.66c.37,2.81.12,6.12-1.89,8.41-2.45,2.79-6.78-1-3.81,6.5,1.7,4.29,4.95,13.87,9.45,16.08,2.21,1.09,6.37-2.91,7.24-4.45,3.92-7,7.54-13.58,6.45-21.84" transform="translate(-1.43 -2.09)"/><path class="cls-5" d="M170.24,75.29c3.66-4.76,8.51-11.15,15-7.63,3.7,2,5.57,2.67,7.36,6.52.49,1.07,1.5,3.82,1.5,3.8" transform="translate(-1.43 -2.09)"/><path class="cls-5" d="M169.07,75.28c1.31-11.36,7.72-17.9,18.55-10.94,1.73,1.12,3.57,1.5,4.91,3.19.92,1.15,3.26,10.06,2,10.22" transform="translate(-1.43 -2.09)"/><path class="cls-5" d="M170.62,99.72a19.34,19.34,0,0,0,2.76-4.36" transform="translate(-1.43 -2.09)"/><path class="cls-5" d="M191.92,180.91c-.13-1.21.61,1.75.64,2,.14,1.29.54,3.42.08,4.64" transform="translate(-1.43 -2.09)"/><path class="cls-5" d="M195.57,204.65c5.93-.81,12.52.36,18.47,1,7.35.8,15.56.06,23-.22,3.7-.13,9.48.9,12.9-.79" transform="translate(-1.43 -2.09)"/><path class="cls-5" d="M204,208.62c-.53,1.55-.08,3.66-.25,5.35a14.89,14.89,0,0,0-.27,3.78c.37,5.21,5-.74,7.38,3.52,1.49,2.61,1.78,14.56,1.68,17.89-.24,8.57-1.77,17-1.81,25.47,0,3,2.65,6.81,5.8,4.92,3.47-2.09,2.21-9.57,2-12.88a143.46,143.46,0,0,1-.25-21.84c.41-5,3.05-9.61,3.94-14.33" transform="translate(-1.43 -2.09)"/><path class="cls-5" d="M222.27,219.7c2.89-2,15.13-.45,19.41-.71,10.76-.64,21.51-.32,32.3-.11,5.64.11,12.12,1.49,17.64.73" transform="translate(-1.43 -2.09)"/><path class="cls-5" d="M204,208.42c3.77-1.51,7.79-.7,11.69-1,8-.66,15.83,0,23.79-.33,7.08-.26,13.85,1.31,20.92,1.66,8.56.41,17.18-.5,25.76-.4,11.78.14,24.26,1.78,35.89.18" transform="translate(-1.43 -2.09)"/><path class="cls-5" d="M287,220.44c-14.16,7-32.79,1.26-46.16,9.7-7,4.41-11.39,13.79-15.06,20.8-1.84,3.5-6.92,10.64-5.43,14.93,1.06,3.07,8.41,2.52,11,3,2,.37,7.75,2,9.52.46,2.64-2.34,3.53-7.28,5.08-10.35a58,58,0,0,1,12.59-17.3c3.52-3.33,8.26-5.21,12.6-7.25,1.22-.58,5.76-3.63,4.9-3" transform="translate(-1.43 -2.09)"/><path class="cls-5" d="M248.68,255.47c.4-1.19.18,2.53-.08,3.75-.54,2.55-3.54,7.52-2.75,10,.47,1.51,12.3,1.28,12.3,1.28s4.9-.07,9.5-.34c1.84-.11,7.8.41,9.31-.53,2.71-1.67,2.13-7.91,2.59-10.37.13-.72-.23-2.38.59-2.84,1.25-.71,4.33-.25,5.83-.61,4.58-1.1,16-3.14,19.49-5.84,4.36-3.35,3.83-9.65,4.93-14.27.21-.85,2.41-7.75.3-5" transform="translate(-1.43 -2.09)"/><path class="cls-5" d="M273.52,251.26c.86.82,6.45,7.05,6.62,6.58" transform="translate(-1.43 -2.09)"/><path class="cls-5" d="M318.49,211.57a53.79,53.79,0,0,1-1.38,7.09c-.47,1.86-.78,8-2.48,9.21-2.21,1.51-11.14-.44-14.19,0" transform="translate(-1.43 -2.09)"/><path class="cls-5" d="M249.52,204.14c3-2.91,3.34-10.4,4.29-14.64,1.86-8.35,6.92-25.43,13.13-31,1.31-1.18,11.17-10.3,12.5-8.76,2.42,2.83-4.24,7.9-5.5,9.75-.17.24-1.58,2.47-1.33,2.73,1.06,1.11,8.11-2.25,9.83-.69,2.42,2.21,1,6.94.61,9.52-1.12,7.3-3.32,14.24-4.9,21.29" transform="translate(-1.43 -2.09)"/><path class="cls-5" d="M278.92,192.8c.3,1.23,1.47,2.06,2.19,3.09.54.77,6,9.21,7,6.19,1.24-3.75-.24-8.06-.23-11.9,0-5.8,0-11.56.41-17.38.19-2.78-.1-8.87,3.48-9.76" transform="translate(-1.43 -2.09)"/><path class="cls-5" d="M289.8,156c1.83-1.06,3.12,9.68,4.89,8.82,2.39-1.17,5.93-13.61,6.59-16.58.19-.84,1.17-4.09.47-4.67a.55.55,0,0,0-.28-.06c-.68,0-7.84,8.57-9.29,9.91C291.8,153.8,289.14,156.41,289.8,156Z" transform="translate(-1.43 -2.09)"/><path class="cls-5" d="M253.25,197.18c3.83-2.43,19.59-9.48,22.18-1.69.42,1.25-2.36,2.78-2.21,3.41.39,1.53,5.89,1.18,5.84,3.61,0,1.75-3.07,1.62-4.1,1.54-4.46-.35-9.42-.91-13.82-.2a24.49,24.49,0,0,1-7-.3c-.56-.13-3.74-.67-3.26-.79" transform="translate(-1.43 -2.09)"/><path class="cls-5" d="M264.44,193.61c.32,3.1-1.08,6.38-.35,9.31" transform="translate(-1.43 -2.09)"/><path class="cls-5" d="M275.06,193.24c1.52,0,3-.25,4.54-.28" transform="translate(-1.43 -2.09)"/><path class="cls-5" d="M279.09,203.67c1.72-1.09,3.9-.86,5.73-1.75" transform="translate(-1.43 -2.09)"/><path class="cls-5" d="M281.39,194.65c.55-.67,4.88-.27,5.4-.23" transform="translate(-1.43 -2.09)"/><path class="cls-5" d="M289.71,194.92a7.87,7.87,0,0,1,4.44.13c.34.11.19.7.2,1.06.06,1.18-5.12,6.51-.94,7.44,1.79.4,3.66-6.52,5.35-7.76,2.92-2.15,7.32,1.68,9.84-1.41" transform="translate(-1.43 -2.09)"/><path class="cls-5" d="M308.22,194.15c-.07.32-.05-2.47,0-3,0-2.31.18-4.59.23-6.88.14-6,.37-13.78,2.35-19.55,1.28-3.74,4.21-5.18,7.81-5.91,1.05-.21,6.08.07,4.12,1.64" transform="translate(-1.43 -2.09)"/><path class="cls-5" d="M288.4,204c7.75,1.73,20.51,7.24,28,1.2,2.19-1.76,2.59-4.87,4.3-7" transform="translate(-1.43 -2.09)"/><path class="cls-5" d="M323.08,159.92c-.6,2.71.27,5.77.12,8.55-.43,7.89-.84,15.79-1.11,23.72-.06,1.61-.1,8.47-2,8.94" transform="translate(-1.43 -2.09)"/><path class="cls-5" d="M323.31,159.54c-.28,12.65,1.38,25.43.18,38-.15,1.5-.59,10.6-2.32,11" transform="translate(-1.43 -2.09)"/><path class="cls-5" d="M299.21,140.73c.87,3.48,5,5.08,7.79,6.5,7.21,3.62,14.13,5.76,16.66,14" transform="translate(-1.43 -2.09)"/><path class="cls-5" d="M287.54,132.2c-1.33-.8-1.69-2.49-2.65-3.62-.43-.5-2.12-1.14-2.16-1.35-.43-2.68.81-6-1-8.46-1-1.35-4-4.82-6-2.34-4,4.95-7.2,24.35-1.33,28.58,2.87,2.07,7,.3,9.7,2.46,1.67,1.36,1.34,16.12,5.88,10.55" transform="translate(-1.43 -2.09)"/><path class="cls-5" d="M288,132.16c5.17-10.3,5.72,4.17,6.6,6.67.46,1.29,4.41,4.17,5,1.68" transform="translate(-1.43 -2.09)"/><path class="cls-5" d="M298.51,141.29c5.84-5.59,10.88-26.15,2.17-31.71-4.81-3.08-16.1-3.45-21.37-1.31-2,.8-5.6,1.08-7.26,2.13-1,.66.28,3,1.4,2.77" transform="translate(-1.43 -2.09)"/><path class="cls-5" d="M272.83,114c10,.22,23.45-6.31,25.05,9.35.19,1.81,1.08,3.73.79,5.52-.57,3.53-1.56,7-2.33,10.45" transform="translate(-1.43 -2.09)"/><path class="cls-5" d="M334.19,213.74c-3.36.47-5.17.09-7.91,2.36-5.8,4.81-8.72,28.57-10.68,35.93-1.23,4.61-2.9,18.12-2.9,18.12s10.64,2.54,13.11.79c4-2.82,4.25-10.09,5.74-14.49,1.41-4.17,4.09-9,5.5-12.95" transform="translate(-1.43 -2.09)"/><path class="cls-5" d="M338.07,244.66c.58,2,13.94,10.16,17.27,11.28,17.82,6,36.68,10.92,55.55,6.13,6.94-1.77,16.83-4.12,21.26-10.46.5-.71,4.1-5.94,3.39-6.48" transform="translate(-1.43 -2.09)"/><path class="cls-5" d="M333.44,213.55c-.56-.42,8.22-.09,9.36,0,2.11.11,9.13.17,11.22,1.17,2.31,1.1-.34,3.23,1.1,5.13,7.11,9.36,6.17,20.75,10.87,30.82,2.86,6.13,6.25,7.53,7.59.32" transform="translate(-1.43 -2.09)"/><path class="cls-5" d="M373.66,251.51c-1.07,5.78-1.93,16.25,4.08,20.26.78.52,1.24-1.08,1.38-1.57.92-3.16.72-7.49,2.11-10.36,2.28-4.73,13.39-6.89,18-7.42,4.39-.51,25.63-3.38,28-.63,3,3.51-2.62,15.19,2.74,17.64,2.53,1.15,3.41-4.13,3.75-5.5.41-1.63,1.21-17.05.46-18.14" transform="translate(-1.43 -2.09)"/><path class="cls-5" d="M384.53,151.3c-15.19,3.22-12.44,15.93-13.21,26-1.38,18-.81,36.63-.35,54.72.12,4.65,2.43,9.36,2.4,13.71" transform="translate(-1.43 -2.09)"/><path class="cls-5" d="M373.18,243.8c-1.84,7.12,12.8,5.58,16.27,5.25,9.51-.92,20,.66,29.32-1.33,6.2-1.33,12.33-3.72,18.4-5" transform="translate(-1.43 -2.09)"/><path class="cls-5" d="M383,151.73s21.5-8.54,34.76-6.37c4.45.73,10.34.76,14.45,2.86,1.72.88,6,2.81,6.23,4.93.07.5.4.68-.21.82" transform="translate(-1.43 -2.09)"/><path class="cls-5" d="M439.22,153.09s.53,3.29.85,4.42c1.46,5.23.38,10.88,1.12,16.24,2.09,15-.37,31,.13,46.11.27,7.94.71,17.6-4.52,23.62" transform="translate(-1.43 -2.09)"/><path class="cls-5" d="M373.14,250.26c-.5.12-3.26-4.62-3.82-5.5a47.51,47.51,0,0,1-7-17.33c-3.7-17.74-.62-37.54-1.06-55.59,0-1.27,1.08-16.11-.54-16.48-1.32-.29-1.51,4.66-1.55,5.11-.56,5.48-.64,11-1.28,16.48-.53,4.6-.56,9.14-.86,13.74-.57,8.89.2,18.92-1.72,27.49" transform="translate(-1.43 -2.09)"/><path class="cls-5" d="M338.75,153.26c.71,1.86-.52,11,.89,11.31" transform="translate(-1.43 -2.09)"/><path class="cls-5" d="M335,177.33c1.47-6.82,6.39-15.14,9.5-21.44,6.54-13.27,5.9-24.65,22.64-27.9,2.75-.54,5.89-1.81,8.69-1.77,8.73.14,20-2.45,28.41.68,2,.73,12.91,8.3,13.35,7.55" transform="translate(-1.43 -2.09)"/><path class="cls-5" d="M415.37,133.56c5.43,2.37,8,6.64,8.65,12.41" transform="translate(-1.43 -2.09)"/><path class="cls-5" d="M361.56,167.89c2.65-12.27,22.7-24.36,34.51-24.73,2-.07,17.2,2.06,17.45,1.75" transform="translate(-1.43 -2.09)"/><path class="cls-5" d="M339.21,157c.83-3.86.14-14.69-1.22-18.7-.15-.44.27-1.24-.29-1.48-1.2-.52-5.06,6.35-6.72,3-1.08-2.16-3-16.62-5.33-16.54-2,.06-2.4,5.15-2.59,6.32-.87,5.5-.29,16,3.44,20.59,1.81,2.23,8.39-1.82,11.2-1.22" transform="translate(-1.43 -2.09)"/><path class="cls-5" d="M338.24,152.11c-2.05,2.55-9.56.72-10.46,3.4-1,3,.86,7.79,1.07,11,.51,7.9,2.33,28.67,8.86,33.92,3,2.43,17.54-16.5,18.33-20.14" transform="translate(-1.43 -2.09)"/><path class="cls-5" d="M314,227.67c-.73.92,5.87-.74,6.53-.21" transform="translate(-1.43 -2.09)"/><path class="cls-5" d="M367.9,127.34c2.33-4.73,16.41-8.13,21.71-7.66a20.67,20.67,0,0,1,6.69,1.85c.6.24,3.37,1.75,2.69,1.6" transform="translate(-1.43 -2.09)"/><path class="cls-5" d="M368.19,82c-2.21,10.19-4.75,23.11-1.53,33.29,2.5,7.93,10.29-5.43,7.86,5.75-.19.91-.39,1.81-.58,2.71" transform="translate(-1.43 -2.09)"/><path class="cls-5" d="M394.35,111.8c-1.11-.24-.31,2.58-.24,3a15.44,15.44,0,0,0,4.69,8.31" transform="translate(-1.43 -2.09)"/><path class="cls-5" d="M367.12,90.71c.26,1,.68,2,1,3.05s.43,1.84.62,2.76c.94,4.55,3.79-5.92,6.31-3.9,4.32,3.48-1.37,11.44.49,15.5.63,1.36,15.6,4.19,18.22,4.75" transform="translate(-1.43 -2.09)"/><path class="cls-5" d="M367.9,83.39c-.74-6.77,5.15-9.28,10.16-9.55,2.07-.11,4.38-1.79,6.46-.83,4.93,2.27,19.69,10.57,20.51,16.59,1.22,8.91-7.45,15.47-10.57,22.63" transform="translate(-1.43 -2.09)"/></g></g></g></g></g></svg>