<svg xmlns="http://www.w3.org/2000/svg" xmlns:xlink="http://www.w3.org/1999/xlink" viewBox="0 0 591.08 383.98"><defs><style>.cls-1,.cls-5{fill:none;}.cls-2{isolation:isolate;}.cls-3{clip-path:url(#clip-path);}.cls-4{clip-path:url(#clip-path-2);}.cls-5{stroke:#000;stroke-linecap:round;stroke-linejoin:round;stroke-width:2.84px;}</style><clipPath id="clip-path" transform="translate(-1.66 -5.21)"><rect class="cls-1" width="595" height="396"/></clipPath><clipPath id="clip-path-2" transform="translate(-1.66 -5.21)"><rect class="cls-1" x="-107" y="-82.35" width="841.99" height="595.35"/></clipPath></defs><g id="Layer_2" data-name="Layer 2"><g id="Layer_1-2" data-name="Layer 1"><g class="cls-2"><g class="cls-3"><g class="cls-4"><path class="cls-5" d="M117.49,270.43c3.53-4.38,6.22-12.31,9.67-17.49,6-9,16.77-8.62,25.7-12.45,2.76-1.18,8.76-4.8,11.66-3.71,4.36,1.63,2,11.95,1.33,15.37-2.54,12.67-7.53,37.32-19.08,44.25-3,1.8-11.88.9-10.33-4.51,1.76-6.15,22.07-30.74,18-36.83-1.14-1.72-8.57,2.9-10.06,3.45-4.9,1.78-3.58-2.55-5-2.92-4.51-1.12-9.46,18.22-12.19,20.67C125.5,277.75,115.61,272.77,117.49,270.43Z" transform="translate(-1.66 -5.21)"/><path class="cls-5" d="M118.15,274.67c2.07-1,.65,3.33,0,4-2.64,2.64-4.9,8.34,1.06,10.33,4.17,1.39.88-6.39,1.59-6.63,2.1-.7,2.13,8.81,5.83,5.57,2.69-2.36-1-9.83-2.38-12.19" transform="translate(-1.66 -5.21)"/><path class="cls-5" d="M152.86,241.28c0,.69.27,9.79.27,7.95" transform="translate(-1.66 -5.21)"/><path class="cls-5" d="M162.93,238.64c4.12,8.22-3.52,5.44-4.24,9-1.74,8.71,4.22,10.44-6.36,17.49" transform="translate(-1.66 -5.21)"/><path class="cls-5" d="M186.25,237.84c1.25-2.49,16.54,9.35,19.87,10.07,4.61,1,11.8-.42,15.9-2.65,1.51-.82,1.27-2.66,3.44-2.12s2.55,3.66,2.92,5.3c.45,2,1.59,4.49,1.06,6.62-2,7.86-27.73,4-33.65,3.71-1.82-.07-5-1.72-6.63-1.06-5.62,2.25-6.31,22.7-5.29,28.09.27,1.44,2.74,3.61,2.38,5-.71,2.86-11.24,3-12.72.8-.29-.44-1.82-6.51-2.12-6.36-1.3.65-1,4.46-2.65,5.56-3,2-11.54-1.06-15.1-1.06" transform="translate(-1.66 -5.21)"/><path class="cls-5" d="M167.57,233.87c1.9,2.93,3.89,11,7.82,12.45,1.56.59,10.33-10.6,9.27-12.45-1.58-2.76-11.18-3.28-14-2.92-.76.1-2.88,2.28-3.45,1.86-1.36-1-2.89-3.92-3.44-5.57-3-8.86,8.27-24,16.69-17.22,4.23,3.38-11.16,6.49-11.39,6.62a1.68,1.68,0,0,0-.53.53c-5.68,8.52,2.94,8.58,2.38,12.46S165.71,231,167.57,233.87Z" transform="translate(-1.66 -5.21)"/><path class="cls-5" d="M180.69,214.79c5,9.94,7.44,8.69,2.38,18.81" transform="translate(-1.66 -5.21)"/><path class="cls-5" d="M175.84,216c0,4.94-9.87,6.14-4.71,11.3" transform="translate(-1.66 -5.21)"/><path class="cls-5" d="M169.72,244.91c3.17,3.17-.67,11.79-1.65,15.06-1.82,6.14-5.36,16-3.76,22.37,1.7,6.81,5.61-2.61,5.88-4.95,1.2-10.35,2.32-20.62,5.65-30.6" transform="translate(-1.66 -5.21)"/><path class="cls-5" d="M173,267.27c-1,2,2.09-3.89,3.06-5.88,1.52-3.14,3.27-7.6,6.35-9.65,6.27-4.18,8.16,5.41,13.66,5.41" transform="translate(-1.66 -5.21)"/><path class="cls-5" d="M142.18,297.87c-11,11-.43,30.18-7.77,42.85-2.53,4.37-6.22,6.69-9.65,10.12-5.81,5.81-10.37,12.94-15.54,19.3-1.92,2.37-6.62,9.29-4.71,12.48s21,5.33,24.25,2.12c5.4-5.4-9.91-6.52-8.24-11.54,1.48-4.43,7.17-4.16,9.89-8.23,8-11.94,15.49-23.55,22.83-35.79,4.88-8.12,9.08-17.22,14.6-24.95a50.81,50.81,0,0,1,6.12-4.47c.38.76-.84,1.49-1.41,2.12-.16.16-11.69,10.35-5.89,10.35,5.1,0,20.67-5.28,25-8.71,3-2.4,4.62-5.52,7.07-8.23.85-1,1.88-3.89,2.59-2.83,1.18,1.77-.56,8.24-1,9.89-2.22,9.53-8.55,18-11.06,27.54-.47,1.78-4.4,10.56-2.59,11.77,3,2,22.85,2.76,23.54-.71.78-3.89-5.69-3.07-7.53-3.53s.65-6.6.94-7.29c4.41-10.53,9.83-21.61,11.53-33,.44-2.89,1.83-6.64-.7-8.95-6.65-6-17.3-2-24.72-.47-3.09.62-7.29,2.48-9.42-.7" transform="translate(-1.66 -5.21)"/><path class="cls-5" d="M108.28,372.5c5.56,0,10,7.17,14.6,1.41" transform="translate(-1.66 -5.21)"/><path class="cls-5" d="M186.67,335.3c4.56-4.55,12,3.52,14.83-1.17" transform="translate(-1.66 -5.21)"/><path class="cls-5" d="M227.67,243.2c.25-.59,7.5-9,9.45-8.2s-3.57,5.62-1.74,6.55c1.3.65,5.53-3.3,5.2.45-.58,6.64-9,3.59-10.53,7.23" transform="translate(-1.66 -5.21)"/><path class="cls-5" d="M278.65,189.74c-3.56,8.2-11.38,14-16.69,20.95-4.06,5.34-8.41,9.41-13.45,14-6.07,5.49-12.82,4.51-6.44,13.7.84,1.2-.72,5.07,1.64,4.51,4.88-1.17,1.14-7.81,3.12-9s4.73,3.34,6.6,1.16c2.29-2.68,1.8-7,4.33-9.52,3.73-3.65,9.23-4.73,12.15-9.12,1.76-2.65,5.51-10,10-7.86,3.07,1.47.74,10.63-.57,13.05-1.68,3.15-6.57,2.48-8.14,6.57-.59,1.54-1.54,7.61.44,8.19,22.37,6.55,26.71-32.89,23.89-46.52-.55-2.67,1-6.75-1-9.11-.12-.14-8.87,6.18-8.77,7.09.23,2.09,3.92,1.6,4.94,3.34,1.93,3.27-3.05,4.5-2.71,7.63,0,.12,5.29,5.27,6.3,7.83" transform="translate(-1.66 -5.21)"/><path class="cls-5" d="M302.3,159.21c-.81,9.18-8,20.81-16,26-.81.53-7.22,4.16-7.86,3.39s6.09-10.89,6.6-12.23c4.13-10.78,2.78-25,17.62-25,11.58.05,9.78,10.87,10.85,19,.24,1.82,2.56,11.67.64,9.37" transform="translate(-1.66 -5.21)"/><path class="cls-5" d="M302.9,159c2.55-1,3.65,3.48,4.5,5.05,1.69,3.08,6.12,12.52,1.31,15-3.34,1.7-9.8-4.43-9.53-7.54" transform="translate(-1.66 -5.21)"/><path class="cls-5" d="M311.84,179.84c2.67,1.16,5.78.72,8.61,1.34,2.59.57,5.52,4,8,5.36,5.58,3.2,13.3,3.38,19.35,1.7,4.32-1.2,7.59-2.53,9.33-6.75.37-.88,2.09-7.78,4.55-5.42,3.66,3.49-4.21,6.12-3.48,9.88.42,2.18,7.22.65,7,3-.45,5-7.93,1.29-10.5,3.44-1.66,1.4-1,3.91-3.34,4.95-10.71,4.78-25-1.83-34.73,4.23-7.74,4.8-6.2,18.72-7.85,26.38-.6,2.82-1.36,7.67-5,7.71-1,0-6.67-1.85-7-3.23-.18-.78.65-4-.51-4.12-4.07-.36-4.53,8.93-10.09,5.52" transform="translate(-1.66 -5.21)"/><path class="cls-5" d="M294,180.9c-2.2,3.56,9.72,10.86,10.1,14.28.46,4.23-10.11,24.38,4,14.61,2.17-1.51,1.33-18.46,1.62-21.7.12-1.39,1.8-5.27.87-6.61-1.37-2-3.85,4.26-3.87,4.31-.72,1.76-1.21,3.61-1.93,5.37-.51,1.24-1.24,2.39-1.77,3.62" transform="translate(-1.66 -5.21)"/><path class="cls-5" d="M268.59,238.06a70.49,70.49,0,0,0-3.45,16c-.74,7.53,2.54,16.1.26,23.6-.77,2.54-3.32,5.48-1.89,8.28,1.84,3.62,18.62-7.67,21.76-9.15,9.65-4.55,22.78-1.16,30-10.18,5-6.17-5.55-20.52-7-26.52-.65-2.73.73-5.76,1.61-8.3" transform="translate(-1.66 -5.21)"/><path class="cls-5" d="M272.27,239.25a59.91,59.91,0,0,1,12.05,1.94,36.58,36.58,0,0,1,7,2.94c1.27.64,2.46,3.05,2.85,4,3,7.52-16.82,4.37-11.36,10.06,2.78,2.9,10.32.75,14.1,1.82,8.81,2.49,2.52,5.95,5.41,8.05,2.14,1.55,7.22-.13,10.33,1.78" transform="translate(-1.66 -5.21)"/><path class="cls-5" d="M263.31,281.56c-.45,5.09-4.34,9.29-7,13.65a73.23,73.23,0,0,1-14.6,17.05c-5.18,4.35-12.39,6-14.27,13.31-1.18,4.58,14.65,17.69,15.39,17.07,2.62-2.19-5-15.6-.7-21.9,3.85-5.68,13.32-7.82,18.05-13.26,7.55-8.67,14.37-16.93,20.4-26.74" transform="translate(-1.66 -5.21)"/><path class="cls-5" d="M296.56,274.29c1.7-1.43.22,4.5-.3,6.67a20.77,20.77,0,0,1-1.82,4.2c-1.77,3.58-3.5,7.18-5.59,10.58-2.3,3.74-14.9,14.33-4.39,16.79,1.3.3,15.22,3.3,15.45,3.1,2.91-2.44-5.49-5.87-6-7.52-.65-2-.1-3.87.51-5.77,2.92-9.24,11.93-15,16.31-23.32,1.63-3.12,2.07-6.63,3.2-9.91" transform="translate(-1.66 -5.21)"/><path class="cls-5" d="M282.79,305.1c1.45-1.21,10.53.19,11.43,2.46" transform="translate(-1.66 -5.21)"/><path class="cls-5" d="M370.3,162.3c0-.05-.63,5.11-1.58,7s-5.73,7.14-5.89,7.93c-.46,2.27,2,2.15,2,4.07,0,1.17-.9,2.72.45,3.4,3.31,1.66,11.25-1.1,10.87-5.66-.2-2.32-2.62-4.46-2-6.79.63-2.52,2.54-5.09,3.62-7.25" transform="translate(-1.66 -5.21)"/><path class="cls-5" d="M398.49,112.26c-7.78,4.41-11.57,16.08-15.28,24-2.28,4.86-4.83,9.41-7.48,14-1,1.81-6.27,6.53-5.88,8.83.83,5,8,6.74,11.55,3.63,4-3.56,4.88-10.91,7.69-15.4a167.76,167.76,0,0,1,11.78-17c1.26-1.55,3.51-3.24,4.07-5.21a6.84,6.84,0,0,0-.22-5.43c-1.13-2.08-3.51-2-4.76-3.85C399.15,114.67,399.63,111.62,398.49,112.26Z" transform="translate(-1.66 -5.21)"/><path class="cls-5" d="M382.3,162.3c0,2.3,2.27,4,3.17,6.12,2.31,5.44-2.78,24-3.4,30.79-.42,4.63,2.91,7.77.68,12.23-5.2,10.41-12.85,18.06-16.07,29.66-.57,2.06-2.31,8.71.45,10,6.91,3.15,13-6.21,16.3-10.64,9.26-12.52,10.94-27.93,17.44-41.66,2.17-4.59,10.6-15.93,8.15-20.83" transform="translate(-1.66 -5.21)"/><path class="cls-5" d="M411.06,184c2.72,2.72,7.72.45,11.55,0,1.05-.12,11.2-4.46,12.9-2,2,2.8,1.51,24.12.68,28.08-.9,4.3-3.51,10.3.23,14,1.36,1.36,23.72,3.43,24-.23.37-4.88-6.5-4.92-7.25-9.06-.92-5.05-.27-11.05-.68-16.3-.46-6-2.44-11.82-2.71-17.89-.22-4.77.5-10.32-3.85-13.81-3.63-2.9-8.77-1.23-12.91-2.26-3.09-.77-8.63-2.37-11.77-1.59-4.34,1.09-6.42,13.15-8.15,13.59-.05,0-.15-6.93-.23-7.47-.27-1.74-1.95-8.59-.23-10,3.15-2.51,3.86,1.34,6.8,1.59,1.7.14,5.66-2.12,5.66-.45" transform="translate(-1.66 -5.21)"/><path class="cls-5" d="M410.83,106.6c-3.54,1.77-11.81,2.18-12.45,7.93-.4,3.53,4.33,5.13,6.34,7.47,1.19,1.39,2.95,6.28,3.39,7.92,1,3.54-.53,7.85.68,11.1.42,1.11,2.49.58,2.49,1.36,0,3.89-2.74,8.2-3.62,12s-1.85,13.49-5.66,15.4c-4.78,2.39-8.6-1.2-12.91-1.82-1.06-.15-2.6,1.63-3.85,2" transform="translate(-1.66 -5.21)"/><path class="cls-5" d="M388.19,151.89c2.79-4.19,8.62,4.16,12.45,2,4.27-2.37-2.5-6.38-1.36-10.19.55-1.83,7.93-1,9.29-1.36" transform="translate(-1.66 -5.21)"/><path class="cls-5" d="M412.19,106.15c0,5,.83,10.66.45,15.62-.51,6.63-2.49,13.84-2.49,20.38" transform="translate(-1.66 -5.21)"/><path class="cls-5" d="M429,112c-.22-.43,4.61,8.54,5.66,6.79,1.22-2-1.38-4.88,1.58-6.57,3.89-2.22,11.31,3.45,16.08,2.72a30.32,30.32,0,0,0,14.26-6.34c.32-.24,1.18-.7,1.59-.45,2.87,1.72,1.29,7.65,3.62,9.06,2.59,1.55,4.44-4.06,3.85,3.62-.76,9.88-19,5-25.36,5.66-4.2.45-13.63.34-17,2.94-5.54,4.31-11.08,26.61-10,33.29" transform="translate(-1.66 -5.21)"/><path class="cls-5" d="M427.81,113.85c1.77,0,1.91,3.22,1.81,5-.29,5.27-4.65,1.74-5.2,4.53-.11.55,4.61,3.25,5,3.62,2.09,2.09-.28,4.84.45,7" transform="translate(-1.66 -5.21)"/><path class="cls-5" d="M417.62,118.83c1.86,7.43-1.81,17.34-1.81,25.13,0,1.46-1.09,10.88.68,11.32.82.21.87-1.46,1.13-2.26,1-3,1.34-6.84,1.82-10,1.51-10,.22-19.8.22-29.66" transform="translate(-1.66 -5.21)"/><path class="cls-5" d="M419.55,91c-7.93,3.3-11.51,25,2.15,23.1,1.44-.21,3-2.08,4.08-3C434.17,104.14,432.52,85.58,419.55,91Z" transform="translate(-1.66 -5.21)"/><path class="cls-5" d="M411.28,100.26c2.25-4.5.46-10.52,5.21-13.81,4-2.77,15.59-4,17.21,2.49s-.74,12.46-4.53,17.66" transform="translate(-1.66 -5.21)"/><path class="cls-5" d="M406.76,158c1.52-.76,3.3.23,5,.23" transform="translate(-1.66 -5.21)"/><path class="cls-5" d="M363.73,248.57c1.49-.74-1.49,3-2.49,4.3-2.1,2.81-5.59,4.82-2.26,8.16,5,5,12,12.16,19,14,3.7,1,8.66-.28,6.79-5.88-3-9-15.62-9.1-15.62-18.12" transform="translate(-1.66 -5.21)"/><path class="cls-5" d="M436.64,211.44c0,6.67,11.59,5.66,16.53,5.66" transform="translate(-1.66 -5.21)"/><path class="cls-5" d="M469.25,112.72c0-2.26,3.63-4.77,5-6.8.65-1,1.23-5.85,3.17-5.2,2.11.7,1.9,3.92,3.4,5.2,2,1.73,4.86-3.87,5.88-.45,1.54,5.13-6.26,2.57-8.37,3.62-2.74,1.37.68,7.64.45,9.74-.16,1.41-3.38,3-4.3,3.62" transform="translate(-1.66 -5.21)"/><path class="cls-5" d="M495.29,176.12c.58.29,2.57,9.35,5.89,7.69,2.42-1.21,1.17-5.82.67-7.69-1.93-7.36-4.26-14.59-6.11-22-4-16.05-5.51-32.66-8.38-48.91C485,92,481.44,78.76,477.85,65.85c-2.84-10.23-3.33-21-6.34-31.25-.62-2.13-1.66-8.87-4.53-9.51-2.49-.55-1.4,12.07-1.35,12.68A174.91,174.91,0,0,0,472,71.28c2.62,9.39,4.68,18.75,7,28.08" transform="translate(-1.66 -5.21)"/><path class="cls-5" d="M481.25,111.36c5.3,21.19,7.68,43.92,15.17,64.53" transform="translate(-1.66 -5.21)"/><path class="cls-5" d="M469,64.49c5.69-11.37,1.32-25.22-.68-36.68-.65-3.76.12-9.67-3.17-12.46-4-3.39-17.47,5.21-23.09,5.21s-11.62.4-17.21-1.13c-7.51-2.07-13.81-7.52-20.38-11.32-8.41-4.87-19.75,3.64-27.17,6.11a47,47,0,0,1-8.6,2.27c-1.3.17-4.94,0-3.85.67,11.85,7.91,16.61,20.48,19.24,34.19a49,49,0,0,1,.68,13.14,15.37,15.37,0,0,1-1.13,3.62c4-12.14,13.82-10.28,24.23-10.64,7.83-.28,10.09-1.81,17.43.9,4.31,1.59,4.92,8.36,9.29,10,10.12,3.73,25.93-.26,30.79-10" transform="translate(-1.66 -5.21)"/><path class="cls-5" d="M130.86,382.7c3.3-1.65,7.34-.69,11-.94,11.33-.77,27.72.79,38.13-4.41,7.63-3.82-.14-25.35,3.78-30.25,2-2.53,10.77-.94,13.86-.63,9.71,1,21.81-.81,31.51-1.89,2.33-.26,11.57-2.58,13.55-1.26,1.31.87.63,10.39.63,10.4,0,7.52,1.41,17.26-1.26,23.94-1.07,2.68,4.55,2.42,3.78,1.26-.58-.86-12.33,1.35-12.92,2.52-.94,1.88,4.22.06,6.3.32a28.24,28.24,0,0,0,6.3,0c2.06-.21,14.44-1.23,16.07-2.21,2-1.19.55-11.75.63-13.86a135.11,135.11,0,0,0-3.46-36.23c-.61-2.73-2.93-11.14,0-12.61s11.48,0,14.81,0c10.61,0,21.23.32,31.82.32,1.78,0,11.62-1.42,12.92.31,1.91,2.55-.22,12.29-.32,14.81A286.58,286.58,0,0,0,319,363.8c.42,5.55.44,12.22,1.57,11.66" transform="translate(-1.66 -5.21)"/><path class="cls-5" d="M320.22,372.62c.51,2,2.36,3.95,1.89,6-.43,1.85-3.8-.95-5.67-.63-1.12.18-8.18,2.15-7.57,3.78,1,2.64,9,1.26,10.72,1.26,9.73,0,19.35,1,20.16-10.4,1.66-23.27-.43-47.31-1.26-70.58-.25-7.19-2.82-19.57,0-26.15,2.14-5,13.36-2,17-1.26,9.7,1.87,20.07,1.63,29.93.95,3.9-.27,6-.95,9.77,0,1.19.3,3.46,2.49,3.46,1.26s-2.06-.79-3.15-.95" transform="translate(-1.66 -5.21)"/><path class="cls-5" d="M396.78,278.41c-3.15,0-.15,6.31,0,9.46.63,12.89,1.26,25.83,1.26,38.75,0,14.95,4,31.93,1.89,46.63-.43,3-9.5.39-8.51,5.36.62,3.07,6.73,4.42,9.46,3.78,19.28-4.54,12.3-25.1,11.65-40-.62-14.28-.68-28.88,0-43.16.53-11.12,4.52-21.95,5.05-33.09.5-10.59-.92-21.65.31-32.13.09-.78.45-5.81,1.26-6.62,2.4-2.39,31.13-.94,35.29-.94,2,0,18.93,1.94,19.22,2.52s-1,.47-1.26.94" transform="translate(-1.66 -5.21)"/><path class="cls-5" d="M473.16,228.74c-2.08,7.81-.35,16.15-.43,24.23-.07,6.2-.3,12.4-.27,18.61.14,31.92,3.48,63.55,5,95.38.84,17.29-14.59,5.19-25.2,7-8.22,1.39,3.19,7.91,6.61,7.76,8.25-.36,17-4.7,25.27-6,2.34-.36,8.35,2.27,10.38,1.09.74-.43-1.25-42.23-1.28-46.7-.2-29.41-1.29-59.12.81-88.49,1.12-15.72-1.81-32,1.62-47.59,3.32-15,28.14-9.75,39.63-9.83,3.11,0,13.2-3.35,15.72-.16,3.69,4.69.11,18-.1,23-.67,15.72,1.59,46.78,1.59,46.78l2,81.58s-2.77,31.42,0,45" transform="translate(-1.66 -5.21)"/><path class="cls-5" d="M3.08,385.86c11.42-3.69,25.83-.36,37.59-.52,28.11-.4,61.75-4.14,89.59.1" transform="translate(-1.66 -5.21)"/><path class="cls-5" d="M130.85,385c48.74,7.43,101.5-2.55,150.35-2.1,64.34.6,129.27,7,193.71,4,37.91-1.75,78.83-7.26,116.41-1.54" transform="translate(-1.66 -5.21)"/></g></g></g></g></g></svg>