<svg xmlns="http://www.w3.org/2000/svg" xmlns:xlink="http://www.w3.org/1999/xlink" viewBox="0 0 316.17 296.69"><defs><style>.cls-1,.cls-5,.cls-6{fill:none;}.cls-2{isolation:isolate;}.cls-3{clip-path:url(#clip-path);}.cls-4{clip-path:url(#clip-path-2);}.cls-5,.cls-6{stroke:#000;stroke-linecap:round;stroke-linejoin:round;}.cls-5{stroke-width:2.45px;}.cls-6{stroke-width:2.44px;}</style><clipPath id="clip-path" transform="translate(-3.2 -3.83)"><rect class="cls-1" width="321" height="305"/></clipPath><clipPath id="clip-path-2" transform="translate(-3.2 -3.83)"><rect class="cls-1" x="-244" y="-171.35" width="841.99" height="595.35"/></clipPath></defs><g id="Layer_2" data-name="Layer 2"><g id="Layer_1-2" data-name="Layer 1"><g class="cls-2"><g class="cls-3"><g class="cls-4"><path class="cls-5" d="M160.14,147.1c4.92-3.28,11.1-17.77,13.41-23.33,5.78-13.87,12.58-28.11,21.21-40.44,3.12-4.46,10.62-14.16,16.44-15.13,6-1,5.6,12.46,4.61,15.78-3.08,10.27-11.49,16.91-18.58,24-1.57,1.56-3.33,6.84-5.1,7.72-5,2.52-4.78-10-2.63-8.38,4.5,3.37-6.8,30.56-11.51,33.7-2.22,1.49-4.88-2.6-6.08-1.64-4.06,3.24,4.44,10.52.49,14.47" transform="translate(-3.2 -3.83)"/><path class="cls-5" d="M213.47,67.46c0-8.23,15-10.27,20.58-11.67,10.59-2.65,27.61-21.85,35.63.61,4.22,11.8-2,23.82-9.83,32.41-.65.72-8.49,9.47-9.06,8.91-.34-.34.49-1.59.61-1.85,2.11-4.2,4.55-9.37,5.07-14.13.57-5.08-3.82-11.08-.76-15.66.14-.22,1.25-1,1.53-.77s-2.42,2-2.61,2.15c-4.94,2.88-11.31,1-16.13,3.84-3.9,2.34-2.92,14.85-2.15,18.74s17.9-1.72,19.2-6.91" transform="translate(-3.2 -3.83)"/><path class="cls-5" d="M240,53.79c.59-1-3.06,6.1-4.92,8.14-4.43,4.88-4.93,11.63-5.68,18a52.4,52.4,0,0,0-.15,6.14c0,1.08-.45,4.13.15,3.23,2.27-3.4,1.32-12.52,2-16.59C232.67,65.28,236.43,59.94,240,53.79Z" transform="translate(-3.2 -3.83)"/><path class="cls-5" d="M202,103.4c0,2.87,1.63,5.45.77,8.91-.95,3.77-9.17,14.29-4.76,17.81,5.32,4.26,4.43-17.17,12.59-15.82,4.92.82,6.77,6.79,12.59,6.3,2.3-.19,8.85-5.27,10.29-3.53,2,2.42,4.14,16.74-.46,17.51-3.54.59-7-7.14-7.52-9.68-.15-.74-.65-4.9-1.23-4.61" transform="translate(-3.2 -3.83)"/><path class="cls-5" d="M200.72,105.86c0,10.57,10.41,11.54,18.12,14.43.94.36,2.73-.07,3.23.93" transform="translate(-3.2 -3.83)"/><path class="cls-5" d="M214.7,88c0,8.15-8.72,11.91-8.14,16,.46,3.24,5.92,4.15,8,5.84,7.27,6,21,8.77,27.19-.46" transform="translate(-3.2 -3.83)"/><path class="cls-5" d="M251.71,96.8c-1.17,1.75-3.18,3.12-4.91,4.45-2.32,1.78-6.94,1.7-7.53,5.22-.66,4,10.29-1.29,11.83-2.15,8.19-4.61,15.08-10.21,20.12-18.28,1.88-3,4.1-11.73,1.53-14-.5-.44-1.24-1.76-2-1.38" transform="translate(-3.2 -3.83)"/><path class="cls-5" d="M250,98.25c2.76.38,6.71-2.68,10.14-2.68.56,0,1.69-.57,1.69,0,0,.24-2,.58-2.15.61C257.76,96.63,249.58,98.19,250,98.25Z" transform="translate(-3.2 -3.83)"/><path class="cls-5" d="M264.38,93c-.84,0,0-1.69.08-2.53C264.75,88.07,267,93.06,264.38,93Z" transform="translate(-3.2 -3.83)"/><path class="cls-5" d="M171.36,154.72c1.09-2.18,5.08-3.08,7.23-4.15a157.42,157.42,0,0,1,20.3-8.46c1.5-.5,5.4-2.3,6.77-.93,2.34,2.35.51,11.74,3.84,15.08" transform="translate(-3.2 -3.83)"/><path class="cls-5" d="M209.66,155.8c7.31,7.31,12.34-6.58,19.07-7.54,5.61-.8,10.5.06,16-2,5.65-2.12,9.67-6.48,14.77-9.54,10-6,23.05-3.09,32.3,2.46,1.77,1.07,11.54,9.54,10,10s-8.73,1.25-11.54,1.85c-7.08,1.52-15,7.87-16.61,16s16.36,17.54,22.61,13.38" transform="translate(-3.2 -3.83)"/><path class="cls-5" d="M173.82,163.49c.93-1.86,15-7.29,17.84-8.15,10.62-3.19,23.91-5.12,35.07-4,6.6.66,14,2.18,20.61,1.07,7.46-1.24,17.09-10.86,18.31-18.15.71-4.24-10.74-3.07-13.23-3.07-9.91,0-18.88,3.18-28.61,4.15-3.93.39-10,0-13.23,2.77s-1.29,12.49,2.46,10.61c2.67-1.33-.67-11.87,1.69-10.92,4,1.61,1.35,10.67,7.39,13.69" transform="translate(-3.2 -3.83)"/><path class="cls-5" d="M235.08,153.78c-.06,0-6.54,3.07-6.76,4.77-.56,4.54,10.59,7.68,13.78,5.69,2.63-1.64,6.69-8.5,2.51-10.59-.76-.39-1.24,1.65-1.32,2-.51,2-.65,10.26,1.46,11.66,2.74,1.83,5.86-8.81,7.55-9.93.17-.12.35-.24.53,0,3,3.95-4.39,11.47,0,17.61,4.19,5.87,13,9,18.54,13.78a18.26,18.26,0,0,0,8.28,3.68" transform="translate(-3.2 -3.83)"/><path class="cls-5" d="M285.54,153.25c-1,1-2.29,4.62-2.91,6.09-3.9,9.2-.09,10,7.55,12.19.63.18,2.58.2,3,.66,1.2,1.2-3.09,5.83-3.71,6.49,0,0-1.67,2.15-1.32,1.46" transform="translate(-3.2 -3.83)"/><path class="cls-5" d="M299.18,149.67c8.43-4.21,18.27,8.37,18.94,15.77.25,2.76-1.22,6.26-2.52,8.6-4.16,7.5-12.21,8.22-19.6,9.8-1.83.4-9.17,1.67-10.33-.26-.11-.18-.24-.35,0-.53,2-1.49,8-1.64,10.57-2.92" transform="translate(-3.2 -3.83)"/><path class="cls-5" d="M246.6,168.35c-1.61,2.42,2,7.35,1.72,9.53-.45,3.18-8.52,4.55-7.81,8.08.61,3.08,4.15,5.44,7,5.7,4.06.37,5.39-4.37,8.61-4.9,5.4-.9,12.67,6.32,17.54,5.35" transform="translate(-3.2 -3.83)"/><path class="cls-5" d="M248.59,177c1.58,4.73,5.77,6.43,8.87,9.53" transform="translate(-3.2 -3.83)"/><path class="cls-5" d="M156.46,167.89c.11-.22-1.47,1.92-2.11,2.56-1.38,1.39-3.2,3.08-3.61,5.12-.45,2.25,4.53-3.15,5.12-2.71s-5.79,8.36-3.61,8.73c2,.33,2.94-5.57,4.81-6.33,1.37-.54-1.21,5.34.15,5.57s5.92-7.76,6.47-8.88" transform="translate(-3.2 -3.83)"/><path class="cls-5" d="M149.8,177.36c-1.45,4.75.27,11-.11,15.21-.43,4.76,0,9.65-.45,14.45-1,9.73-6.28,18.82-11.44,26.94-2.19,3.44-5.87,6-8,9.17" transform="translate(-3.2 -3.83)"/><path class="cls-5" d="M161,179.63c-1.61,8,.45,16.46.15,24.38-.2,5.06-.92,10.15-1.36,15.2s-.32,14.28-3.61,18.66c-.19.25-2.45-6.09-3-6.77-1.79-2.19-8.87-9.95-11.29-4.52-1.91,4.31,6.16,8.55,7.53,11.74,3.37,7.87-1.62,20.1-6.47,26.33-1.52,2-2.49,5.42-5.42,5.42s-6.2-17.35-7.22-17.6-.61,2.11-.61,2.25c.26,4.82,3,10.39,2.41,15-.41,3.48-2.84,5.21-5.71,6.17-1.32.44-3.71,1.12-3.71,1.12s-4.52,1.5-4.29,1.38" transform="translate(-3.2 -3.83)"/><path class="cls-5" d="M149.83,201.27c0,2.61.61,8,1.83,10.61A9,9,0,0,0,154,214.8c.09.08.84.26.36.49-2.11,1.06-6.83.88-8,3.29" transform="translate(-3.2 -3.83)"/><path class="cls-5" d="M81.94,282.09c-1.69,0,2.76-10.86,3.17-11.82.51-1.22,1.12-2.36,1.7-3.54,3.09-6.16,21.13-30.92,29.87-20.23,1.3,1.59,1.79,6.76,2.19,8.9a50.19,50.19,0,0,1,1,8.89c0,4.78-.16,9.31-1.95,13.78" transform="translate(-3.2 -3.83)"/><path class="cls-5" d="M81.08,279.78c-1.57-4.74,2.53-25.39,9.13-26.49,1.66-.27,1.05,5.34.26,6.13" transform="translate(-3.2 -3.83)"/><path class="cls-5" d="M92.91,258.08c4.64-4.65,12-9.79,18.71-7.82,3.48,1,7.23,5.61,7.23,5.61" transform="translate(-3.2 -3.83)"/><path class="cls-5" d="M119,270.88c-1.51,0-2.68,1.13-3.65-.61-.48-.86.42-3.74-.12-2.93-2,3-1.3,10.08,1.82,12.31,3.88,2.77,6.86-1.32,7.11,0,.11.55,1.63,3.6-.4,5.95a15.07,15.07,0,0,1-2.68,2.43,44.44,44.44,0,0,1-4.15,2.81,45.7,45.7,0,0,1-5,2.35,57.2,57.2,0,0,1-10.31,3.13,21,21,0,0,1-7.9-.65s-5-.75-9.13-6.82c-3.22-4.73-2.84-8-2.84-8" transform="translate(-3.2 -3.83)"/><path class="cls-5" d="M82.08,280.69c-.18.89-5.06-.36-5.82-.52-4.23-.88-9.09-5.68-9.73-10.15-.59-4,1.63-12.44,3.55-16,3.85-7.1,8.7-9.12,5,2.2a55.7,55.7,0,0,0-1.45,5.86" transform="translate(-3.2 -3.83)"/><path class="cls-5" d="M74.15,261.85c2.16-10.39,13.23-24,24.77-24.71,2.93-.18,3.87,2.6,6.29,2.7,2.72.11,6.14-2,8.94-2.21A14.77,14.77,0,0,1,126.88,244c.78,1.19,2.9,4.46,4.27,5.18s5.65-11,6-12.58" transform="translate(-3.2 -3.83)"/><path class="cls-5" d="M113.8,236.52c-1.33-1.35-1.25-4.92-1.38-6.8-.56-8.19,1.12-10,9.78-7.37,2.61.79,1.7,6.45,1.52,8.33-.52,5.59-.33,11.2,6.22,12.56" transform="translate(-3.2 -3.83)"/><path class="cls-5" d="M74.57,248.11C73,244,67.31,238,67.14,233.55c-.08-1.92,2.86-1.65,4-2,8.22-2.18,6.62,2.24,11.91,6.42" transform="translate(-3.2 -3.83)"/><path class="cls-5" d="M75,248c4.56-7.86,13.88-15,23.43-13.84a64.78,64.78,0,0,1,11.45,2.5c.35.11,2.82-.18,2.74.22" transform="translate(-3.2 -3.83)"/><path class="cls-5" d="M69.48,256.93a10.43,10.43,0,0,1,4.23-1.33" transform="translate(-3.2 -3.83)"/><path class="cls-5" d="M67.72,262c1-.91.27-.28,2.54-1.56" transform="translate(-3.2 -3.83)"/><path class="cls-5" d="M149.15,148.58a97.88,97.88,0,0,1,7.61,18.13c.17.53,1.29,5.14,2.55,4.45,2.28-1.24-1.28-8.2.58-8.77,1.4-.44,3.9,11.81,5.94,10.69.53-.29-2.56-11-1.53-11.55.29-.16.83.45.91.58,1.69,2.6,2.2,5.76,4.22,8.18,0,0,.39.62.63.49,2.59-1.41-4.68-7.89-3.93-9.17.4-.68,7,6.44,7.06,6.41,1.79-1.5-5.59-8.48-6.17-9.91-1-2.48,4.88-2.05,4.32-3.12-.83-1.58-8-3.77-10.27-5.47-2.87-2.17-10.24-12.62-8.95-17" transform="translate(-3.2 -3.83)"/><path class="cls-5" d="M151.6,132.27c-1.92,6.52-4.14,13.16-7.79,5.64-.59-1.21-2.28-3.84-2.15-5.26.35-3.89,7.55-2.59,8.42-5.54" transform="translate(-3.2 -3.83)"/><path class="cls-5" d="M139.84,65c-4.32,14.67-3.32,30.38,1,44.86a93.19,93.19,0,0,0,5,13.82c.56,1.15,4.08,3.89,4.07,3.55" transform="translate(-3.2 -3.83)"/><path class="cls-5" d="M141,24.84c-7.49,5.23-14.59,12.52-17,20.36C121.61,52.84,122.93,61,122.82,69a71.49,71.49,0,0,0,3.35,24c3.09,9.2,7.13,17.87,10.41,27,.32.9,5.24,10.52,3.33,11-3.21.83-11.59-17.23-13-20.18-6.32-13.51-8-28.52-6.86-43.19.23-3.06.15-11.51,2.7-13.86,6-5.5,13.83,16.16,15.15,20.39" transform="translate(-3.2 -3.83)"/><path class="cls-5" d="M138.14,72.83c-.07,3,2.06,5.9,2.14,9,.17,7.36.62,14.78.73,22.1" transform="translate(-3.2 -3.83)"/><path class="cls-5" d="M139.57,66.27c.15-.39,1.94-6.27,3.05-5.83s1.44,3.29,2,4.16c2.26,3.51,8.45,10.08,13.27,8s4.15-9.49,3.72-14.09a13.9,13.9,0,0,0-1.32-4.14c-.31-.71-1.37-2.52-.65-2.23,1.72.66,3,6.26,3.52,7.79.65,1.86.5,4,1.27,5.75" transform="translate(-3.2 -3.83)"/><path class="cls-5" d="M164.85,46.52c.44,4.73-.9,8.6-1.47,13.1" transform="translate(-3.2 -3.83)"/><path class="cls-5" d="M145.53,11.45c-2,5.23-3.34,10.63-1.72,16.15A69.14,69.14,0,0,0,148,39.05c8.13,16.3,19.07,7.94,23-5.57.55-1.94,1.45-5.86.3-7.71-.93-1.5-2.12-1.76-2-4.17.08-1.71.83-4.44-.16-7.33A25.14,25.14,0,0,0,165,7.52" transform="translate(-3.2 -3.83)"/><path class="cls-5" d="M145.37,11.85c2.72-7,15.4-9.11,20.16-3.86" transform="translate(-3.2 -3.83)"/><path class="cls-5" d="M143.71,23.36c.13-.06,6.58,6.66,9.31,7,4.57.58,7-5.34,10.91-6.74,2.19-.79,5.91,1,7.74-.38,4-3.12-3.73-12.61-3.73-12.61" transform="translate(-3.2 -3.83)"/><path class="cls-5" d="M142,24.7c-1.45,3.74.09,15.58,1.13,19.94.29,1.19,0,4.66.76,5.55,2,2.49,3.84,2.1,6.68.84.39-.17,2.1-.58,2.26-1,.25-.64-2.71-2.59-3.1-2.84-3.54-2.26-6.61-7.94-6.61-7.94" transform="translate(-3.2 -3.83)"/><path class="cls-5" d="M165.9,8c1.85.72,4.15-.5,6,.71,2.68,1.7,4.44,7.12,5.38,9.91,2.84,8.47,5,17.61,4.73,26.61,0,1.73.31,11.81-.94,12.36C173,61.2,175,41.82,174.88,38.74c0-1.8-.52-3.54-.5-5.34,0-.16-.26-1.73-.26-1.73" transform="translate(-3.2 -3.83)"/><path class="cls-5" d="M140,77.44c2.16.37,5.89-1.5,8.08-1.91,10.92-2,16.14-4.53,22.57-13.9,1.34-1.94,3.66-7.92,3.66-7.92" transform="translate(-3.2 -3.83)"/><path class="cls-5" d="M141.45,81.53c7.79-1.92,15.64.28,18.92-8.79" transform="translate(-3.2 -3.83)"/><path class="cls-5" d="M141.5,94.76c1.93-.48,3.44.58,5.24-.52,1.22-.75,1.49-3.44,2-4.67,1.54-3.5,4.68-9.53,8.31-11.24" transform="translate(-3.2 -3.83)"/><path class="cls-5" d="M167.9,65.79c1.55,1.63,1.89,4,2.87,6.09a22.74,22.74,0,0,1,1.1,3.36s1.14,3.13,1.32,4c.6,2.64,1.05,3.62-1.8,3.71-.47,0-1.51.17-1.91-.11-1.71-1.24-2.38-3.61-4.43-4.59-2.52-1.21-5.14-.71-7.78-.4" transform="translate(-3.2 -3.83)"/><path class="cls-5" d="M175.22,57.08c-.55,1.5,0,3.55-.41,5.25-.23,1-.43,2.07-.66,3.1-.49,2.25,1.21,4,2.87,1.61,1.47-2.1,1.14-4.59,1.47-6.94.09-.64.67-1.54.13-2.11" transform="translate(-3.2 -3.83)"/><path class="cls-5" d="M161.38,73.45c.77,1,5.68-2.07,6.75-3.42" transform="translate(-3.2 -3.83)"/><path class="cls-5" d="M102.17,112.87c5.33,4.11,13.55,9.23,18.75,13.6,5.48,4.6,5.17,4.58,10.83,8.95,3.45,2.67,6.79,5.76,10.49,8.07,2.32,1.46,5.5,3,7.06,5.44" transform="translate(-3.2 -3.83)"/><path class="cls-5" d="M95.32,122.11c3.84,4.93,19.43,12.55,23.51,15.6,11.48,8.56,7.2,6.57,19.16,14.57,3.53,2.36,14.17,10.67,17.64,12.7" transform="translate(-3.2 -3.83)"/><path class="cls-6" d="M69.17,90.22c-1,1.32-.94,3.83-.94,5.45,0,10.58,8.3,15.89,16.16,21.15,1.77,1.19,6.29,6.78,8.69,6.13,1.78-.48,3.37-2.39,4.46-3.71,5.91-7.14,4.19-10.82-4.15-14.69-1.25-.58-3.92-1.87-3.92-1.87" transform="translate(-3.2 -3.83)"/><path class="cls-6" d="M65.14,57c-3.5,1.73-3.57,9.2-3,12.44,1.54,8.33,6,23.6,13.89,27.6C78.67,98.39,91.16,99,91.16,99s-5.09-1.36-5.8-1.9c-2.12-1.59-1.88-5.55-1.78-7.9.25-5.46,1-12.22-3.15-16.35" transform="translate(-3.2 -3.83)"/><path class="cls-6" d="M80,72.65s6.11-.87,8.47-.33c3.19.73,6.43.69,9,3s3.16,12.07,6.44,5.26a15.85,15.85,0,0,0,1.46-3.39C107.59,66,93,51.67,82.33,51.65c-6.55,0-12,1-16.88,5.08" transform="translate(-3.2 -3.83)"/><path class="cls-6" d="M101.46,86.1c2.05,4.11,7.46,7.49,8.15,12.37.36,2.56-2.47,4.93-3.8,6.7-.23.31-2.31,2.48-1.33,2,7.64-3.8,7.75-18.59,6.23-25.49a30.53,30.53,0,0,0-2.45-7.25,4.54,4.54,0,0,1-.72-2.13A6.49,6.49,0,0,1,109,70.06c-.15.44-1.6,1.93-1.74,2.36" transform="translate(-3.2 -3.83)"/><path class="cls-6" d="M101.64,61.78c8.33,6.27,15.72,18.38,15.09,29.33-.21,3.78-.66,7.51-3,10.63-.49.65-3.26,5.1-2.86,3.91" transform="translate(-3.2 -3.83)"/><path class="cls-6" d="M101.33,112.69s3.25.36,5.71.81c2.27.42,2.7-1.17,3.14-3.2.06-.28-.22-.87.07-.87,2.66,0,6.77,3.54,9.63.69,3.23-3.21-4.9-7.35-7.49-6.06" transform="translate(-3.2 -3.83)"/><path class="cls-6" d="M68.85,88.17c1.9,1.12,4.94,1.32,7.15,1.77,4,.82,30.52,4.75,24.53-7.68" transform="translate(-3.2 -3.83)"/><path class="cls-5" d="M96.58,183.61c6.8.09,15.18.64,21.86-1.09,5.81-1.51,10.66-5.87,16.56-7.45,5.53-1.49,13.63-5,20.55-7.12" transform="translate(-3.2 -3.83)"/><path class="cls-5" d="M110.68,182.44c-1.76-2.61-1.31-18.78,2.76-18.3,1.41.16,4.68,8,3.74,8.76-.47.37-3.13-4.12-3.73-3.6-.1.09-3,15.34,4.5,12.6,6-2.16.26-15.43.54-15.7.81-.79,6.37.48,7.64.23,5.38-1,20.59-5.48,23.52-4.91" transform="translate(-3.2 -3.83)"/><path class="cls-5" d="M105.51,167.66s-9.65.59-11.21.72c-7.93.63-15.7,1-22.93,4.65-6.26,3.13-.9,14.35,3.86,16.39,2,.84,5.26.18,7.33.08,7-.33,14.74-2,21.59-3.55,1.51-.34,5.51-1.89,7-1.89" transform="translate(-3.2 -3.83)"/><path class="cls-5" d="M57.57,190c4.49,3.36,11,10.67,17.11,8,2.78-1.21,6.09-5.09,9.06-5.52.43-.06-1.65,1.83-1.73,1.9-.81.72-6.34,3.2-5.63,4.62.56,1.12,7.52-.7,8.15-.92,5.71-2,14.23-5.2,17.1-11" transform="translate(-3.2 -3.83)"/><path class="cls-5" d="M31.06,127.78c-1.38-1.49-6.18-2.44-7.27-2.71a17.35,17.35,0,0,0-12.72,2.6c-7.89,5.65-7.62,16.41-5,24.82,5.28,16.83,25.59,28,40.18,33.9,8.13,3.31,14.67,3.19,23.42,4.14" transform="translate(-3.2 -3.83)"/><path class="cls-5" d="M62,163.33c1.56,1,9.13,5.24,11.06,3.69,1.21-1-.93-3.5,1.41-3.82,2.86-.4,5.86,3.29,7.3-1.3.87-2.74-5.74-8.14-7.13-10.32-.38-.6-3.07-2.91-2.09-3.71.77-.61,4.18,2.77,4.54,3.08a36.37,36.37,0,0,1,9,12.22c.37.77,2.22,5.21,2.22,5.21" transform="translate(-3.2 -3.83)"/><path class="cls-5" d="M35,127.4c-2.58.76-7.92,2.11-9.69,4.31-.34.42-1.84,4.71-.08,4.34,2.92-.62,4.66-6,7.49-7.6,7.84-4.32,20.7-.87,26.44,5.3" transform="translate(-3.2 -3.83)"/><path class="cls-5" d="M36.17,127.76c-2.36,4.31-6.76,7.77-7,13.1-.44,12.12,3.63,14.23,13.41,18.85a27.84,27.84,0,0,0,9.82,2.56c.13,0,1.43.31,1.48.06.17-1-3.37-3.05-2.46-3.47.73-.33,3.37,2,4.23,2.14,2.53.37,6.44-.34,8.51-1.91,8.08-6.14,3.36-16.63-2.64-22.22-.84-.78-1.74-3.15-2.82-3.55" transform="translate(-3.2 -3.83)"/><path class="cls-5" d="M58.4,133.81c.75-.7-1.33,0-1.58.68-.44,1.16.34,2.29,1,3.15,2.25,2.79,4.79,4.79,6.26,8.26,1.94,4.58-1.13,12-5.18,13.93" transform="translate(-3.2 -3.83)"/><path class="cls-5" d="M29.15,147a11,11,0,0,0-1.46,4.76c-.08,2.53,1.55,4.54,2.09,5.83.64,1.56,5,5.5,10.51,6.91s19.34,4.9,25.45-6.3" transform="translate(-3.2 -3.83)"/><path class="cls-5" d="M174.21,165.1c3.87.07,10,5,13.54,6.83,15,7.66,29.43,20.21,37.47,34.87" transform="translate(-3.2 -3.83)"/><path class="cls-5" d="M224.83,207c.42,2.31-11.56,1-8.76,6.11" transform="translate(-3.2 -3.83)"/><path class="cls-5" d="M214.11,210.1c1.77-1.44-2.46-8.63-3.77-10.5-6.58-9.4-15.07-15.47-24.86-21.28a34.23,34.23,0,0,0-9-3.77c-.91-.23-1.84-.49-2.75-.69-.53-.11-2.11-.12-1.59-.23,1.43-.32,9.72,6,11,7,9.37,7.29,21.4,12.94,29.85,23.63" transform="translate(-3.2 -3.83)"/><path class="cls-5" d="M216,213.43c-1.43-4.05-4-1.62-4.29-2-.13-.13.1-2.22,0-2.6-.9-3.19-3.84-7.37-7-8.38-5.32-1.67-2.34,11.35-2.41,13.76-.18,6.57-5.69,9.92-10.15,13.4" transform="translate(-3.2 -3.83)"/><path class="cls-5" d="M191.62,227.84c0,2.59-8-2.5-9-2.32A5,5,0,0,0,180,234c1.94,2,5.13,2.14,6.68,4.13" transform="translate(-3.2 -3.83)"/><path class="cls-5" d="M227.91,208.43c4.54,6.22,12.16,13.61,14.52,21,3.24,10.17,2.78,21.45,1.15,31.85" transform="translate(-3.2 -3.83)"/><path class="cls-5" d="M244,240.49a20.75,20.75,0,0,1-3.73-.75c-3.86-1.21-7.09-3.79-10.61-5.61-7.8-4-5.08-16.26-13.73-20.73" transform="translate(-3.2 -3.83)"/><path class="cls-5" d="M210.45,209.16c-.59,2.37-2.48,4.06-4.43,5.31-.87.56-3.74,1.28-3.06.5" transform="translate(-3.2 -3.83)"/><line class="cls-5" x1="201.53" y1="211.58" x2="200.62" y2="212.36"/><line class="cls-5" x1="206.42" y1="208.81" x2="207.69" y2="209.3"/><path class="cls-5" d="M215.19,213.7c-8,9.28-24.77,10.42-28.18,24.06" transform="translate(-3.2 -3.83)"/><path class="cls-5" d="M190.43,250.41c-1.06-2.54-1.36-6.18-1.91-9a6.09,6.09,0,0,0-.93-2.83c-.14-.19-.68-1.2-.51-.8" transform="translate(-3.2 -3.83)"/><path class="cls-5" d="M221.44,221.1c-3-2.58-9.62.56-12.58,1.81-7.17,3-17.2,9.74-18.42,18.26a37.3,37.3,0,0,0,.16,8.12" transform="translate(-3.2 -3.83)"/><path class="cls-5" d="M192.7,235.32c.23-1.94-.08-3.87.4-5.78" transform="translate(-3.2 -3.83)"/><path class="cls-5" d="M226.59,244.47c1.68,1.44,3,3.21,4.56,4.75,5.41,5.41,9.53,4.62,4.15-3.16-2.47-3.57-11.58-15.19-16.39-15.77" transform="translate(-3.2 -3.83)"/><path class="cls-5" d="M218.42,230.42c-2.41.58-4.69.73-7.26,1.7-2.77,1-7.07,3.16-10,1.84-.42-.19-.3-.78,0-1.05,4.71-4.44,13.29-3.35,18.65-6.71,1.09-.68,1.86-4,1.86-4" transform="translate(-3.2 -3.83)"/><path class="cls-5" d="M215.11,271.89a11.15,11.15,0,0,0-1.37-5.16c-1.14-1.78-3.15-3.63-3.33-5.5-.25-2.56,1.53-3,3.51-4,6.37-3.33,7.79-7.39,12.11-12.62" transform="translate(-3.2 -3.83)"/><path class="cls-5" d="M242.58,263.33c-1.65-6.79-17.78-15.44-23.46-9.55-3,3.16-2.31,8-2.54,11.73a54.76,54.76,0,0,1-1.54,7.1" transform="translate(-3.2 -3.83)"/><path class="cls-5" d="M242.2,264.41c-4,1-16.73-2.46-19.72.64-3.78,3.93.6,10.62-6.15,12.24" transform="translate(-3.2 -3.83)"/><path class="cls-5" d="M233.35,293.21c-5-1.16-18.68-9-17.12-15.78" transform="translate(-3.2 -3.83)"/><path class="cls-5" d="M244.82,285.62c5.85-9.57,2.07-18.77-.56-23.28" transform="translate(-3.2 -3.83)"/><path class="cls-5" d="M247.71,272.48c-.79,0-3.77.25-4.26,0s0-1,0-1.29c.89-3.83-.55-6,.36-9.93" transform="translate(-3.2 -3.83)"/><path class="cls-5" d="M235.47,294.41c-1.05,1.48.38,3.41,2.18,4.33,7.36,3.75,14.73-12.6,2.45-6.69C238.52,292.81,236.49,293,235.47,294.41Z" transform="translate(-3.2 -3.83)"/><path class="cls-5" d="M245.39,289.9a9.33,9.33,0,0,0,.26-4c-.08-1.29-2.57,3.1-3.06,3.18-3.18.49-7-4-8,1.92a4.4,4.4,0,0,0,.14,2.76" transform="translate(-3.2 -3.83)"/><path class="cls-5" d="M222,289c-3.61,5.46-11.28,3-15.4-.15-6.68-5.14-24.7-24.56-21.77-33.86,1.28-4.06,7.12,9.54,8.56,10.67a18.63,18.63,0,0,0,7.91,3.72c.56.11,4.4.52,4.34,1" transform="translate(-3.2 -3.83)"/><path class="cls-5" d="M190.8,249.05c-.1,2.37.24,11.8.24,11.8" transform="translate(-3.2 -3.83)"/><path class="cls-5" d="M197.14,271.53c-.15,1.25-1.72,2.52-2.08,3.86" transform="translate(-3.2 -3.83)"/><path class="cls-5" d="M306.22,182.21a19,19,0,0,1-.69,10.1c-1.21,3.17-10.82,6.29-13.86,7-7.69,1.85-20.14,5.92-28.53,1.55-9.73-5.06,12.23-4.76,15.29-6.11,1.8-.79,5.25-4.42,5-4.16" transform="translate(-3.2 -3.83)"/><path class="cls-5" d="M270,195.07c-8.5-6.32-22.94-.78-6.38,6.1" transform="translate(-3.2 -3.83)"/><path class="cls-5" d="M310.13,179.89c-2.87,16.19-23.86,6.37-26.47,21.1" transform="translate(-3.2 -3.83)"/></g></g></g></g></g></svg>